<?xml version="1.0" encoding="UTF-8" standalone="no"?>
<svg width="44px" height="62px" viewBox="0 0 44 62" version="1.1" xmlns="http://www.w3.org/2000/svg" xmlns:xlink="http://www.w3.org/1999/xlink">
    <!-- Generator: Sketch 48.1 (47250) - http://www.bohemiancoding.com/sketch -->
    <title>1</title>
    <desc>Created with Sketch.</desc>
    <defs>
        <polygon id="path-1" points="0 0.396268547 36.5945589 0.396268547 36.5945589 48.7331605 0 48.7331605"></polygon>
    </defs>
    <g id="Page-1" stroke="none" stroke-width="1" fill="none" fill-rule="evenodd">
        <g id="1">
            <polygon id="Fill-1" fill="#ADE99F" points="28.0278049 2 1 2 1 49 36 49 36 10.0272992"></polygon>
            <polygon id="Fill-2" fill="#C6E1C9" points="28 10 36 10 28 2"></polygon>
            <g id="Group-37">
                <g id="Group-5">
                    <mask id="mask-2" fill="white">
                        <use xlink:href="#path-1"></use>
                    </mask>
                    <use id="Clip-4" fill="#5D73E3" xlink:href="#path-1"></use>
                    <path d="M2.04129863,46.6824934 L2.04129863,2.44633012 L26.6831068,2.44633012 L26.6831068,9.32669036 C26.6831068,9.89157738 27.1405863,10.3517211 27.7035452,10.3517211 L34.5530795,10.3517211 L34.5530795,46.6824934 L2.04129863,46.6824934 Z M33.1101205,8.30105412 L28.7245863,8.30105412 L28.7245863,3.89638844 L33.1101205,8.30105412 Z M36.5752712,9.12689109 L36.5746685,9.12689109 C36.5577918,9.0391005 36.5252438,8.95615353 36.4860658,8.87744473 C36.4770247,8.85685935 36.4661753,8.83809033 36.4559288,8.81932131 C36.4107233,8.74121796 36.3600932,8.66674732 36.2956,8.60196392 L28.4250247,0.696572901 C28.3611342,0.63118405 28.2876,0.580326055 28.2098466,0.535522582 C28.1905589,0.524018988 28.1712712,0.513120846 28.1501753,0.504039061 C28.0718192,0.46468466 27.9892438,0.432595687 27.9024493,0.41503757 C27.8373534,0.402323071 27.7710521,0.396268547 27.7035452,0.396268547 L1.02086027,0.396268547 C0.45669589,0.396268547 -0.000180821918,0.855201411 -0.000180821918,1.42129934 L-0.000180821918,47.7075242 C-0.000180821918,48.2730167 0.45669589,48.7331605 1.02086027,48.7331605 L35.5741205,48.7331605 C36.1370795,48.7331605 36.5945589,48.2730167 36.5945589,47.7075242 L36.5945589,9.32669036 C36.5945589,9.2588797 36.587326,9.19288539 36.5752712,9.12689109 Z" id="Fill-3" fill="#FFFFFF" mask="url(#mask-2)"></path>
                </g>
                <path d="M17.7301918,10.3518422 L6.4179726,10.3518422 C5.85441096,10.3518422 5.39753425,9.89169847 5.39753425,9.32681145 C5.39753425,8.76010807 5.85441096,8.30117521 6.4179726,8.30117521 L17.7301918,8.30117521 C18.2937534,8.30117521 18.7506301,8.76010807 18.7506301,9.32681145 C18.7506301,9.89169847 18.2937534,10.3518422 17.7301918,10.3518422" id="Fill-6" fill="#FFFFFF"></path>
                <path d="M30.055737,16.6133091 L12.0742027,16.6133091 C11.5100384,16.6133091 11.0537644,16.1543762 11.0537644,15.5894892 C11.0537644,15.0227858 11.5100384,14.5626421 12.0742027,14.5626421 L30.055737,14.5626421 C30.6192986,14.5626421 31.0761753,15.0227858 31.0761753,15.5894892 C31.0761753,16.1543762 30.6192986,16.6133091 30.055737,16.6133091" id="Fill-8" fill="#FFFFFF"></path>
                <path d="M21.0652712,22.8759263 L12.0742027,22.8759263 C11.5100384,22.8759263 11.0537644,22.4157826 11.0537644,21.8508955 C11.0537644,21.2841922 11.5100384,20.8252593 12.0742027,20.8252593 L21.0652712,20.8252593 C21.6288329,20.8252593 22.0857096,21.2841922 22.0857096,21.8508955 C22.0857096,22.4157826 21.6288329,22.8759263 21.0652712,22.8759263" id="Fill-10" fill="#FFFFFF"></path>
                <path d="M21.0652712,29.1373932 L12.0742027,29.1373932 C11.5100384,29.1373932 11.0537644,28.6784603 11.0537644,28.1123624 C11.0537644,27.5468699 11.5100384,27.0867262 12.0742027,27.0867262 L21.0652712,27.0867262 C21.6288329,27.0867262 22.0857096,27.5468699 22.0857096,28.1123624 C22.0857096,28.6784603 21.6288329,29.1373932 21.0652712,29.1373932" id="Fill-12" fill="#FFFFFF"></path>
                <path d="M17.2222027,35.3988601 L12.0742027,35.3988601 C11.5100384,35.3988601 11.0537644,34.9399272 11.0537644,34.3738293 C11.0537644,33.8083368 11.5100384,33.348193 12.0742027,33.348193 L17.2222027,33.348193 C17.7863671,33.348193 18.2426411,33.8083368 18.2426411,34.3738293 C18.2426411,34.9399272 17.7863671,35.3988601 17.2222027,35.3988601" id="Fill-14" fill="#FFFFFF"></path>
                <path d="M7.95158356,16.6133091 L6.4182137,16.6133091 C5.85465205,16.6133091 5.39777534,16.1543762 5.39777534,15.5894892 C5.39777534,15.0227858 5.85465205,14.5626421 6.4182137,14.5626421 L7.95158356,14.5626421 C8.51514521,14.5626421 8.97202192,15.0227858 8.97202192,15.5894892 C8.97202192,16.1543762 8.51514521,16.6133091 7.95158356,16.6133091" id="Fill-16" fill="#FFFFFF"></path>
                <path d="M7.95158356,22.8759263 L6.4182137,22.8759263 C5.85465205,22.8759263 5.39777534,22.4157826 5.39777534,21.8508955 C5.39777534,21.2841922 5.85465205,20.8252593 6.4182137,20.8252593 L7.95158356,20.8252593 C8.51514521,20.8252593 8.97202192,21.2841922 8.97202192,21.8508955 C8.97202192,22.4157826 8.51514521,22.8759263 7.95158356,22.8759263" id="Fill-18" fill="#FFFFFF"></path>
                <path d="M7.95158356,29.1373932 L6.4182137,29.1373932 C5.85465205,29.1373932 5.39777534,28.6784603 5.39777534,28.1123624 C5.39777534,27.5468699 5.85465205,27.0867262 6.4182137,27.0867262 L7.95158356,27.0867262 C8.51514521,27.0867262 8.97202192,27.5468699 8.97202192,28.1123624 C8.97202192,28.6784603 8.51514521,29.1373932 7.95158356,29.1373932" id="Fill-20" fill="#FFFFFF"></path>
                <path d="M7.95158356,35.3988601 L6.4182137,35.3988601 C5.85465205,35.3988601 5.39777534,34.9399272 5.39777534,34.3738293 C5.39777534,33.8083368 5.85465205,33.348193 6.4182137,33.348193 L7.95158356,33.348193 C8.51514521,33.348193 8.97202192,33.8083368 8.97202192,34.3738293 C8.97202192,34.9399272 8.51514521,35.3988601 7.95158356,35.3988601" id="Fill-22" fill="#FFFFFF"></path>
                <path d="M17.2222027,41.6615378 L12.0742027,41.6615378 C11.5100384,41.6615378 11.0537644,41.2013941 11.0537644,40.636507 C11.0537644,40.0698037 11.5100384,39.6108708 12.0742027,39.6108708 L17.2222027,39.6108708 C17.7863671,39.6108708 18.2426411,40.0698037 18.2426411,40.636507 C18.2426411,41.2013941 17.7863671,41.6615378 17.2222027,41.6615378" id="Fill-24" fill="#FFFFFF"></path>
                <path d="M7.95158356,41.6615378 L6.4182137,41.6615378 C5.85465205,41.6615378 5.39777534,41.2013941 5.39777534,40.636507 C5.39777534,40.0698037 5.85465205,39.6108708 6.4182137,39.6108708 L7.95158356,39.6108708 C8.51514521,39.6108708 8.97202192,40.0698037 8.97202192,40.636507 C8.97202192,41.2013941 8.51514521,41.6615378 7.95158356,41.6615378" id="Fill-26" fill="#FFFFFF"></path>
                <path d="M40.9827452,52.0630272 C41.7669096,52.0630272 42.4046082,52.7029903 42.4046082,53.4925001 L42.4046082,58.6945465 C42.4046082,59.4846618 41.7669096,60.1252303 40.9827452,60.1252303 L23.2471288,60.1252303 C22.4611562,60.1252303 21.8234575,59.4846618 21.8234575,58.6957574 L21.8234575,53.4925001 C21.8234575,52.7042012 22.4611562,52.0630272 23.2471288,52.0630272 L40.9827452,52.0630272 Z" id="Fill-28" fill="#5B73E3"></path>
                <path d="M25.0937425,52.0630272 L40.1176329,52.0630272 C40.1176329,52.0630272 41.8143452,48.5992344 41.8143452,42.1663034 L41.8131397,42.1663034 L41.8143452,36.6264146 C41.8143452,35.466368 40.8794959,34.5273114 39.7246466,34.5273114 C38.5704,34.5261005 37.6343452,35.4687898 37.6361534,36.6264146 L37.6343452,35.6528473 C37.6343452,34.4952225 36.7000986,33.5543495 35.5434411,33.5543495 C34.3904,33.5543495 33.4549479,34.4940116 33.4543452,35.6540582 L33.4543452,35.1684854 C33.4549479,34.0084388 32.5200986,33.0681713 31.3634411,33.0681713 C30.2104,33.0693822 29.2755507,34.0084388 29.2755507,35.1696964 L29.2749479,35.1696964 L29.2755507,24.0172645 C29.2773589,22.8572178 28.3388932,21.9169504 27.1846466,21.9157395 C26.0310027,21.9169504 25.0937425,22.8584288 25.0937425,24.0160536 L25.0949479,38.3634574 L25.0937425,38.3634574 L25.0937425,33.6439565 C25.0937425,32.494808 24.1703452,31.5660441 23.0281534,31.5660441 C21.8871671,31.5654387 20.9619616,32.494808 20.9619616,33.6427456 L20.9770301,42.1663034 C20.9770301,48.5992344 25.0937425,52.0630272 25.0937425,52.0630272" id="Fill-30" fill="#5F71E2"></path>
                <g id="Group-34" transform="translate(19.890411, 20.585379)" fill="#FFFFFF">
                    <path d="M21.4938192,38.1092279 C21.4938192,38.2557474 21.4202849,38.3514089 21.3756822,38.3968178 C21.3316822,38.4404104 21.2364493,38.5136701 21.0923945,38.5136701 L3.35677808,38.514881 C3.13436712,38.514881 2.95354521,38.3326398 2.95354521,38.1104388 L2.95354521,32.9083925 C2.95354521,32.6849806 3.13436712,32.5027394 3.35677808,32.5027394 L5.2035726,32.5027394 L20.2268603,32.5027394 L21.0923945,32.5027394 C21.3136,32.5027394 21.4938192,32.6849806 21.4938192,32.9071816 L21.4938192,38.1092279 Z M2.09223014,13.057427 C2.09223014,12.7758917 2.20072329,12.511309 2.39781918,12.3139316 C2.59551781,12.1147378 2.85770959,12.0063618 3.13738082,12.0063618 L3.1385863,12.0063618 C3.71420274,12.0063618 4.18253151,12.4780092 4.18253151,13.0586379 L4.18253151,17.7781388 C4.18253151,18.3442368 4.64001096,18.8031696 5.2035726,18.8031696 L5.20417534,18.8031696 L5.20477808,18.8031696 C5.76894247,18.8031696 6.22521644,18.3442368 6.22521644,17.7781388 L6.22401096,3.43073506 C6.22401096,2.83799723 6.70439452,2.35545173 7.29206575,2.35545173 C7.5795726,2.35545173 7.84839452,2.46806586 8.05151781,2.67149784 C8.25403836,2.87492983 8.36494247,3.14314521 8.36433973,3.43194597 L8.36433973,14.518989 C8.36373699,14.5401798 8.36373699,14.5613706 8.36373699,14.5831669 L8.36433973,14.5831669 C8.36433973,15.1492648 8.82181918,15.6081977 9.38477808,15.6081977 C9.94894247,15.6081977 10.4058192,15.1492648 10.4058192,14.5831669 C10.4058192,13.99164 10.8849973,13.5090945 11.4732712,13.5078836 C11.7601753,13.5078836 12.0289973,13.6192868 12.2309151,13.8227188 C12.4322301,14.0249399 12.5431342,14.2955771 12.5431342,14.5831669 L12.5431342,15.0687397 C12.5431342,15.6342321 12.9994082,16.0943759 13.5641753,16.0943759 C14.1271342,16.0943759 14.5846137,15.635443 14.5846137,15.0687397 C14.5852164,14.4766073 15.0649973,13.9940618 15.6520658,13.9928509 C16.2421479,13.9940618 16.7231342,14.4766073 16.7231342,15.0699506 L16.7249425,16.042307 C16.7261479,16.607194 17.1830247,17.0661269 17.7453808,17.0661269 L17.747189,17.0661269 C18.3113534,17.0637051 18.7670247,16.6047722 18.7664219,16.0386743 L18.7664219,16.0374634 C18.7664219,15.7522953 18.8761205,15.48408 19.0780384,15.2818589 C19.2799562,15.0784269 19.5475726,14.9670237 19.8332712,14.9670237 L19.8344767,14.9670237 C20.4239562,14.9670237 20.903737,15.4483583 20.903737,16.0410961 L20.903737,21.5809849 C20.903737,26.2145115 19.9863671,29.2569095 19.5439562,30.4526778 L5.60318904,30.4526778 C4.74850411,29.60565 2.10729863,26.5856538 2.10729863,21.5785631 L2.09223014,13.057427 Z M21.6788603,30.5313866 C22.2104767,28.9045362 22.9446137,25.88454 22.9434082,21.5809849 L22.9452164,16.0410961 C22.9452164,14.3179788 21.549874,12.9169621 19.8356822,12.9169621 L19.8320658,12.9169621 C19.2666959,12.9169621 18.7242301,13.0683252 18.2504767,13.350466 C17.6929425,12.5040436 16.7363945,11.9446057 15.6520658,11.9433948 C14.9715726,11.9433948 14.3417096,12.1643849 13.8287781,12.5397653 C13.7799562,12.4828528 13.7281205,12.4271512 13.673874,12.3726605 C13.0868055,11.7829499 12.3056548,11.4572165 11.4720658,11.4572165 C11.0971616,11.4584275 10.7379288,11.5262381 10.4052164,11.6491449 L10.4058192,3.43436777 C10.4064219,2.59823811 10.0833534,1.81175554 9.49507945,1.22143952 C8.90620274,0.631728957 8.12565479,0.305390153 7.29206575,0.305390153 C5.57847671,0.30720651 4.18253151,1.70882865 4.18253151,3.43073506 L4.18253151,10.1379359 C3.85644932,10.0192673 3.50505205,9.95569478 3.13918904,9.95569478 L3.13677808,9.95569478 C2.31283288,9.95569478 1.53770959,10.27719 0.954860274,10.8638733 C0.371408219,11.4493457 0.0507506849,12.2285628 0.0507506849,13.0598489 L0.0658191781,21.5809849 C0.0658191781,25.7555787 1.66850411,28.7519622 2.9595726,30.4926377 C1.80050411,30.6851715 0.912668493,31.6902224 0.912668493,32.9083925 L0.912668493,38.1104388 C0.912668493,39.4642302 2.00844932,40.565548 3.35677808,40.565548 L21.0917918,40.5643371 L21.0936,40.5643371 C21.7451616,40.5643371 22.3587507,40.3088362 22.8192438,39.8462707 C23.2815452,39.3818887 23.5352986,38.7655383 23.5352986,38.1092279 L23.5352986,32.9071816 C23.5352986,31.758033 22.7414904,30.7977857 21.6788603,30.5313866 Z" id="Fill-32"></path>
                </g>
                <path d="M39.3917534,56.0942498 C39.3917534,56.6924367 38.9089589,57.1761931 38.3140548,57.1761931 C37.7191507,57.1761931 37.2369589,56.6924367 37.2369589,56.0942498 C37.2369589,55.4972738 37.7191507,55.0123065 38.3140548,55.0123065 C38.9089589,55.0123065 39.3917534,55.4972738 39.3917534,56.0942498" id="Fill-35" fill="#FFFFFF"></path>
            </g>
        </g>
    </g>
</svg>