<?xml version="1.0" encoding="UTF-8" standalone="no"?>
<svg width="62px" height="59px" viewBox="0 0 62 59" version="1.1" xmlns="http://www.w3.org/2000/svg" xmlns:xlink="http://www.w3.org/1999/xlink">
    <!-- Generator: Sketch 48.1 (47250) - http://www.bohemiancoding.com/sketch -->
    <title>2</title>
    <desc>Created with Sketch.</desc>
    <defs>
        <polygon id="path-1" points="0 58 62 58 62 0 0 0"></polygon>
    </defs>
    <g id="Page-1" stroke="none" stroke-width="1" fill="none" fill-rule="evenodd">
        <g id="2">
            <path d="M58.7801461,36.419617 C56.0764204,34.4975265 54.6643678,39.4880143 44.2286606,45.0909628 L44.2274569,45.0909628 C45.6461304,44.2298614 46.0391698,43.2627221 45.9464775,42.3790724 C45.5275565,38.4002111 42.2580467,39.1619781 42.2580467,39.1619781 C27.8714812,42.6411202 37.6673708,36.6158481 17,39.9334957 L17.0644031,55.0219666 C17.0644031,55.0219666 40.9320654,61.5615838 58.9823838,40.8201924 C58.9823838,40.8201924 61.4014118,38.2838131 58.7801461,36.419617" id="Fill-1" fill="#4A78E7"></path>
            <path d="M59.1386829,40.1694166 C43.1683827,58.1139229 22.369309,55.0600698 18.144209,54.2097145 L18.0858089,40.8469009 C28.1939595,39.3214961 30.4752553,40.0957638 32.3176276,40.7196823 C34.496262,41.4592541 36.1818759,41.8281269 43.071254,40.199243 C43.0798603,40.1968082 43.9681579,40.0233284 44.6437559,40.4999413 C45.1527597,40.8590749 45.4644323,41.5377765 45.5701673,42.5159591 C45.6082811,42.8799623 45.493325,43.2019651 45.2050125,43.5312724 C44.3788035,44.4778025 41.5208826,46.1219039 31.6653897,46.5023421 C31.0906089,46.5236466 30.643079,47.003303 30.6652096,47.5724385 C30.6873402,48.1275738 31.1483943,48.5627951 31.704733,48.5627951 L31.7453057,48.5627951 C38.3801819,48.3059232 42.8603986,47.4726115 45.3365666,46.028164 C45.3371813,46.0269466 45.3384108,46.0269466 45.3384108,46.0269466 C50.4567263,43.3389229 53.5218141,40.7653349 55.5498375,39.0615807 C57.9762117,37.0224323 58.4083731,36.8087782 59.114708,37.2993913 C59.6101875,37.6433073 59.8708368,38.0054845 59.9120243,38.4066184 C59.9839487,39.1114942 59.3981026,39.8961098 59.1386829,40.1694166 M60.3109898,35.6126807 C58.1913703,34.1396242 56.5186659,35.5432888 54.2029448,37.4899147 C52.7232684,38.7322735 50.6724996,40.4548974 47.639993,42.3345662 C47.6387635,42.3223921 47.6412225,42.3120442 47.639993,42.2998702 C47.4690956,40.708117 46.867881,39.5381936 45.8523325,38.8211438 C44.4249089,37.8131349 42.7866299,38.1497466 42.5960609,38.1923557 C35.9353656,39.7664565 34.6364225,39.3275831 32.9926108,38.7700129 C30.8791387,38.0517457 28.2505155,37.1606074 16.8778471,38.9471449 C16.8692407,38.9483623 16.8624786,38.9520146 16.8538722,38.953232 C16.8157584,38.9605364 16.7801036,38.9708843 16.743834,38.9818409 C16.713097,38.9909714 16.6829748,38.9982758 16.6540821,39.0104499 C16.6208862,39.0232326 16.590764,39.0402762 16.5594123,39.0554937 C16.5305196,39.0707113 16.5010121,39.0853201 16.4733489,39.1029724 C16.4456857,39.1206247 16.4204814,39.142538 16.3952771,39.1626251 C16.3688433,39.1839296 16.3411801,39.2027994 16.3172052,39.2265387 C16.2932304,39.2490607 16.272944,39.2752348 16.2508134,39.3001915 C16.2292976,39.3251483 16.2077817,39.3488876 16.1887248,39.3762792 C16.1696679,39.4036707 16.1536847,39.4334971 16.1370868,39.4633234 C16.1204888,39.4919324 16.1038909,39.5193239 16.0903666,39.5485416 C16.0768424,39.5783679 16.068236,39.6094117 16.0577855,39.6404554 C16.0461054,39.673934 16.0350401,39.7055864 16.0264338,39.7402824 C16.0196716,39.7701087 16.0172127,39.8017612 16.0135243,39.8328049 C16.0086063,39.8699357 16.0030737,39.9064578 16.002459,39.9448059 C16.002459,39.9533277 16,39.9612409 16,39.9697627 L16.0663918,55.0412001 C16.068236,55.5044216 16.3829823,55.9098165 16.8354301,56.0315567 C16.9307146,56.0565134 20.6166886,57 26.1751572,57 C35.197679,57 49.1491768,54.5116302 60.6681531,41.5663855 C60.8206083,41.410558 62.155821,39.9849802 61.9849236,38.216095 C61.9173024,37.5124366 61.5712044,36.4886015 60.3109898,35.6126807" id="Fill-3" fill="#FFFFFF"></path>
            <path d="M10.2935995,58 L3.70640047,58 C2.21785085,58 1,56.70375 1,55.119375 L1,40.880625 C1,39.29625 2.21785085,38 3.70640047,38 L10.2935995,38 C11.7821491,38 13,39.29625 13,40.880625 L13,55.119375 C13,56.70375 11.7821491,58 10.2935995,58" id="Fill-5" fill="#4A78E6"></path>
            <path d="M4.34246978,39.1056885 C3.12290128,39.1056885 2.13188381,40.08424 2.13188381,41.2878458 L2.13188381,54.7127759 C2.13188381,55.91576 3.12290128,56.8943115 4.34246978,56.8943115 L10.656271,56.8943115 C11.8758395,56.8943115 12.8674866,55.91576 12.8674866,54.7127759 L12.8674866,41.2878458 C12.8674866,40.08424 11.8758395,39.1056885 10.656271,39.1056885 L4.34246978,39.1056885 Z M10.656271,59 L4.34246978,59 C1.94740598,59 0,57.0777122 0,54.7127759 L0,41.2878458 C0,38.9235312 1.94740598,37 4.34246978,37 L10.656271,37 C13.0513348,37 15,38.9235312 15,41.2878458 L15,54.7127759 C15,57.0777122 13.0513348,59 10.656271,59 Z" id="Fill-7" fill="#FFFFFF"></path>
            <path d="M10,50.5 C10,51.880625 8.880625,53 7.5,53 C6.119375,53 5,51.880625 5,50.5 C5,49.119375 6.119375,48 7.5,48 C8.880625,48 10,49.119375 10,50.5" id="Fill-9" fill="#4A78E6"></path>
            <path d="M7.5,50.0821112 C6.717987,50.0821112 6.08167926,50.718363 6.08167926,51.5003074 C6.08167926,52.281637 6.717987,52.9178888 7.5,52.9178888 C8.28139821,52.9178888 8.91832074,52.281637 8.91832074,51.5003074 C8.91832074,50.718363 8.28139821,50.0821112 7.5,50.0821112 M7.5,55 C5.56955911,55 4,53.4293493 4,51.5003074 C4,49.5706507 5.56955911,48 7.5,48 C9.4298261,48 11,49.5706507 11,51.5003074 C11,53.4293493 9.4298261,55 7.5,55" id="Fill-11" fill="#FFFFFF"></path>
            <mask id="mask-2" fill="white">
                <use xlink:href="#path-1"></use>
            </mask>
            <g id="Clip-14"></g>
            <polygon id="Fill-13" fill="#4D78E6" mask="url(#mask-2)" points="15 35 52 35 52 5 15 5"></polygon>
            <path d="M17.0358753,33.9020253 L50.9641247,33.9020253 L50.9641247,6.09859428 L17.0358753,6.09859428 L17.0358753,33.9020253 Z M51.9817618,36 L16.0176371,36 C15.4556225,36 15,35.5309608 15,34.9510127 L15,5.04898734 C15,4.46965883 15.4556225,4 16.0176371,4 L51.9817618,4 C52.5437764,4 53,4.46965883 53,5.04898734 L53,34.9510127 C53,35.5309608 52.5437764,36 51.9817618,36 Z" id="Fill-15" fill="#FFFFFF" mask="url(#mask-2)"></path>
            <path d="M34.5,4.82411421 C34.5,4.82411421 31.6879412,1 20,1 L20,31.1758858 C31.6879412,31.1758858 34.5,35 34.5,35 C34.5,35 37.3120588,31.1758858 49,31.1758858 L49,1 C37.3120588,1 34.5,4.82411421 34.5,4.82411421" id="Fill-16" fill="#4F77E5" mask="url(#mask-2)"></path>
            <path d="M47.9521172,29.2466669 C41.1844903,29.3736546 37.459363,30.7431776 35.5239414,31.8726998 L35.5239414,5.15788834 C36.3317275,4.45003819 39.5247801,2.23474064 47.9521172,2.06765155 L47.9521172,29.2466669 Z M21.0478828,2.06765155 C29.5006144,2.23595584 32.6882253,4.46340532 33.4766632,5.15424276 L33.4766632,31.8726998 C31.540637,30.7431776 27.8161144,29.3736546 21.0478828,29.2466669 L21.0478828,2.06765155 Z M48.9757563,0 C40.0102982,0 36.0384818,2.11747448 34.5003023,3.3265919 C32.9615182,2.11747448 28.9903064,0 20.0242437,0 C19.4589144,0 19,0.460558295 19,1.0292688 L19,30.2662142 C19,30.8343171 19.4589144,31.2948754 20.0242437,31.2948754 C30.8555909,31.2948754 33.6701449,34.5758975 33.6852607,34.5941254 C33.8823702,34.8547844 34.1864992,35 34.5003023,35 C34.5583468,35 34.6157867,34.9811645 34.6738312,34.9702278 C34.6962025,34.9665822 34.7185739,34.9641518 34.7409452,34.959291 C34.7699674,34.9526075 34.7989897,34.9550378 34.8274073,34.9453163 C34.8582435,34.9343796 34.881824,34.9143289 34.9114509,34.9015693 C34.9422871,34.886987 34.9719139,34.8705819 35.0021455,34.8529616 C35.0480974,34.8268349 35.0940493,34.8037463 35.1351641,34.7721512 C35.1956272,34.7247587 35.2524624,34.670075 35.3026467,34.6093153 C35.3304597,34.5758975 38.1444091,31.2948754 48.9757563,31.2948754 C49.5416902,31.2948754 50,30.8343171 50,30.2662142 L50,1.0292688 C50,0.460558295 49.5416902,0 48.9757563,0 Z" id="Fill-17" fill="#FFFFFF" mask="url(#mask-2)"></path>
        </g>
    </g>
</svg>