<?xml version="1.0" encoding="UTF-8" standalone="no"?>
<svg width="54px" height="51px" viewBox="0 0 54 51" version="1.1" xmlns="http://www.w3.org/2000/svg" xmlns:xlink="http://www.w3.org/1999/xlink">
    <!-- Generator: Sketch 48.1 (47250) - http://www.bohemiancoding.com/sketch -->
    <title>3</title>
    <desc>Created with Sketch.</desc>
    <defs></defs>
    <g id="Page-1" stroke="none" stroke-width="1" fill="none" fill-rule="evenodd">
        <g id="3">
            <polygon id="Fill-1" fill="#3F82E8" points="46.5 33.7503766 46.5 1 7.5 1 7.5 33.7503766 1 47.5006223 1 51 53 51 53 47.5006223"></polygon>
            <polygon id="Fill-2" fill="#4082E9" points="11 29 43 29 43 4 11 4"></polygon>
            <g id="Group-19">
                <path d="M11.54898,28.9948421 L42.11946,28.9948421 L42.11946,5.04577895 L11.54898,5.04577895 L11.54898,28.9948421 Z M43.03368,30.8131263 L10.63422,30.8131263 C10.12932,30.8131263 9.72,30.4062 9.72,29.9037158 L9.72,4.13636842 C9.72,3.63442105 10.12932,3.22749474 10.63422,3.22749474 L43.03368,3.22749474 C43.53912,3.22749474 43.94844,3.63442105 43.94844,4.13636842 L43.94844,29.9037158 C43.94844,30.4062 43.53912,30.8131263 43.03368,30.8131263 Z" id="Fill-3" fill="#FFFFFF"></path>
                <path d="M16.43787,37.6062189 L10.63449,37.6062189 C10.12905,37.6062189 9.72027,37.1982189 9.72027,36.6973453 C9.72027,36.1948611 10.12905,35.7879347 10.63449,35.7879347 L16.43787,35.7879347 C16.94277,35.7879347 17.35209,36.1948611 17.35209,36.6973453 C17.35209,37.1982189 16.94277,37.6062189 16.43787,37.6062189" id="Fill-5" fill="#FFFFFF"></path>
                <path d="M17.199864,41.5832526 L8.609544,41.5832526 C8.104644,41.5832526 7.694784,41.1752526 7.694784,40.6743789 C7.694784,40.1718947 8.104644,39.7649684 8.609544,39.7649684 L17.199864,39.7649684 C17.704764,39.7649684 18.114084,40.1718947 18.114084,40.6743789 C18.114084,41.1752526 17.704764,41.5832526 17.199864,41.5832526" id="Fill-6" fill="#FFFFFF"></path>
                <path d="M1.82898,49.1817158 L51.84,49.1817158 L51.84,47.5588421 L1.82898,47.5588421 L1.82898,49.1817158 Z M7.97202,34.0347158 L45.69696,34.0347158 L51.30594,45.7405579 L2.36304,45.7405579 L7.97202,34.0347158 Z M8.30898,32.2164316 L45.36,32.2164316 L45.36,1.82418947 L8.30898,1.82418947 L8.30898,32.2164316 Z M53.65332,46.5028737 C53.6517,46.4932105 53.65224,46.4830105 53.65116,46.4733474 C53.63712,46.4040947 53.6139,46.3380632 53.58528,46.2752526 C53.58312,46.2698842 53.58258,46.2639789 53.58042,46.2586105 L47.18898,32.9191579 L47.18898,0.915315789 C47.18898,0.413368421 46.77912,0.00644210526 46.27422,0.00644210526 L7.39422,0.00644210526 C6.88986,0.00644210526 6.48,0.413368421 6.48,0.915315789 L6.48,32.9191579 L0.08856,46.2586105 C0.0864,46.2639789 0.08586,46.2698842 0.08316,46.2752526 C0.05454,46.3380632 0.03186,46.4040947 0.01782,46.4733474 C0.01566,46.4840842 0.01674,46.4932105 0.01458,46.5039474 C0.00702,46.5511895 0,46.6005789 0,46.6499684 L0,50.0911263 C0,50.592 0.40986,51 0.91422,51 L52.75422,51 C53.25912,51 53.66898,50.592 53.66898,50.0911263 L53.66898,46.6499684 C53.66898,46.5995053 53.66142,46.5511895 53.65332,46.5028737 Z" id="Fill-7" fill="#FFFFFF"></path>
                <path d="M19.762218,36.3522095 C21.570678,38.3245674 21.570678,41.51502 19.762218,43.4873779 L41.428098,43.4873779 L41.428098,36.3522095 L19.762218,36.3522095 Z" id="Fill-8" fill="#3F82E9"></path>
                <path d="M21.447072,42.5782895 L40.513932,42.5782895 L40.513932,37.2614053 L21.447072,37.2614053 C22.214952,38.9283 22.214952,40.9113947 21.447072,42.5782895 M41.428152,44.3955 L19.762272,44.3955 C19.399932,44.3955 19.072152,44.1834474 18.925812,43.8532895 C18.779472,43.5252789 18.842652,43.1403632 19.086192,42.8740895 C20.580912,41.2447737 20.580912,38.5938474 19.086192,36.9645316 C18.842652,36.6982579 18.779472,36.3144158 18.925812,35.9853316 C19.072152,35.6557105 19.399932,35.4431211 19.762272,35.4431211 L41.428152,35.4431211 C41.933052,35.4431211 42.342372,35.8500474 42.342372,36.3519947 L42.342372,43.4860895 C42.342372,43.9885737 41.933052,44.3955 41.428152,44.3955" id="Fill-9" fill="#FFFFFF"></path>
                <path d="M37.545336,40.8283453 L24.591276,40.8283453 C24.086376,40.8283453 23.676516,40.4214189 23.676516,39.9194716 C23.676516,39.4169874 24.086376,39.0100611 24.591276,39.0100611 L37.545336,39.0100611 C38.050236,39.0100611 38.459556,39.4169874 38.459556,39.9194716 C38.459556,40.4214189 38.050236,40.8283453 37.545336,40.8283453" id="Fill-10" fill="#FFFFFF"></path>
                <polygon id="Fill-11" fill="#4082E9" points="38.078478 28.0825326 23.111298 28.0825326 19.762218 36.3520484 41.428098 36.3520484"></polygon>
                <path d="M21.11589,35.4431211 L40.07367,35.4431211 L37.46169,28.9913526 L23.72949,28.9913526 L21.11589,35.4431211 Z M41.42799,37.2614053 L19.76211,37.2614053 C19.45863,37.2614053 19.17459,37.1110895 19.00449,36.8619947 C18.83385,36.6112895 18.80091,36.2934789 18.91377,36.0127105 L22.26339,27.7426579 C22.40271,27.3990789 22.73859,27.1736053 23.11173,27.1736053 L38.07837,27.1736053 C38.45205,27.1736053 38.78793,27.3990789 38.92671,27.7426579 L42.27633,36.0127105 C42.38973,36.2934789 42.35517,36.6112895 42.18615,36.8619947 C42.01551,37.1110895 41.73147,37.2614053 41.42799,37.2614053 Z" id="Fill-12" fill="#FFFFFF"></path>
                <path d="M35.941644,23.3662674 L35.941644,33.1260568 L14.275764,33.1260568 C16.084224,30.4278884 16.084224,26.0638989 14.275764,23.3673411 C14.275764,23.3662674 35.941644,23.3662674 35.941644,23.3662674" id="Fill-13" fill="#4082E8"></path>
                <path d="M15.790248,32.2168074 L35.027208,32.2168074 L35.027208,24.2753021 L15.790788,24.2753021 C16.809768,26.7184705 16.809768,29.7725653 15.790248,32.2168074 M35.941428,34.0350916 L14.275548,34.0350916 C13.938588,34.0350916 13.628628,33.8504179 13.469328,33.5546179 C13.310028,33.2588179 13.327848,32.9002074 13.514688,32.6215863 C15.104988,30.2498179 15.104988,26.2422916 13.514688,23.8705232 C13.415328,23.7218179 13.361328,23.5457337 13.361328,23.3664284 C13.3611251,22.4570179 14.016888,22.4570179 15.206508,22.4570179 L35.941428,22.4570179 C36.446328,22.4570179 36.856188,22.8639442 36.856188,23.3664284 L36.856188,33.1256811 C36.856188,33.6270916 36.446328,34.0350916 35.941428,34.0350916" id="Fill-14" fill="#FFFFFF"></path>
                <path d="M32.516046,30.8254737 L18.697986,30.8254737 C18.193626,30.8254737 17.783766,30.4185474 17.783766,29.9166 C17.783766,29.4151895 18.193626,29.0071895 18.697986,29.0071895 L32.516046,29.0071895 C33.020946,29.0071895 33.430266,29.4151895 33.430266,29.9166 C33.430266,30.4185474 33.020946,30.8254737 32.516046,30.8254737" id="Fill-15" fill="#FFFFFF"></path>
                <path d="M32.516046,27.4837926 L18.697986,27.4837926 C18.193626,27.4837926 17.783766,27.0768663 17.783766,26.5749189 C17.783766,26.0724347 18.193626,25.6655084 18.697986,25.6655084 L32.516046,25.6655084 C33.020946,25.6655084 33.430266,26.0724347 33.430266,26.5749189 C33.430266,27.0768663 33.020946,27.4837926 32.516046,27.4837926" id="Fill-16" fill="#FFFFFF"></path>
                <polygon id="Fill-17" fill="#3F82E8" points="32.59197 15.0965905 17.62533 15.0965905 14.27571 23.3661063 35.94159 23.3661063"></polygon>
                <path d="M15.629436,22.4572326 L34.587756,22.4572326 L31.975236,16.0054642 L18.243036,16.0054642 L15.629436,22.4572326 Z M35.941536,24.2755168 L14.275656,24.2755168 C13.972176,24.2755168 13.688136,24.1252011 13.518036,23.8750326 C13.347396,23.6254011 13.314456,23.3065168 13.427316,23.0268221 L16.776936,14.7567695 C16.916796,14.4131905 17.252136,14.1877168 17.625276,14.1877168 L32.592456,14.1877168 C32.965596,14.1877168 33.301476,14.4131905 33.440256,14.7567695 L36.789876,23.0268221 C36.903276,23.3065168 36.868716,23.6254011 36.699696,23.8750326 C36.529056,24.1252011 36.245016,24.2755168 35.941536,24.2755168 Z" id="Fill-18" fill="#FFFFFF"></path>
            </g>
        </g>
    </g>
</svg>