<?xml version="1.0" encoding="UTF-8" standalone="no"?>
<svg width="52px" height="53px" viewBox="0 0 52 53" version="1.1" xmlns="http://www.w3.org/2000/svg" xmlns:xlink="http://www.w3.org/1999/xlink">
    <!-- Generator: Sketch 48.1 (47250) - http://www.bohemiancoding.com/sketch -->
    <title>4</title>
    <desc>Created with Sketch.</desc>
    <defs>
        <polygon id="path-1" points="0 0.17245 1.6934 0.17245 1.6934 1.88595 0 1.88595"></polygon>
        <polygon id="path-3" points="0.368528996 0.0265 2.43290799 0.0265 2.43290799 1.72815 0.368528996 1.72815"></polygon>
    </defs>
    <g id="Page-1" stroke="none" stroke-width="1" fill="none" fill-rule="evenodd">
        <g id="4">
            <path d="M43.5415236,19.3735669 C42.8271513,18.7829193 41.9684045,18.4783666 41.1040327,18.4389901 C42.0077793,17.7019111 42.5846522,16.5907553 42.5846522,15.3442428 C42.5846522,13.1219312 40.754034,11.3210712 38.4971674,11.3210712 C37.6115456,11.3210712 36.7927987,11.5991678 36.1234262,12.0704554 C36.2171758,11.7265262 36.2703006,11.3666003 36.2671756,10.9931388 C36.2503007,8.77082716 34.4065576,6.9835029 32.1490659,7.00011487 C29.9028243,7.01734209 28.094081,8.81512573 28.094081,11.0239017 L28.092831,11.0232864 L28.092831,28.2425098 C27.4353335,28.4295482 26.7315861,28.5642897 26.0003388,28.5642897 C25.2678415,28.5642897 24.5640941,28.4295482 23.9065966,28.2418945 L23.9103465,21.9742621 L23.9072216,11.0239017 C23.9072216,8.8009748 22.0772284,7.00011487 19.8197367,7.00011487 C17.5628701,7.00011487 15.7322519,8.8009748 15.7322519,11.0239017 C15.7322519,11.361063 15.7791268,11.6871497 15.8585015,12.000316 C14.7753805,11.2490861 13.3422608,11.0288237 12.0147657,11.5394878 C9.91227355,12.348552 8.87415241,14.6822252 9.69664935,16.7519529 C9.98789827,17.4878014 10.4785214,18.0882931 11.0803942,18.5238957 C9.91789853,18.5263567 8.76415282,19.0130257 7.95790581,19.9574466 C6.50541121,21.6592501 6.73041037,24.197189 8.45852895,25.6264331 C9.17102631,26.2164655 10.0285231,26.5204029 10.8916449,26.5610099 C9.98977327,27.2987041 9.4154004,28.4104752 9.4154004,29.6557572 C9.4154004,31.8780688 11.2453936,33.6789288 13.5028852,33.6789288 C14.3885069,33.6789288 15.2072539,33.4008322 15.8760014,32.9295446 C15.7822517,33.2734738 15.7291269,33.6333997 15.7322519,34.0068612 C15.7491269,36.2291728 17.59287,38.0164971 19.8509866,37.9998851 L32.1796908,37.9998851 C34.4378074,37.9998851 36.2671756,36.1990252 36.2671756,33.9760983 C36.2671756,33.638937 36.2209258,33.3128503 36.1409261,32.999684 C37.2252971,33.7509139 38.6584168,33.9711763 39.9852868,33.4605122 C42.087779,32.651448 43.1259002,30.3177748 42.3040282,28.2480471 C42.0109043,27.5097376 41.5165311,26.9123222 40.9115334,26.4767196 C42.0765291,26.4761043 43.2333998,25.9894353 44.0421468,25.0425534 C45.4940164,23.3413652 45.2702672,20.802811 43.5415236,19.3735669" id="Fill-1" fill="#2D92EC"></path>
            <path d="M43.1830983,25.3677682 C42.6090828,26.0409871 41.7658222,26.4269987 40.8695851,26.4276124 C40.4133642,26.4276124 40.0082501,26.7166608 39.8667718,27.1444033 C39.7252935,27.5715322 39.8779904,28.0397783 40.2463326,28.3055065 C40.713772,28.6411954 41.0690259,29.0928719 41.2740759,29.6120544 C41.5682511,30.3515519 41.5520466,31.1597828 41.2285785,31.8882339 C40.9051105,32.6160713 40.3136439,33.1757574 39.5613781,33.4648058 C38.6165273,33.8293381 37.5538818,33.7010767 36.71997,33.1229799 C36.35973,32.8732077 35.8785791,32.870753 35.5145997,33.1162293 C35.1512435,33.3623194 34.9817188,33.8047905 35.0889182,34.2263961 C35.1518667,34.4718725 35.1836526,34.7148941 35.1836526,34.9468692 C35.1836526,36.587265 33.8280784,37.9220427 32.1621245,37.9220427 L19.8678458,37.9220427 C19.8528878,37.9208153 19.8466553,37.9220427 19.8366832,37.9220427 C18.1813246,37.9220427 16.8288667,36.6019936 16.8157784,34.9701895 C16.8139086,34.7099846 16.8506805,34.441188 16.9242243,34.1723913 C17.039526,33.7483309 16.8718711,33.2984955 16.5053986,33.0487233 C16.1383029,32.7989511 15.6527892,32.8020196 15.2900563,33.0579287 C14.7764962,33.4200063 14.1700716,33.6114779 13.5380935,33.6114779 C11.8721396,33.6114779 10.5171887,32.2773139 10.5171887,30.6375318 C10.5171887,29.7513622 10.9148238,28.9173563 11.6085038,28.3490785 C11.9431904,28.0753724 12.0728269,27.6267644 11.9338416,27.220501 C11.7967261,26.8136239 11.4184118,26.5325535 10.9833816,26.5123017 C10.3158781,26.4816172 9.69387216,26.2428914 9.18592138,25.8231268 C7.91074678,24.7675785 7.74558487,22.8878433 8.81633265,21.6322318 C9.38847844,20.960854 10.2304926,20.5748424 11.1242366,20.5730013 C11.5798342,20.5717739 11.9830786,20.2827255 12.1245569,19.8562104 C12.2666584,19.4303089 12.1133383,18.9620627 11.7468659,18.6963346 C11.2837893,18.3618731 10.9310284,17.9095829 10.7241085,17.3885593 C10.1183071,15.860469 10.8874007,14.1317018 12.4380529,13.5351942 C13.3835269,13.1706619 14.4449259,13.2989233 15.279461,13.8770201 C15.6390777,14.1261786 16.1183589,14.1298607 16.4829616,13.8843844 C16.8463178,13.638908 17.0170889,13.1970506 16.911136,12.7760586 C16.846941,12.5244454 16.8157784,12.2881744 16.8157784,12.0531308 C16.8157784,10.412735 18.1707293,9.07857103 19.8366832,9.07857103 C21.5026371,9.07857103 22.8582113,10.412735 22.8582113,12.0531308 L22.8607043,22.9743738 L22.8569648,29.2272702 C22.8569648,29.6899931 23.1679678,30.0974839 23.6185793,30.2257453 C25.3281609,30.7130158 26.6700235,30.7136295 28.3796051,30.2257453 C28.8314632,30.0974839 29.1418429,29.6899931 29.1418429,29.2278839 L29.1418429,12.118182 C29.1437127,12.0967028 29.1443359,12.0746099 29.1443359,12.0525171 C29.1437127,10.4256225 30.4874451,9.09145854 32.1390642,9.07857103 L32.1621245,9.07857103 C33.8174831,9.07857103 35.1711875,10.3980064 35.1836526,12.0298105 C35.1855223,12.2906291 35.1487504,12.558812 35.0758299,12.8276087 C34.9605282,13.2516691 35.1275599,13.7015045 35.4940323,13.9512767 C35.861128,14.2016625 36.3466417,14.1973667 36.7093747,13.9420713 C37.2229347,13.5799937 37.8293594,13.3885221 38.4619607,13.3885221 C40.1279146,13.3885221 41.4822423,14.7226861 41.4822423,16.3624682 C41.4822423,17.2486378 41.0833607,18.08203 40.3884341,18.6490804 C40.0531243,18.9227865 39.9228645,19.3720083 40.0606033,19.7788853 C40.1995886,20.1863761 40.5766564,20.4674465 41.0129331,20.4876983 C41.6823063,20.5177691 42.3043123,20.7564949 42.8135096,21.1768732 C44.0886842,22.2324215 44.2544694,24.1121567 43.1830983,25.3677682 M44.1715768,19.5855727 C43.7932625,19.273204 43.3800461,19.0203634 42.9394066,18.8301192 C43.3638415,18.0857122 43.5931985,17.2394324 43.5931985,16.3624682 C43.5931985,13.5769252 41.2909038,11.3099511 38.4619607,11.3099511 C38.0524838,11.3099511 37.6486162,11.3572053 37.2578369,11.4498726 C36.9518199,8.93128522 34.7585944,7.00122738 32.1234829,7 C29.3406605,7.02147918 27.0726447,9.24856341 27.034003,11.9801015 C27.0321332,12.0046492 27.0308867,12.0285831 27.0308867,12.0525171 L27.0308867,28.4098339 C26.3041743,28.5436185 25.6952566,28.5436185 24.967921,28.4098339 L24.9710373,22.9749874 L24.967921,12.0531308 C24.967921,9.26697413 22.6662495,7 19.8366832,7 C17.2327343,7 15.0769039,8.9190114 14.7484499,11.3958678 C13.7394041,11.1528462 12.6667865,11.2154427 11.6695826,11.5996132 C9.03509428,12.6134305 7.7281338,15.5493277 8.75837017,18.1446265 C8.86183009,18.4048314 8.98585733,18.6546036 9.1292054,18.892102 C8.39189771,19.1989474 7.7281338,19.6757852 7.20023894,20.295613 C5.38034166,22.4281889 5.66205179,25.6218362 7.8278542,27.4144273 C8.20554521,27.7261823 8.61813836,27.9790229 9.05877787,28.1698808 C8.63496618,28.9142878 8.40623251,29.7605676 8.40623251,30.6375318 C8.40623251,33.4236885 10.7085272,35.6900489 13.5380935,35.6900489 C13.9475704,35.6900489 14.3508148,35.6427947 14.7415941,35.5501274 C15.0457413,38.056441 17.2190228,40 19.8366832,40 L19.8678458,40 L19.8753249,40 L32.1621245,40 C34.7654502,40 36.922527,38.0809886 37.2509811,35.6047459 C38.2594036,35.8459264 39.3320212,35.7845573 40.3298484,35.4003868 C41.6068928,34.9094341 42.612199,33.9575995 43.1619077,32.7210124 C43.7116164,31.485039 43.7402861,30.1115988 43.2410608,28.8553735 C43.1382241,28.5957823 43.0129504,28.3460101 42.8683558,28.1085117 C43.6075333,27.8016663 44.2700507,27.3248284 44.7998153,26.7050007 C46.6197126,24.5718111 46.3380024,21.3787775 44.1715768,19.5855727" id="Fill-3" fill="#FFFFFF"></path>
            <path d="M25.5,26.485773 C21.9102809,26.485773 19,23.1260374 19,26.5109868 C19,29.2101214 21.6022358,36.3210364 21.6022358,39 L29.3971431,39 C29.3971431,36.205053 32,29.2101214 32,26.5109868 C32,23.1260374 29.0897191,26.485773 25.5,26.485773" id="Fill-5" fill="#2E92EC"></path>
            <path d="M22.5922773,37.883793 L28.4046385,37.883793 C28.5977054,36.3919483 29.123242,34.4288632 29.6728349,32.37578 C30.2816432,30.0989512 30.9114236,27.7446241 30.9114236,26.5590232 C30.9114236,26.369652 30.8997039,26.2346548 30.8867506,26.1415317 C30.5771034,26.2102803 30.0528004,26.419651 29.6463114,26.5815227 C28.5132001,27.0315136 27.1025167,27.5927522 25.5006168,27.5927522 C23.8981002,27.5927522 22.4880336,27.0315136 21.3543055,26.5815227 C20.9484333,26.419651 20.4222798,26.2102803 20.1132494,26.1415317 C20.1009129,26.2346548 20.0885764,26.369652 20.0885764,26.5590232 C20.0885764,27.7596238 20.7294597,30.1676998 21.348754,32.4964025 C21.8853935,34.5119865 22.3979768,36.4394474 22.5922773,37.883793 M29.3718233,40 L21.6287935,40 C21.052677,40 20.5845053,39.5262596 20.5845053,38.9418965 C20.5845053,37.7562956 19.9485566,35.3625943 19.3323464,33.0476413 C18.6470516,30.4726936 18,28.0402431 18,26.5590232 C18,25.8565375 18.0912904,24.8584328 18.8795954,24.3140688 C19.7881816,23.6853316 20.8694794,24.1140729 22.1179373,24.6109378 C23.1381693,25.0165545 24.2934863,25.4759202 25.5006168,25.4759202 C26.7077473,25.4759202 27.8630644,25.0165545 28.8826795,24.6109378 C30.1317543,24.1146979 31.2105848,23.6853316 32.1210215,24.3140688 C32.9093264,24.8584328 33,25.8565375 33,26.5590232 C33,28.0271184 32.3634345,30.40832 31.6886257,32.9295187 C31.0625463,35.2675962 30.4167283,37.685672 30.4167283,38.9418965 C30.4167283,39.5262596 29.9485566,40 29.3718233,40" id="Fill-7" fill="#FFFFFF"></path>
            <path d="M32.9649356,44 L18.0350644,44 C17.4634252,44 17,43.5524063 17,43.0002952 C17,42.4475937 17.4634252,42 18.0350644,42 L32.9649356,42 C33.5365748,42 34,42.4475937 34,43.0002952 C34,43.5524063 33.5365748,44 32.9649356,44" id="Fill-9" fill="#FFFFFF"></path>
            <path d="M32.9649356,48 L18.0350644,48 C17.4634252,48 17,47.5522741 17,47 C17,46.4477259 17.4634252,46 18.0350644,46 L32.9649356,46 C33.5365748,46 34,46.4477259 34,47 C34,47.5522741 33.5365748,48 32.9649356,48" id="Fill-11" fill="#FFFFFF"></path>
            <path d="M30.9619287,53 L22.0380713,53 C21.4653846,53 21,52.5524063 21,51.9997048 C21,51.4475937 21.4653846,51 22.0380713,51 L30.9619287,51 C31.5352285,51 32,51.4475937 32,51.9997048 C32,52.5524063 31.5352285,53 30.9619287,53" id="Fill-13" fill="#FFFFFF"></path>
            <path d="M7.66916076,37.2860027 C7.28691241,36.9046658 6.66850155,36.9046658 6.2862532,37.2860027 C5.90458227,37.6673397 5.90458227,38.2863633 6.2862532,38.6677003 L6.30992719,38.6919305 C6.50162878,38.8967333 6.76204269,39 7.0224566,39 C7.26208359,39 7.5028654,38.9123098 7.69110251,38.7357756 C8.08547656,38.3659768 8.10453124,37.7475301 7.734986,37.3546549 C7.72863444,37.3471551 7.67666714,37.2935026 7.66916076,37.2860027" id="Fill-15" fill="#FFFFFF"></path>
            <path d="M21.8718805,0.0143152417 L21.8238414,0.0225375388 C21.2948385,0.104173203 20.9305414,0.611606398 21.0111786,1.15427801 C21.0843812,1.64702853 21.4967174,2 21.967387,2 C22.0159981,2 22.0646091,1.99647616 22.1137921,1.98825386 C22.1189391,1.98766655 22.1858509,1.97709503 22.1909979,1.97650772 C22.7177132,1.88606245 23.0751475,1.3733435 22.9865038,0.8318465 C22.8990039,0.289762196 22.3997396,-0.0784792546 21.8718805,0.0143152417" id="Fill-17" fill="#FFFFFF"></path>
            <path d="M12.8718059,2.01431524 L12.8243355,2.02195023 C12.294726,2.1041732 11.9309769,2.6116064 12.0110475,3.15427801 C12.0842548,3.64702853 12.4971901,4 12.9678905,4 C13.0165048,4 13.065119,3.99647616 13.1143052,3.98825386 C13.1194526,3.98766655 13.1863687,3.97709503 13.1915161,3.97592042 C13.717694,3.88606245 14.0751518,3.3733435 13.9865023,2.8318465 C13.8989966,2.2897622 13.3996995,1.92152075 12.8718059,2.01431524" id="Fill-19" fill="#FFFFFF"></path>
            <path d="M2.63388204,31.0686547 C2.11997371,31.2670687 1.86744471,31.837944 2.06982192,32.3426812 C2.07218201,32.3496431 2.099913,32.415201 2.1028631,32.4221628 C2.25921868,32.790563 2.61323131,33 2.99202482,33 C3.12300949,33 3.25753429,32.9744731 3.38733892,32.922839 C3.89534704,32.7197838 4.12899537,32.1239617 3.92838822,31.6232856 C3.72660102,31.1179681 3.14366023,30.8696606 2.63388204,31.0686547" id="Fill-21" fill="#FFFFFF"></path>
            <g id="Group-25" transform="translate(0.000000, 22.000000)">
                <mask id="mask-2" fill="white">
                    <use xlink:href="#path-1"></use>
                </mask>
                <g id="Clip-24"></g>
                <path d="M1.6934,1.01145 C1.6934,0.54345 1.3144,0.17245 0.8469,0.17245 C0.3794,0.17245 -0.0001,0.55995 -0.0001,1.02745 L-0.0001,1.06695 C-0.0001,1.53495 0.3794,1.88595 0.8469,1.88595 C1.3144,1.88595 1.6934,1.47895 1.6934,1.01145" id="Fill-23" fill="#FFFFFF" mask="url(#mask-2)"></path>
            </g>
            <path d="M6.97806052,9 C7.23510237,9 7.49214423,8.8990286 7.6844924,8.69939373 C7.68738051,8.69650883 7.73301266,8.64804256 7.73532315,8.64573464 C8.1044237,8.25223469 8.08536217,7.63371276 7.69142386,7.26444594 C7.29806318,6.89575609 6.67827462,6.91479641 6.30917407,7.30771939 L6.27162864,7.34695399 C5.89848473,7.73641509 5.91119242,8.35493702 6.30108736,8.7282427 C6.49112505,8.90999121 6.73488159,9 6.97806052,9" id="Fill-26" fill="#FFFFFF"></path>
            <path d="M3.36825403,14.064934 C2.86323047,13.8734342 2.28822673,14.1194026 2.09169908,14.6199396 L2.07711988,14.6537674 C1.86601303,15.148571 2.10336244,15.717337 2.60547017,15.9243174 C2.73026814,15.9759192 2.85973146,16 2.98744527,16 C3.37350255,16 3.74031528,15.7763924 3.89777066,15.4042864 C3.90185284,15.3962594 3.9298449,15.3291771 3.93276075,15.3205768 C4.13045473,14.8206131 3.87735978,14.2587273 3.36825403,14.064934" id="Fill-28" fill="#FFFFFF"></path>
            <g id="Group-32" transform="translate(28.000000, 0.000000)">
                <mask id="mask-4" fill="white">
                    <use xlink:href="#path-3"></use>
                </mask>
                <g id="Clip-31"></g>
                <path d="M1.56858,0.04465 L1.50318,0.03615 C0.95238,-0.03485 0.46338,0.28865 0.37938,0.75065 C0.29538,1.21265 0.70938,1.64865 1.26438,1.71865 C1.31598,1.72515 1.36698,1.72815 1.41798,1.72815 C1.91178,1.72815 2.34438,1.42815 2.42118,1.00865 C2.50578,0.54615 2.12358,0.11465 1.56858,0.04465" id="Fill-30" fill="#FFFFFF" mask="url(#mask-4)"></path>
            </g>
            <path d="M49.3941496,31.0756939 C48.8908307,30.8682493 48.3122765,31.1020542 48.1017341,31.5954514 C48.0976516,31.6034741 48.069657,31.6710941 48.0673242,31.6791168 C47.8696126,32.1788175 48.1221468,32.7404078 48.6312979,32.9340991 C48.7485251,32.9787971 48.8692516,33 48.9876452,33 C49.3836516,33 49.7574956,32.7644759 49.9085496,32.3793855 L49.9225468,32.3455755 C50.1342557,31.8516053 49.8968852,31.2831384 49.3941496,31.0756939" id="Fill-33" fill="#FFFFFF"></path>
            <path d="M51,22 C50.4477259,22 50,22.4517922 50,22.9713809 C50,22.9863851 50.0011813,23.0008336 50.001772,23.015282 C50.0011813,23.0297305 50,23.0441789 50,23.0586274 C50,23.5787719 50.4477259,24 51,24 C51.5528647,24 52,23.5787719 52,23.0586274 L52,22.9969436 L52,22.9841623 L52,22.9713809 L52,22.9102528 C52,22.3901084 51.5528647,22 51,22" id="Fill-35" fill="#FFFFFF"></path>
            <path d="M48.1042568,15.4097095 C48.2640214,15.7782112 48.6290312,16 49.0132828,16 C49.142144,16 49.2739207,15.9742106 49.3998666,15.9220587 C49.9013178,15.7117319 50.1345509,15.1414998 49.9205595,14.6480628 L49.8978193,14.5953378 C49.6879095,14.1013277 49.1100745,13.8686501 48.6057079,14.0755383 C48.1030906,14.2829996 47.8657759,14.8515124 48.0774349,15.3460957 C48.078018,15.347815 48.1036737,15.4079902 48.1042568,15.4097095" id="Fill-37" fill="#FFFFFF"></path>
            <path d="M44.331321,8.71381821 C44.5218128,8.9047984 44.7723383,9 45.0222866,9 C45.2722349,9 45.5221832,8.9047984 45.7138294,8.71381821 C46.0953902,8.33243482 46.0953902,7.71333592 45.7138294,7.33195253 L45.6901623,7.30771939 C45.3213009,6.91479641 44.7019141,6.89575609 44.3088083,7.26444594 C43.9145481,7.63371276 43.8954989,8.25223469 44.2649375,8.64515766 C44.2718645,8.6526584 44.3232395,8.70631748 44.331321,8.71381821" id="Fill-39" fill="#FFFFFF"></path>
            <path d="M44.3157077,37.3011364 C44.3133974,37.3034439 44.2677689,37.3519004 44.264881,37.3542079 C43.8952322,37.7476289 43.9148698,38.3660268 44.3087768,38.7352196 C44.4970667,38.9123167 44.737916,39 44.9776101,39 C45.2386746,39 45.4991615,38.8967414 45.6914944,38.6919548 L45.7278817,38.6533049 C46.1021511,38.2633451 46.0882893,37.6449472 45.6990029,37.2717164 C45.3079838,36.8979087 44.6893996,36.9117534 44.3157077,37.3011364" id="Fill-41" fill="#FFFFFF"></path>
            <path d="M38.465158,2.13659905 C38.4610733,2.13485102 38.3998026,2.10338646 38.3957179,2.10105575 C37.9090532,1.85924481 37.3482801,2.06784317 37.1020301,2.55146505 C36.8551966,3.03508694 37.0751877,3.64107099 37.5577676,3.88987405 C37.7024833,3.9644567 37.8577025,4 38.0111711,4 C38.3682919,4 38.7143257,3.80538589 38.8899684,3.4662679 C39.1397196,2.98206333 38.9500721,2.38715015 38.465158,2.13659905" id="Fill-43" fill="#FFFFFF"></path>
        </g>
    </g>
</svg>