<?xml version="1.0" encoding="UTF-8"?>
<svg width="140px" height="33px" viewBox="0 0 140 33" version="1.1" xmlns="http://www.w3.org/2000/svg" xmlns:xlink="http://www.w3.org/1999/xlink">
    <!-- Generator: Sketch 48.1 (47250) - http://www.bohemiancoding.com/sketch -->
    <title>Group 4</title>
    <desc>Created with Sketch.</desc>
    <defs></defs>
    <g id="S-AEIS考前点拨课移动端" stroke="none" stroke-width="1" fill="none" fill-rule="evenodd" transform="translate(-24.000000, -3521.000000)">
        <g id="Group-20" transform="translate(0.000000, 3512.000000)" fill="#FFFFFF">
            <g id="Group-4" transform="translate(24.000000, 6.000000)">
                <text id="拨打电话" font-family="PingFangSC-Regular, PingFang SC" font-size="14" font-weight="normal">
                    <tspan x="39" y="15">拨打电话</tspan>
                </text>
                <text id="400-850-6500" font-family="PingFangSC-Regular, PingFang SC" font-size="14" font-weight="normal">
                    <tspan x="39" y="35">400-850-6500</tspan>
                </text>
                <path d="M15.429535,24.3017029 C13.7065314,22.8979629 11.7185407,21.0100442 9.99688577,18.8803623 C8.7888038,17.3879019 7.72054594,15.820551 8.82378158,14.7180256 L1.08116342,7 C-0.0476094776,8.40613194 -2.54808551,15.101785 8.17003648,26.0639343 C19.462377,37.6162484 26.7463686,35.1449059 28,33.8425856 L20.4512823,26.3065238 C19.3959453,27.3591222 18.0371196,26.4232086 15.429535,24.3017029 Z M30.6486089,29.198989 L30.6486089,29.1920577 C30.6486089,29.1920577 24.7918567,23.3455047 24.7883095,23.3431221 C24.325142,22.8805045 23.583477,22.8899916 23.1226888,23.3455047 L21,25.4726188 L28.5257471,33 C28.5257471,33 30.6509881,30.8798605 30.6486089,30.8774779 L30.6543623,30.8729292 C31.140673,30.385749 31.0908393,29.6442351 30.6486089,29.198989 Z M11.6577922,11.913984 L11.6577922,11.9081897 C12.1359904,11.4281942 12.0916088,10.699893 11.6577922,10.2653578 L11.6577922,10.2573906 C11.6577922,10.2573906 5.72997197,4.34035837 5.72763162,4.34035837 C5.26968806,3.88081367 4.54017827,3.8923172 4.08823453,4.34035837 L2,6.43468245 L9.56725984,14 C9.56725984,14.0001704 11.6577922,11.9173073 11.6577922,11.913984 Z" id="电话-2"></path>
            </g>
        </g>
    </g>
</svg>