<?xml version="1.0" encoding="UTF-8" standalone="no"?>
<svg width="64px" height="59px" viewBox="0 0 64 59" version="1.1" xmlns="http://www.w3.org/2000/svg" xmlns:xlink="http://www.w3.org/1999/xlink">
    <!-- Generator: Sketch 48.1 (47250) - http://www.bohemiancoding.com/sketch -->
    <title>x_2</title>
    <desc>Created with Sketch.</desc>
    <defs></defs>
    <g id="Page-1" stroke="none" stroke-width="1" fill="none" fill-rule="evenodd">
        <g id="x_2">
            <g id="Page-1">
                <path d="M38,24 C38,25.1046012 37.1047574,26 36,26 C34.8953988,26 34,25.1046012 34,24 C34,22.8953988 34.8953988,22 36,22 C37.1047574,22 38,22.8953988 38,24" id="Fill-1" fill="#54FEBD"></path>
                <path d="M56,10.9996093 C56,12.1045826 55.1046175,13 54.0003125,13 C52.8955387,13 52,12.1045826 52,10.9996093 C52,9.89541743 52.8955387,9 54.0003125,9 C55.1046175,9 56,9.89541743 56,10.9996093" id="Fill-3" fill="#54FEBD"></path>
                <path d="M15,28 C15,29.1047574 14.1046012,30 13,30 C11.8952426,30 11,29.1047574 11,28 C11,26.8953988 11.8952426,26 13,26 C14.1046012,26 15,26.8953988 15,28" id="Fill-5" fill="#54FEBD"></path>
                <path d="M25,59 L11,59 L11,54.0000651 C11,50.1341779 14.1341488,47 18,47 C21.8658512,47 25,50.1341779 25,54.0000651 L25,59 Z" id="Fill-7" fill="#5B53FF"></path>
                <path d="M42,59 L28,59 L28,54.0000651 C28,50.1341779 31.1341488,47 35,47 C38.8658512,47 42,50.1341779 42,54.0000651 L42,59 Z" id="Fill-9" fill="#5B53FF"></path>
                <path d="M60,59 L46,59 L46,54.0000651 C46,50.1341779 49.1341488,47 53,47 C56.8658512,47 60,50.1341779 60,54.0000651 L60,59 Z" id="Fill-11" fill="#5B53FF"></path>
                <path d="M25.9995117,39 L19.999707,39 C19.4467275,39 19,38.7760331 19,38.5001953 C19,38.2239669 19.4467275,38 19.999707,38 L25.9995117,38 C26.5526475,38 27,38.2239669 27,38.5001953 C27,38.7760331 26.5526475,39 25.9995117,39" id="Fill-13" fill="#1D1B4C"></path>
                <path d="M62.9997049,39 L55.9996701,39 C55.446711,39 55,38.7760331 55,38.5001953 C55,38.2239669 55.446711,38 55.9996701,38 L62.9997049,38 C63.552664,38 64,38.2239669 64,38.5001953 C64,38.7760331 63.552664,39 62.9997049,39" id="Fill-15" fill="#1D1B4C"></path>
                <path d="M44.000293,39 L37.9998633,39 C37.4468837,39 37,38.7760331 37,38.5001953 C37,38.2239669 37.4468837,38 37.9998633,38 L44.000293,38 C44.5532725,38 45,38.2239669 45,38.5001953 C45,38.7760331 44.5532725,39 44.000293,39" id="Fill-17" fill="#1D1B4C"></path>
                <path d="M7.99956599,39 L0.99965279,39 C0.446703239,39 0,38.7760331 0,38.5001953 C0,38.2239669 0.446703239,38 0.99965279,38 L7.99956599,38 C8.55251554,38 9,38.2239669 9,38.5001953 C9,38.7760331 8.55251554,39 7.99956599,39" id="Fill-19" fill="#1D1B4C"></path>
                <path d="M25.9995117,39 L19.999707,39 C19.4467275,39 19,38.7760331 19,38.5001953 C19,38.2239669 19.4467275,38 19.999707,38 L25.9995117,38 C26.5526475,38 27,38.2239669 27,38.5001953 C27,38.7760331 26.5526475,39 25.9995117,39" id="Fill-21" fill="#1D1B4C"></path>
                <path d="M61.0003098,40 L56.9999865,40 C56.4470163,40 56.0002963,39.5520312 56.0002963,39.0003125 C56.0002963,38.4478125 56.4470163,37.9998438 56.9999865,37.9998438 L60.0006196,37.9998438 L60.0006196,2.00015625 L6.00016164,2.00015625 L6.00016164,37.9998438 L9.00001347,37.9998438 C9.55298371,37.9998438 10.0004849,38.4478125 10.0004849,39.0003125 C10.0004849,39.5520312 9.55298371,40 9.00001347,40 L5.00047145,40 C4.44734496,40 4,39.5520312 4,39.0003125 L4,0.9996875 C4,0.44796875 4.44734496,0 5.00047145,0 L61.0003098,0 C61.55328,0 62,0.44796875 62,0.9996875 L62,39.0003125 C62,39.5520312 61.55328,40 61.0003098,40" id="Fill-23" fill="#1D1B4C"></path>
                <path d="M44.000293,39 L37.9998633,39 C37.4468837,39 37,38.7760331 37,38.5001953 C37,38.2239669 37.4468837,38 37.9998633,38 L44.000293,38 C44.5532725,38 45,38.2239669 45,38.5001953 C45,38.7760331 44.5532725,39 44.000293,39" id="Fill-25" fill="#1D1B4C"></path>
                <path d="M14.0003906,34.0002009 C11.2432671,34.0002009 9.00022322,36.2432197 9.00022322,39.0003125 C9.00022322,41.7574053 11.2432671,44.0004241 14.0003906,44.0004241 C16.7573579,44.0004241 19.0005581,41.7574053 19.0005581,39.0003125 C19.0005581,36.2432197 16.7573579,34.0002009 14.0003906,34.0002009 M14.0003906,46 C10.1408864,46 7,42.8602424 7,39.0003125 C7,35.1397576 10.1408864,32 14.0003906,32 C17.8591136,32 21,35.1397576 21,39.0003125 C21,42.8602424 17.8591136,46 14.0003906,46" id="Fill-27" fill="#1D1B4C"></path>
                <path d="M32,34.0002009 C29.2430303,34.0002009 27.0001116,36.2432197 27.0001116,39.0003125 C27.0001116,41.7574053 29.2430303,44.0004241 32,44.0004241 C34.7569697,44.0004241 36.9998884,41.7574053 36.9998884,39.0003125 C36.9998884,36.2432197 34.7569697,34.0002009 32,34.0002009 M32,46 C28.1408674,46 25,42.8602424 25,39.0003125 C25,35.1397576 28.1408674,32 32,32 C35.8585076,32 39,35.1397576 39,39.0003125 C39,42.8602424 35.8585076,46 32,46" id="Fill-29" fill="#1D1B4C"></path>
                <path d="M50,34.0002009 C47.2430303,34.0002009 45.0001116,36.2432197 45.0001116,39.0003125 C45.0001116,41.7574053 47.2430303,44.0004241 50,44.0004241 C52.7569697,44.0004241 54.9998884,41.7574053 54.9998884,39.0003125 C54.9998884,36.2432197 52.7569697,34.0002009 50,34.0002009 M50,46 C46.1408674,46 43,42.8602424 43,39.0003125 C43,35.1397576 46.1408674,32 50,32 C53.8591326,32 57,35.1397576 57,39.0003125 C57,42.8602424 53.8591326,46 50,46" id="Fill-31" fill="#1D1B4C"></path>
                <path d="M7.87509155,55.9997991 L19.1249084,55.9997991 L19.1249084,52.0000223 C19.1249084,48.6907297 16.602082,45.9995759 13.5003662,45.9995759 C10.397918,45.9995759 7.87509155,48.6907297 7.87509155,52.0000223 L7.87509155,55.9997991 Z M20.062088,58 L6.93791198,58 C6.41951896,58 6,57.5520213 6,57.0001339 L6,52.0000223 C6,47.5889864 9.36508696,44 13.5003662,44 C17.635499,44 21,47.5889864 21,52.0000223 L21,57.0001339 C21,57.5520213 20.5806275,58 20.062088,58 Z" id="Fill-33" fill="#1D1B4C"></path>
                <path d="M26.8744507,55.9997991 L38.1248169,55.9997991 L38.1248169,52.0000223 C38.1248169,48.6907297 35.6020137,45.9995759 32.5,45.9995759 C29.3974003,45.9995759 26.8744507,48.6907297 26.8744507,52.0000223 L26.8744507,55.9997991 Z M39.0627747,58 L25.9372253,58 C25.418807,58 25,57.5520213 25,57.0001339 L25,52.0000223 C25,47.5889864 28.3645188,44 32.5,44 C36.6353347,44 40,47.5889864 40,52.0000223 L40,57.0001339 C40,57.5520213 39.581193,58 39.0627747,58 Z" id="Fill-35" fill="#1D1B4C"></path>
                <path d="M44.8751648,55.9997991 L56.1248352,55.9997991 L56.1248352,52.0000223 C56.1248352,48.6907297 53.6019102,45.9995759 50.4999268,45.9995759 C47.3980898,45.9995759 44.8751648,48.6907297 44.8751648,52.0000223 L44.8751648,55.9997991 Z M57.0626373,58 L43.9373627,58 C43.4189494,58 43,57.5520213 43,57.0001339 L43,52.0000223 C43,47.5889864 46.3646325,44 50.4999268,44 C54.6353675,44 58,47.5889864 58,52.0000223 L58,57.0001339 C58,57.5520213 57.5810506,58 57.0626373,58 Z" id="Fill-37" fill="#1D1B4C"></path>
                <path d="M37.9425862,22 C37.6705272,22 37.4008238,21.8803337 37.214593,21.6480936 C36.8839412,21.2359767 36.9419452,20.6276857 37.3434087,20.2887569 L50.4590637,9.22090754 C50.8621467,8.88077157 51.453816,8.94037836 51.7856455,9.35174068 C52.1162972,9.76446112 52.0577044,10.3727522 51.6562408,10.7116809 L38.5411747,21.7795303 C38.3646603,21.9274155 38.1536968,22 37.9425862,22" id="Fill-39" fill="#1D1B4C"></path>
                <path d="M13.0517713,25 C12.7822169,25 12.5133196,24.8979167 12.3079917,24.6956975 C11.8973361,24.2893116 11.8973361,23.6331543 12.3079917,23.2269307 L21.3386383,14.3044568 C21.6510651,13.9951231 22.1272614,13.9126774 22.5262545,14.0978556 L36.3931107,20.4963229 C36.9198998,20.7391158 37.1469102,21.3572962 36.9005168,21.8777752 C36.6560946,22.3969558 36.0305839,22.6246552 35.5037948,22.3792657 L22.3036791,16.2881845 L13.7934154,24.6956975 C13.5894017,24.8979167 13.3205044,25 13.0517713,25" id="Fill-41" fill="#1D1B4C"></path>
                <path d="M35.9996875,22.0002604 C35.4479975,22.0002604 35.0000521,22.4488775 35.0000521,23 C35.0000521,23.5512787 35.4479975,24.0005209 35.9996875,24.0005209 C36.5520025,24.0005209 36.9999479,23.5512787 36.9999479,23 C36.9999479,22.4488775 36.5520025,22.0002604 35.9996875,22.0002604 M35.9996875,26 C34.3455549,26 33,24.6541487 33,23 C33,21.3458513 34.3455549,20 35.9996875,20 C37.6536639,20 39,21.3458513 39,23 C39,24.6541487 37.6536639,26 35.9996875,26" id="Fill-43" fill="#1D1B4C"></path>
                <path d="M53,8 C52.4482525,8 52.0002604,8.44918366 52.0002604,9.00039059 C52.0002604,9.55081634 52.4482525,10 53,10 C53.5523725,10 54.0003646,9.55081634 54.0003646,9.00039059 C54.0003646,8.44918366 53.5523725,8 53,8 M53,12 C51.3458513,12 50,10.6541676 50,9.00039059 C50,7.34645731 51.3458513,6 53,6 C54.6541487,6 56,7.34645731 56,9.00039059 C56,10.6541676 54.6541487,12 53,12" id="Fill-45" fill="#1D1B4C"></path>
                <path d="M10.9996094,24 C10.4479338,24 10,24.4491837 10,24.9996094 C10,25.5508163 10.4479338,26 10.9996094,26 C11.5520662,26 12,25.5508163 12,24.9996094 C12,24.4491837 11.5520662,24 10.9996094,24 M10.9996094,28 C9.34567612,28 8,26.6535427 8,24.9996094 C8,23.3456761 9.34567612,22 10.9996094,22 C12.6535427,22 14,23.3456761 14,24.9996094 C14,26.6535427 12.6535427,28 10.9996094,28" id="Fill-47" fill="#1D1B4C"></path>
                <path d="M7.4998047,5 C7.36981486,5 7.23951254,4.94471641 7.14491055,4.85412366 C7.05429263,4.75857662 7,4.62772044 7,4.49686425 C7,4.36600806 7.05429263,4.23515187 7.14491055,4.13960484 C7.33505195,3.95346505 7.66979142,3.95346505 7.85469885,4.13960484 C7.94476994,4.23515187 8,4.36600806 8,4.49686425 C8,4.62772044 7.94476994,4.75857662 7.85469885,4.85412366 C7.75978439,4.94471641 7.62979455,5 7.4998047,5" id="Fill-49" fill="#1D1B4C"></path>
                <path d="M11.5001953,5 C11.3702055,5 11.2395907,4.94471641 11.1453011,4.85412366 C11.0546832,4.75857662 11,4.62772044 11,4.49686425 C11,4.36600806 11.0546832,4.23515187 11.1453011,4.13960484 C11.3351301,3.95346505 11.670182,3.95346505 11.8550894,4.13960484 C11.9450824,4.23515187 12,4.36105377 12,4.49686425 C12,4.62772044 11.9450824,4.75857662 11.8550894,4.85412366 C11.760175,4.94471641 11.6350285,5 11.5001953,5" id="Fill-51" fill="#1D1B4C"></path>
                <path d="M15.4998047,5 C15.3698149,5 15.2395125,4.94471641 15.1449106,4.85412366 C15.0546051,4.75857662 15,4.62772044 15,4.49686425 C15,4.36600806 15.0546051,4.23515187 15.1449106,4.13960484 C15.3298961,3.95346505 15.6697914,3.95346505 15.8550113,4.13960484 C15.9450824,4.23515187 16,4.36600806 16,4.49686425 C16,4.62772044 15.9450824,4.75857662 15.8550113,4.85412366 C15.7598625,4.94471641 15.6297945,5 15.4998047,5" id="Fill-53" fill="#1D1B4C"></path>
                <path d="M19.5,5 C19.3644889,5 19.2392935,4.94471641 19.1449672,4.85412366 C19.0543138,4.75857662 19,4.62772044 19,4.49686425 C19,4.36600806 19.0543138,4.23515187 19.1449672,4.13960484 C19.3299469,3.95346505 19.6700531,3.95346505 19.8550328,4.13960484 C19.945061,4.23515187 20,4.36600806 20,4.49686425 C20,4.62772044 19.945061,4.75857662 19.8550328,4.85412366 C19.7600813,4.94471641 19.6349641,5 19.5,5" id="Fill-55" fill="#1D1B4C"></path>
                <path d="M23.5001953,5 C23.3702055,5 23.2395907,4.94471641 23.1449887,4.85412366 C23.0546051,4.75857662 23,4.63267473 23,4.49686425 C23,4.36600806 23.0546051,4.23515187 23.1449887,4.13960484 C23.3302086,3.95346505 23.6649481,3.95346505 23.8550894,4.13960484 C23.9450824,4.23515187 24,4.36600806 24,4.49686425 C24,4.62772044 23.9450824,4.75857662 23.8550894,4.85412366 C23.760175,4.94471641 23.6301851,5 23.5001953,5" id="Fill-57" fill="#1D1B4C"></path>
                <path d="M7.4998047,9 C7.36981486,9 7.23951254,8.94473705 7.14491055,8.85417813 C7.05429263,8.75866677 7,8.62785945 7,8.49705212 C7,8.36616618 7.05429263,8.23535886 7.14491055,8.13961167 C7.32981798,7.95346278 7.66979142,7.95346278 7.85469885,8.13961167 C7.94476994,8.23535886 8,8.36616618 8,8.49705212 C8,8.62785945 7.94476994,8.75866677 7.85469885,8.85417813 C7.75978439,8.94473705 7.63502851,9 7.4998047,9" id="Fill-59" fill="#1D1B4C"></path>
                <path d="M11.5001953,9 C11.3702055,9 11.2395907,8.94473705 11.1453011,8.85417813 C11.0546832,8.75866677 11,8.62785945 11,8.49705212 C11,8.36616618 11.0500742,8.23535886 11.1453011,8.13961167 C11.3351301,7.95346278 11.670182,7.95346278 11.8550894,8.13961167 C11.9450824,8.23535886 12,8.36616618 12,8.49705212 C12,8.63273328 11.9450824,8.75866677 11.8550894,8.85417813 C11.760175,8.94473705 11.6301851,9 11.5001953,9" id="Fill-61" fill="#1D1B4C"></path>
                <path d="M15.4998047,9 C15.3643465,9 15.2395125,8.94473705 15.1449106,8.85417813 C15.0546051,8.75866677 15,8.63273328 15,8.49705212 C15,8.36097791 15.0546051,8.23535886 15.1449106,8.13961167 C15.3298961,7.95346278 15.6697914,7.95346278 15.8550113,8.13961167 C15.9450824,8.23535886 16,8.36097791 16,8.49705212 C16,8.62785945 15.9450824,8.75866677 15.8550113,8.85417813 C15.7598625,8.94473705 15.6350285,9 15.4998047,9" id="Fill-63" fill="#1D1B4C"></path>
                <path d="M19.5,9 C19.3699594,9 19.2392935,8.94473705 19.1449672,8.85417813 C19.0543138,8.75866677 19,8.62785945 19,8.49705212 C19,8.36616618 19.0543138,8.23535886 19.1449672,8.13961167 C19.3299469,7.95346278 19.6700531,7.95346278 19.8550328,8.13961167 C19.945061,8.23535886 20,8.36616618 20,8.49705212 C20,8.62785945 19.945061,8.75866677 19.8550328,8.85417813 C19.7600813,8.94473705 19.6300406,9 19.5,9" id="Fill-65" fill="#1D1B4C"></path>
                <path d="M23.5001953,9 C23.3702055,9 23.2395907,8.94473705 23.1449887,8.85417813 C23.0546051,8.75866677 23,8.63273328 23,8.49705212 C23,8.36616618 23.0546051,8.23535886 23.1449887,8.13961167 C23.3302086,7.95346278 23.6649481,7.95346278 23.8550894,8.13961167 C23.9450824,8.23535886 24,8.36616618 24,8.49705212 C24,8.62785945 23.9450824,8.75866677 23.8550894,8.85417813 C23.760175,8.94473705 23.6301851,9 23.5001953,9" id="Fill-67" fill="#1D1B4C"></path>
                <path d="M7.4998047,13 C7.36981486,13 7.23951254,12.9444237 7.14491055,12.853788 C7.05429263,12.7582785 7,12.6274737 7,12.496669 C7,12.3658642 7.04999609,12.2350594 7.14491055,12.13955 C7.33505195,11.9534833 7.66979142,11.9534833 7.85469885,12.13955 C7.94476994,12.2350594 8,12.3658642 8,12.496669 C8,12.6274737 7.94476994,12.7582785 7.85469885,12.853788 C7.75978439,12.9444237 7.62979455,13 7.4998047,13" id="Fill-69" fill="#1D1B4C"></path>
                <path d="M11.5001953,13 C11.3702055,13 11.2395907,12.9444237 11.1453011,12.853788 C11.0546832,12.7582785 11,12.6274737 11,12.496669 C11,12.3658642 11.0546832,12.2350594 11.1453011,12.13955 C11.3351301,11.9534833 11.670182,11.9534833 11.8550894,12.13955 C11.9450824,12.2350594 12,12.3609905 12,12.496669 C12,12.6274737 11.9450824,12.7582785 11.8550894,12.853788 C11.760175,12.9444237 11.6350285,13 11.5001953,13" id="Fill-71" fill="#1D1B4C"></path>
                <path d="M15.4998047,13 C15.3643465,13 15.2395125,12.9444237 15.1449106,12.853788 C15.0546051,12.7582785 15,12.6327405 15,12.496669 C15,12.3609905 15.0546051,12.2350594 15.1449106,12.13955 C15.3243497,11.9534833 15.6697914,11.9534833 15.8550113,12.13955 C15.9450824,12.2350594 16,12.3658642 16,12.496669 C16,12.6327405 15.9450824,12.7582785 15.8550113,12.853788 C15.7598625,12.9444237 15.6297945,13 15.4998047,13" id="Fill-73" fill="#1D1B4C"></path>
                <path d="M7.4998047,18 C7.36981486,18 7.23951254,17.9447327 7.14491055,17.8541667 C7.05429263,17.7586478 7,17.6278302 7,17.4970126 C7,17.3661164 7.05429263,17.2353774 7.14491055,17.1398585 C7.33505195,16.9533805 7.66979142,16.9533805 7.85469885,17.1398585 C7.94476994,17.2353774 8,17.3661164 8,17.4970126 C8,17.6278302 7.94476994,17.7586478 7.85469885,17.8541667 C7.75978439,17.9447327 7.63502851,18 7.4998047,18" id="Fill-75" fill="#1D1B4C"></path>
                <path d="M11.5001953,18 C11.3702055,18 11.2395907,17.9447327 11.1453011,17.8541667 C11.0546832,17.7586478 11,17.6278302 11,17.4970126 C11,17.3661164 11.0546832,17.2353774 11.1453011,17.1398585 C11.3351301,16.9533805 11.670182,16.9533805 11.8550894,17.1398585 C11.9450824,17.2353774 12,17.3661164 12,17.4970126 C12,17.6327044 11.9450824,17.7586478 11.8550894,17.8541667 C11.760175,17.9447327 11.6301851,18 11.5001953,18" id="Fill-77" fill="#1D1B4C"></path>
            </g>
        </g>
    </g>
</svg>