<?xml version="1.0" encoding="UTF-8" standalone="no"?>
<svg width="62px" height="60px" viewBox="0 0 62 60" version="1.1" xmlns="http://www.w3.org/2000/svg" xmlns:xlink="http://www.w3.org/1999/xlink">
    <!-- Generator: Sketch 48.1 (47250) - http://www.bohemiancoding.com/sketch -->
    <title>x_4</title>
    <desc>Created with Sketch.</desc>
    <defs>
        <polygon id="path-1" points="0.00907317073 0.118460265 61.9398146 0.118460265 61.9398146 44.9398013 0.00907317073 44.9398013"></polygon>
    </defs>
    <g id="Page-1" stroke="none" stroke-width="1" fill="none" fill-rule="evenodd">
        <g id="x_4">
            <g id="016-certificate">
                <path d="M41.0315575,8 L11.9691994,8 C11.434119,8 11,7.55206624 11,7.00039059 C11,6.44808999 11.434119,6 11.9691994,6 L41.0315575,6 C41.5660324,6 42,6.44808999 42,7.00039059 C42,7.55206624 41.5660324,8 41.0315575,8 Z" id="Fill-1" fill="#E4E3FF"></path>
                <path d="M41.0315575,14 L11.9691994,14 C11.434119,14 11,13.55191 11,12.9996094 C11,12.4479338 11.434119,12 11.9691994,12 L41.0315575,12 C41.5660324,12 42,12.4479338 42,12.9996094 C42,13.55191 41.5660324,14 41.0315575,14 Z" id="Fill-2" fill="#E4E3FF"></path>
                <path d="M50.0479202,19 L11.9528238,19 C11.4267841,19 11,18.5520662 11,18.0003906 C11,17.4479338 11.4267841,17 11.9528238,17 L50.0479202,17 C50.5733647,17 51,17.4479338 51,18.0003906 C51,18.5520662 50.5733647,19 50.0479202,19 Z" id="Fill-3" fill="#E4E3FF"></path>
                <path d="M50.0479202,25 L11.9528238,25 C11.4267841,25 11,24.5518912 11,24 C11,23.4481088 11.4267841,23 11.9528238,23 L50.0479202,23 C50.5733647,23 51,23.4481088 51,24 C51,24.5518912 50.5733647,25 50.0479202,25 Z" id="Fill-4" fill="#E4E3FF"></path>
                <path d="M19.0003472,30 L12.000434,30 C11.4481094,30 11,29.5520662 11,28.9996094 C11,28.4479338 11.4481094,28 12.000434,28 L19.0003472,28 C19.5520468,28 20,28.4479338 20,28.9996094 C20,29.5520662 19.5520468,30 19.0003472,30 Z" id="Fill-5" fill="#E4E3FF"></path>
                <path d="M27.0003906,30 C26.7404109,30 26.4804312,29.8894741 26.2906023,29.708199 C26.1104601,29.5167047 26,29.25509 26,28.9933181 C26,28.7219558 26.1104601,28.4700888 26.2906023,28.2792233 C26.6604172,27.9069256 27.3298961,27.9069256 27.7101789,28.2792233 C27.8901648,28.4700888 28,28.7317035 28,28.9933181 C28,29.25509 27.8901648,29.5167047 27.7101789,29.708199 C27.52035,29.8894741 27.2603703,30 27.0003906,30 Z" id="Fill-6" fill="#E4E3FF"></path>
                <path d="M29.9996094,30 C29.7396297,30 29.47965,29.8894741 29.2898211,29.708199 C29.1098352,29.5167047 29,29.25509 29,28.9933181 C29,28.7219558 29.1098352,28.4700888 29.2898211,28.2792233 C29.6597922,27.9069256 30.3395828,27.9069256 30.7100227,28.2792233 C30.8901648,28.4700888 31,28.7219558 31,28.9933181 C31,29.25509 30.8901648,29.5167047 30.7100227,29.708199 C30.519725,29.8894741 30.2595891,30 29.9996094,30 Z" id="Fill-7" fill="#E4E3FF"></path>
                <path d="M22.9996094,30 C22.7396297,30 22.47965,29.8894741 22.2898211,29.708199 C22.1098352,29.5167047 22,29.25509 22,28.9933181 C22,28.7317035 22.1098352,28.4700888 22.2898211,28.2792233 C22.659636,27.9069256 23.3395828,27.9069256 23.7093977,28.2792233 C23.8895399,28.4700888 24,28.7317035 24,28.9933181 C24,29.25509 23.8895399,29.5167047 23.7093977,29.708199 C23.5195688,29.8894741 23.2595891,30 22.9996094,30 Z" id="Fill-8" fill="#E4E3FF"></path>
                <g id="Group-12">
                    <mask id="mask-2" fill="white">
                        <use xlink:href="#path-1"></use>
                    </mask>
                    <g id="Clip-10"></g>
                    <path d="M47.4227415,37.3108113 C47.4227415,41.5242715 43.9558829,44.9398013 39.6796976,44.9398013 C35.4036634,44.9398013 31.9374098,41.5242715 31.9374098,37.3108113 C31.9374098,33.097202 35.4036634,29.6810762 39.6796976,29.6810762 C43.9558829,29.6810762 47.4227415,33.097202 47.4227415,37.3108113 Z" id="Fill-9" fill="#5B53FF" mask="url(#mask-2)"></path>
                    <path d="M60.9715561,39.2175 L49.7648293,39.2175 C49.2302683,39.2175 48.796722,38.790298 48.796722,38.2641556 C48.796722,37.7380132 49.2302683,37.3108113 49.7648293,37.3108113 L60.0040537,37.3108113 L60.0040537,11.003543 L50.893078,2.02589404 L1.93576098,2.02589404 L1.93576098,37.3108113 L35.4024537,37.3108113 C35.936561,37.3108113 36.3701073,37.7380132 36.3701073,38.2641556 C36.3701073,38.790298 35.936561,39.2175 35.4024537,39.2175 L0.967502439,39.2175 C0.433546341,39.2175 0,38.790298 0,38.2641556 L0,1.07180464 C0,0.545662252 0.433546341,0.118460265 0.967502439,0.118460265 L51.2935073,0.118460265 C51.5499756,0.118460265 51.7967659,0.218592715 51.9782293,0.397847682 L61.656278,9.93427152 C61.8381951,10.1123344 61.9398146,10.3556623 61.9398146,10.6082285 L61.9398146,38.2641556 C61.9398146,38.790298 61.5061171,39.2175 60.9715561,39.2175 Z" id="Fill-11" fill="#1D1B4C" mask="url(#mask-2)"></path>
                </g>
                <path d="M60.9995443,12 L50.9996745,12 C50.4479629,12 50,11.5520371 50,10.9995443 L50,0.999674483 C50,0.447962917 50.4479629,0 50.9996745,0 C51.552011,0 52.0001302,0.447962917 52.0001302,0.999674483 L52.0001302,9.99986979 L60.9995443,9.99986979 C61.5518808,9.99986979 62,10.4478327 62,10.9995443 C62,11.5520371 61.5518808,12 60.9995443,12 Z" id="Fill-13" fill="#1D1B4C"></path>
                <path d="M42.5003689,44 C37.8138178,44 34,40.18692 34,35.5003689 C34,30.8138178 37.8138178,27 42.5003689,27 C47.1861822,27 51,30.8138178 51,35.5003689 C51,40.18692 47.1861822,44 42.5003689,44 Z M42.5003689,28.8890529 C38.854339,28.8890529 35.8890529,31.8549293 35.8890529,35.5003689 C35.8890529,39.1458086 38.854339,42.111685 42.5003689,42.111685 C46.1458086,42.111685 49.1109471,39.1458086 49.1109471,35.5003689 C49.1109471,31.8549293 46.1458086,28.8890529 42.5003689,28.8890529 Z" id="Fill-14" fill="#1D1B4C"></path>
                <path d="M42.5,39 C40.0186719,39 38,36.9811875 38,34.5 C38,32.0186719 40.0186719,30 42.5,30 C44.9811875,30 47,32.0186719 47,34.5 C47,36.9811875 44.9811875,39 42.5,39 Z M42.5,31.8001406 C41.0113438,31.8001406 39.7994375,33.0113437 39.7994375,34.5 C39.7994375,35.9886562 41.0113438,37.1998594 42.5,37.1998594 C43.9886563,37.1998594 45.1998594,35.9886562 45.1998594,34.5 C45.1998594,33.0113437 43.9886563,31.8001406 42.5,31.8001406 Z" id="Fill-15" fill="#1D1B4C"></path>
                <path d="M48.3132844,59.9992383 C47.944245,59.9992383 47.6042686,59.7908604 47.4410921,59.4591599 L42.5009901,49.3440146 L37.5607368,59.4591599 C37.3857534,59.8165713 37.0018798,60.0307789 36.6057453,59.9963981 C36.2049183,59.9618678 35.8672124,59.6874189 35.757318,59.305642 L34.1583997,53.781835 L28.449491,57.0031713 C28.076516,57.2145388 27.6075726,57.1562408 27.2977188,56.8625088 C26.987865,56.5687767 26.9109692,56.1074754 27.1091122,55.7313788 L35.6342544,39.5155756 C35.8802302,39.0472486 36.4645173,38.8645816 36.9410292,39.1074898 C37.415876,39.3514444 37.6008497,39.9284448 37.3544199,40.3978181 L30.3458508,53.7310112 L34.2707161,51.5167349 C34.52865,51.3702425 34.8407744,51.3497635 35.1168728,51.4606791 C35.3931225,51.5721927 35.6012558,51.8016475 35.6828441,52.0837199 L36.9202915,56.363837 L41.6275869,46.7250906 C41.9516694,46.0642308 43.0501594,46.0642308 43.3736365,46.7250906 L48.0809318,56.363837 L49.3195902,52.0825241 C49.4013299,51.8006011 49.6105228,51.5699504 49.8855616,51.4600812 C50.1598435,51.3491656 50.4727247,51.3690467 50.7311128,51.515539 L54.5703028,53.6824295 L47.4512338,40.6495457 C47.1975382,40.1848063 47.3725216,39.6049658 47.8432814,39.354434 C48.3144953,39.1033043 48.9022639,39.275657 49.1552027,39.7415923 L57.8839372,55.7180749 C58.0890432,56.094022 58.0174453,56.558313 57.7075915,56.856679 C57.3984945,57.154447 56.9254642,57.2145388 56.5505214,57.0019754 L50.8416127,53.7812371 L49.2434512,59.305044 C49.1328,59.6863725 48.795851,59.9612698 48.3948726,59.9958002 C48.3682316,59.9986403 48.3405309,59.9992383 48.3132844,59.9992383 Z" id="Fill-16" fill="#1D1B4C"></path>
                <path d="M41.0315575,9 L11.9691994,9 C11.434119,9 11,8.55191001 11,7.99960941 C11,7.44793376 11.434119,7 11.9691994,7 L41.0315575,7 C41.5660324,7 42,7.44793376 42,7.99960941 C42,8.55191001 41.5660324,9 41.0315575,9 Z" id="Fill-17" fill="#1D1B4C"></path>
                <path d="M41.0315575,14 L11.9691994,14 C11.434119,14 11,13.5520662 11,13.0003906 C11,12.4479338 11.434119,12 11.9691994,12 L41.0315575,12 C41.5660324,12 42,12.4479338 42,13.0003906 C42,13.5520662 41.5660324,14 41.0315575,14 Z" id="Fill-18" fill="#1D1B4C"></path>
                <path d="M50.0479202,20 L11.9528238,20 C11.4267841,20 11,19.5518912 11,19 C11,18.4481088 11.4267841,18 11.9528238,18 L50.0479202,18 C50.5733647,18 51,18.4481088 51,19 C51,19.5518912 50.5733647,20 50.0479202,20 Z" id="Fill-19" fill="#1D1B4C"></path>
                <path d="M50.0479202,26 L11.9528238,26 C11.4267841,26 11,25.5520662 11,24.9996094 C11,24.4479338 11.4267841,24 11.9528238,24 L50.0479202,24 C50.5733647,24 51,24.4479338 51,24.9996094 C51,25.5520662 50.5733647,26 50.0479202,26 Z" id="Fill-20" fill="#1D1B4C"></path>
                <path d="M19.0003472,32 L12.000434,32 C11.4481094,32 11,31.5520662 11,31.0003906 C11,30.44809 11.4481094,30 12.000434,30 L19.0003472,30 C19.5520468,30 20,30.44809 20,31.0003906 C20,31.5520662 19.5520468,32 19.0003472,32 Z" id="Fill-21" fill="#1D1B4C"></path>
                <path d="M27.0003906,32 C26.7404109,32 26.4804312,31.8894589 26.2906023,31.7083161 C26.1104601,31.5172671 26,31.2653655 26,30.9939658 C26,30.7323152 26.1104601,30.4706645 26.2906023,30.2796155 C26.6604172,29.9067948 27.3298961,29.9067948 27.7101789,30.2796155 C27.8901648,30.4706645 28,30.7323152 28,30.9939658 C28,31.2556165 27.8901648,31.5172671 27.7101789,31.7083161 C27.52035,31.8894589 27.2603703,32 27.0003906,32 Z" id="Fill-22" fill="#1D1B4C"></path>
                <path d="M29.9996094,32 C29.7396297,32 29.47965,31.8894589 29.2898211,31.7083161 C29.1098352,31.5172671 29,31.2556165 29,30.9939658 C29,30.72178 29.1098352,30.4706645 29.2898211,30.2796155 C29.6597922,29.9067948 30.3395828,29.9067948 30.7100227,30.2796155 C30.8901648,30.4706645 31,30.72178 31,30.9939658 C31,31.2556165 30.8901648,31.5172671 30.7100227,31.7083161 C30.519725,31.8894589 30.2595891,32 29.9996094,32 Z" id="Fill-23" fill="#1D1B4C"></path>
                <path d="M43.0003906,37 C42.7404109,37 42.480275,36.8894589 42.2899773,36.7083161 C42.1098352,36.5172671 42,36.2556165 42,35.9939658 C42,35.7323152 42.1098352,35.4706645 42.2899773,35.2796155 C42.6604172,34.9067948 43.3298961,34.9067948 43.7101789,35.2796155 C43.8901648,35.4706645 44,35.7323152 44,35.9939658 C44,36.2556165 43.8901648,36.5172671 43.7101789,36.7083161 C43.52035,36.8894589 43.2603703,37 43.0003906,37 Z" id="Fill-24" fill="#1D1B4C"></path>
                <path d="M22.9996094,32 C22.7396297,32 22.47965,31.8894589 22.2898211,31.7083161 C22.1098352,31.5172671 22,31.2653655 22,30.9939658 C22,30.72178 22.1098352,30.4706645 22.2898211,30.2796155 C22.659636,29.9067948 23.3395828,29.9067948 23.7093977,30.2796155 C23.8895399,30.4706645 24,30.7323152 24,30.9939658 C24,31.2556165 23.8895399,31.5172671 23.7093977,31.7083161 C23.5195688,31.8894589 23.2595891,32 22.9996094,32 Z" id="Fill-25" fill="#1D1B4C"></path>
            </g>
        </g>
    </g>
</svg>