<?xml version="1.0" encoding="UTF-8" standalone="no"?>
<svg width="59px" height="65px" viewBox="0 0 59 65" version="1.1" xmlns="http://www.w3.org/2000/svg" xmlns:xlink="http://www.w3.org/1999/xlink">
    <!-- Generator: Sketch 48.1 (47250) - http://www.bohemiancoding.com/sketch -->
    <title>x_1</title>
    <desc>Created with Sketch.</desc>
    <defs>
        <polygon id="path-1" points="0 0 61.8432084 0 61.8432084 64.936746 0 64.936746"></polygon>
    </defs>
    <g id="Page-1" stroke="none" stroke-width="1" fill="none" fill-rule="evenodd">
        <g id="x_1" transform="translate(-3.000000, 0.000000)">
            <g id="051-atom">
                <path d="M44.8723487,33.8416662 C51.1036512,24.3565349 53.7501931,15.1711862 50.7838594,13.3253675 C47.8170375,11.4797096 40.3599477,17.6733426 34.127506,27.1584739 C27.8962036,36.6434444 25.2490107,45.8289538 28.2171346,47.6746118 C31.1834683,49.5204305 38.6397443,43.3259934 44.8723487,33.8416662 Z" id="Fill-1" fill="#D6D4FF"></path>
                <path d="M37.5000802,34 C28.0466766,34 18,31.547305 18,27 C18,22.4534762 28.0466766,20 37.5000802,20 C46.9534838,20 57,22.4534762 57,27 C57,31.547305 46.9534838,34 37.5000802,34 Z M37.5000802,21.999933 C26.691128,21.999933 20.0525641,24.9122643 20.0525641,27 C20.0525641,29.0877357 26.691128,32.000067 37.5000802,32.000067 C48.308872,32.000067 54.9474359,29.0877357 54.9474359,27 C54.9474359,24.9122643 48.3101547,21.999933 37.5000802,21.999933 Z" id="Fill-2" fill="#1D1B4C"></path>
                <path d="M27.4979381,47 C26.8358741,47 26.2298072,46.8425575 25.6933713,46.5077715 C24.912983,46.0232466 24.3948883,45.2238367 24.1527212,44.1318501 C23.2885808,40.253083 26.1493012,32.4058339 31.2716545,24.6056089 C37.1401485,15.6676571 45.2277501,7.948962 49.3064476,10.4911529 C50.0868359,10.9758383 50.6049307,11.7750878 50.8470977,12.8672348 C51.7118874,16.7460019 48.8505178,24.5930905 43.7289761,32.3933155 C38.6319432,40.1564669 31.8670089,47 27.4979381,47 Z M47.4824036,12.0528992 C44.9633465,12.0528992 38.9654911,16.6619042 33.0138941,25.7253605 C27.4554128,34.1900218 25.5761833,40.9720865 26.181601,43.690979 C26.3002499,44.2252564 26.5081695,44.5881284 26.7998412,44.7699657 C28.6816677,45.9367415 35.359766,41.3676989 41.9865741,31.2748478 C47.5450554,22.8101865 49.424285,16.0281218 48.818218,13.3092294 C48.7002184,12.7751125 48.4922988,12.4120799 48.1999778,12.2302427 C48.0092631,12.1111577 47.7682322,12.0528992 47.4824036,12.0528992 Z" id="Fill-3" fill="#1D1B4C"></path>
                <path d="M47.5023025,47 C43.1332997,47 36.3696068,40.157984 31.2715171,32.3938133 C26.1498928,24.5938541 23.2885676,16.7483167 24.1526946,12.8683979 C24.3950203,11.7762881 24.9135939,10.9781893 25.6934831,10.492397 C29.781531,7.9459596 37.8602421,15.6693668 43.7286449,24.606372 C48.8501069,32.4063312 51.7114321,40.252029 50.8473051,44.1319478 C50.6051418,45.2238972 50.0865682,46.021996 49.3066789,46.5077883 C48.7702515,46.8425629 48.1628955,47 47.5023025,47 Z M27.5187972,12.05409 C27.23346,12.05409 26.9924329,12.1136305 26.8010719,12.2314275 C26.5100539,12.4132586 26.3026245,12.7762788 26.1828413,13.3103774 C25.577433,16.0291773 27.4579318,22.8122947 33.0143789,31.2753837 C39.6417332,41.3678909 46.3236229,45.9367777 48.2008755,44.7700417 C48.4918935,44.5882106 48.6999722,44.2258324 48.8191061,43.6910917 C49.4246767,40.9722919 47.5446649,34.1898164 41.9875686,25.7260855 C36.0360642,16.662938 30.038302,12.05409 27.5187972,12.05409 Z" id="Fill-4" fill="#1D1B4C"></path>
                <g id="Group-8">
                    <mask id="mask-2" fill="white">
                        <use xlink:href="#path-1"></use>
                    </mask>
                    <g id="Clip-6"></g>
                    <path d="M37.0151325,30.5119512 C35.310374,30.5119512 33.9227013,29.1458415 33.9227013,27.4675732 C33.9227013,25.7893049 35.310374,24.4231951 37.0151325,24.4231951 C38.7198909,24.4231951 40.1075636,25.7893049 40.1075636,27.4675732 C40.1075636,29.1458415 38.7210182,30.5119512 37.0151325,30.5119512 Z M37.0151325,26.4532561 C36.4463429,26.4532561 35.984,26.9084146 35.984,27.4675732 C35.984,28.0267317 36.4458597,28.4825244 37.0151325,28.4825244 C37.5844052,28.4825244 38.0461039,28.0267317 38.0461039,27.4675732 C38.0461039,26.9084146 37.583761,26.4532561 37.0151325,26.4532561 Z" id="Fill-5" fill="#1D1B4C" mask="url(#mask-2)"></path>
                    <path d="M49.3748727,64.9998415 L22.5857195,64.9998415 C22.0158026,64.9998415 21.5547481,64.5453171 21.5547481,63.9855244 L21.5547481,56.8910122 C21.5547481,55.414561 20.9105922,53.8379146 19.1026078,53.8379146 L17.0694909,53.8379146 C13.3480416,53.8379146 9.18550649,50.801622 9.18550649,46.7397561 L9.18550649,37.6015488 L6.06666494,37.6015488 C5.01620779,37.6015488 4.05238961,37.0769512 3.48633766,36.1994512 C2.91126753,35.3076829 2.84218182,34.2041098 3.30001558,33.2486098 L11.3690338,16.3836463 C12.5333455,13.9480488 13.8116727,11.9154512 15.2755169,10.1679024 C18.6698961,6.12030488 23.0556312,3.1087439 27.9566909,1.45584146 C36.0935065,-1.28509756 45.2852883,0.0692804878 52.5415429,5.08046341 C59.2447896,9.71084146 63.7770701,17.2376829 64.665361,25.2146098 C65.6013195,33.6257683 62.8127688,41.9427561 57.0147221,48.0346829 C52.8145039,52.4494512 50.4058442,58.2633049 50.4058442,63.9861585 C50.4058442,64.5465854 49.9441455,64.9998415 49.3748727,64.9998415 Z M23.6155636,62.9704146 L48.3670909,62.9704146 C48.6324831,57.0717439 51.2034701,51.1730732 55.5112623,46.6462195 C60.8967273,40.9870976 63.4859117,33.2566951 62.6158182,25.4351341 C61.7917818,18.0297317 57.5827065,11.041122 51.3582286,6.74145122 C44.6392,2.10235366 36.1419792,0.842780488 28.6259688,3.37682927 C24.084187,4.90639024 20.0179532,7.7025 16.8669039,11.4609268 C15.5132104,13.0754634 14.3249039,14.9691829 13.234187,17.2494146 L5.16581299,34.114378 C4.94196883,34.5806341 5.1356987,34.9677805 5.22877922,35.1126829 C5.31815584,35.2520366 5.57791169,35.5733902 6.06730909,35.5733902 L10.2164779,35.5733902 C10.7865558,35.5733902 11.2469662,36.0279146 11.2469662,36.5883415 L11.2469662,46.7408659 C11.2469662,49.5951585 14.3777247,51.809122 17.0694909,51.809122 L19.1026078,51.809122 C21.7597506,51.809122 23.6162078,53.8999024 23.6162078,56.8922805 L23.6162078,62.9704146 L23.6155636,62.9704146 Z" id="Fill-7" fill="#1D1B4C" mask="url(#mask-2)"></path>
                </g>
            </g>
        </g>
    </g>
</svg>