<?xml version="1.0" encoding="UTF-8" standalone="no"?>
<svg width="56px" height="57px" viewBox="0 0 56 57" version="1.1" xmlns="http://www.w3.org/2000/svg" xmlns:xlink="http://www.w3.org/1999/xlink">
    <!-- Generator: Sketch 48.1 (47250) - http://www.bohemiancoding.com/sketch -->
    <title>x_3</title>
    <desc>Created with Sketch.</desc>
    <defs>
        <polygon id="path-1" points="0 0.0599513382 55.9456117 0.0599513382 55.9456117 8.78014599 0 8.78014599"></polygon>
        <polygon id="path-3" points="0 0.0865887922 5.24513756 0.0865887922 5.24513756 5.29001222 0 5.29001222"></polygon>
        <polygon id="path-5" points="0 55.9836496 55.9890732 55.9836496 55.9890732 0 0 0"></polygon>
    </defs>
    <g id="Page-1" stroke="none" stroke-width="1" fill="none" fill-rule="evenodd">
        <g id="x_3" transform="translate(-2.000000, 0.000000)">
            <g id="Page-1">
                <g id="Group-20" transform="translate(2.000000, 0.000000)">
                    <path d="M7.8676039,15.7561655 L27.9728332,15.7561655 C29.9036039,15.7561655 31.4695551,17.3183066 31.4695551,19.2445158 L31.4695551,54.1252944 L7.8676039,54.1252944 L7.8676039,15.7561655 Z" id="Fill-1" fill="#D6D4FF"></path>
                    <g id="Group-5">
                        <mask id="mask-2" fill="white">
                            <use xlink:href="#path-1"></use>
                        </mask>
                        <g id="Clip-4"></g>
                        <path d="M8.07394341,7.0359708 L53.3233093,7.0359708 C53.8055922,7.0359708 54.1971824,6.64533333 54.1971824,6.16422384 L54.1971824,2.67587348 C54.1971824,2.19476399 53.8055922,1.80412652 53.3233093,1.80412652 L8.07394341,1.80412652 L2.8287922,4.42004866 L8.07394341,7.0359708 Z M53.3233093,8.78014599 L7.86756293,8.78014599 C7.73193366,8.78014599 7.59753366,8.74867153 7.47692878,8.68858394 L0.483348293,5.20036983 C0.18723122,5.05239903 -2.73170732e-05,4.75059854 -2.73170732e-05,4.42004866 C-2.73170732e-05,4.08949878 0.18723122,3.7876983 0.483348293,3.63972749 L7.47692878,0.151513382 C7.59753366,0.0912895377 7.73193366,0.0599513382 7.86756293,0.0599513382 L53.3233093,0.0599513382 C54.7690654,0.0599513382 55.9456117,1.23349878 55.9456117,2.67587348 L55.9456117,6.16422384 C55.9456117,7.60659854 54.7690654,8.78014599 53.3233093,8.78014599 Z" id="Fill-3" fill="#1D1B4C" mask="url(#mask-2)"></path>
                    </g>
                    <path d="M50.7009112,8.78011873 C50.2175356,8.78011873 49.8264917,8.39057129 49.8264917,7.90837178 L49.8264917,0.931671046 C49.8264917,0.449471533 50.2175356,0.0599240876 50.7009112,0.0599240876 C51.1842868,0.0599240876 51.5747844,0.449471533 51.5747844,0.931671046 L51.5747844,7.90837178 C51.5747844,8.39057129 51.1842868,8.78011873 50.7009112,8.78011873" id="Fill-6" fill="#1D1B4C"></path>
                    <path d="M45.455719,8.78011873 C44.9723434,8.78011873 44.5818459,8.39057129 44.5818459,7.90837178 L44.5818459,0.931671046 C44.5818459,0.449471533 44.9723434,0.0599240876 45.455719,0.0599240876 C45.9390946,0.0599240876 46.3301385,0.449471533 46.3301385,0.931671046 L46.3301385,7.90837178 C46.3301385,8.39057129 45.9390946,8.78011873 45.455719,8.78011873" id="Fill-8" fill="#1D1B4C"></path>
                    <path d="M7.8676039,8.78011873 C7.38409171,8.78011873 6.99359415,8.39057129 6.99359415,7.90837178 L6.99359415,0.931671046 C6.99359415,0.449471533 7.38409171,0.0599240876 7.8676039,0.0599240876 C8.35097951,0.0599240876 8.74147707,0.449471533 8.74147707,0.931671046 L8.74147707,7.90837178 C8.74147707,8.39057129 8.35097951,8.78011873 7.8676039,8.78011873" id="Fill-10" fill="#1D1B4C"></path>
                    <path d="M28.8472527,5.29175474 L20.1057893,5.29175474 C19.6224137,5.29175474 19.2313698,4.9022073 19.2313698,4.42000779 C19.2313698,3.93780827 19.6224137,3.54826083 20.1057893,3.54826083 L28.8472527,3.54826083 C29.3306283,3.54826083 29.7211259,3.93780827 29.7211259,4.42000779 C29.7211259,4.9022073 29.3306283,5.29175474 28.8472527,5.29175474" id="Fill-12" fill="#1D1B4C"></path>
                    <path d="M32.3435239,5.29175474 C32.1162459,5.29175474 31.8884215,5.19596886 31.7230166,5.03900535 C31.5645776,4.87345791 31.4696507,4.64673285 31.4696507,4.42000779 C31.4696507,4.19328273 31.5645776,3.96546764 31.7230166,3.80101022 C32.0463141,3.47849927 32.6407337,3.47849927 32.9640312,3.80101022 C33.1213776,3.96546764 33.2179434,4.19328273 33.2179434,4.42000779 C33.2179434,4.64673285 33.1213776,4.87345791 32.9640312,5.03900535 C32.79808,5.19596886 32.5798166,5.29175474 32.3435239,5.29175474" id="Fill-14" fill="#1D1B4C"></path>
                    <path d="M35.8403141,5.29175474 C35.6130361,5.29175474 35.3846654,5.19596886 35.2198068,5.03900535 C35.0613678,4.87345791 34.9658946,4.64673285 34.9658946,4.42000779 C34.9658946,4.19328273 35.0613678,3.96546764 35.2198068,3.80101022 C35.5431044,3.47849927 36.1375239,3.47849927 36.4608215,3.80101022 C36.6181678,3.96546764 36.7141873,4.19328273 36.7141873,4.42000779 C36.7141873,4.64673285 36.6181678,4.87345791 36.4608215,5.03900535 C36.2948702,5.19596886 36.0675922,5.29175474 35.8403141,5.29175474" id="Fill-16" fill="#1D1B4C"></path>
                    <path d="M55.0716429,55.8694423 L0.874433171,55.8694423 C0.391057561,55.8694423 1.36585366e-05,55.4792136 1.36585366e-05,54.9971504 L1.36585366e-05,16.6285664 C1.36585366e-05,16.1462307 0.391057561,15.7561382 0.874433171,15.7561382 L4.37074537,15.7561382 C4.85412098,15.7561382 5.24516488,16.1462307 5.24516488,16.6285664 C5.24516488,17.1107659 4.85412098,17.5003134 4.37074537,17.5003134 L1.74844293,17.5003134 L1.74844293,54.1252672 L54.1972234,54.1252672 L54.1972234,17.5003134 L51.5747844,17.5003134 C51.0914088,17.5003134 50.7009112,17.1107659 50.7009112,16.6285664 C50.7009112,16.1462307 51.0914088,15.7561382 51.5747844,15.7561382 L55.0716429,15.7561382 C55.5550185,15.7561382 55.9455161,16.1462307 55.9455161,16.6285664 L55.9455161,54.9971504 C55.9455161,55.4792136 55.5550185,55.8694423 55.0716429,55.8694423" id="Fill-18" fill="#1D1B4C"></path>
                </g>
                <g id="Group-28" transform="translate(2.000000, 13.000000)">
                    <path d="M51.5748527,39.8955167 L4.37067707,39.8955167 C3.88730146,39.8955167 3.4968039,39.5081333 3.4968039,39.0286126 L3.4968039,0.872635629 C3.4968039,0.393114878 3.88730146,0.00573148566 4.37067707,0.00573148566 C4.85418927,0.00573148566 5.24509659,0.393114878 5.24509659,0.872635629 L5.24509659,38.1610309 L50.7009795,38.1610309 L50.7009795,0.872635629 C50.7009795,0.393114878 51.0914771,0.00573148566 51.5748527,0.00573148566 C52.0582283,0.00573148566 52.4487259,0.393114878 52.4487259,0.872635629 L52.4487259,39.0286126 C52.4487259,39.5081333 52.0582283,39.8955167 51.5748527,39.8955167" id="Fill-21" fill="#1D1B4C"></path>
                    <g id="Group-25" transform="translate(0.000000, 38.074408)">
                        <mask id="mask-4" fill="white">
                            <use xlink:href="#path-3"></use>
                        </mask>
                        <g id="Clip-24"></g>
                        <path d="M0.874405854,5.29001222 C0.650405854,5.29001222 0.42681561,5.20478516 0.256083902,5.035957 C-0.0853795122,4.69667473 -0.0853795122,4.14832195 0.256083902,3.80958167 L3.75294244,0.34074563 C4.09481561,0.00186984639 4.64703024,0.00186984639 4.98904,0.34074563 C5.33050341,0.680027901 5.33050341,1.22783869 4.98904,1.56698547 L1.49231805,5.035957 C1.32213268,5.20478516 1.0979961,5.29001222 0.874405854,5.29001222" id="Fill-23" fill="#1D1B4C" mask="url(#mask-4)"></path>
                    </g>
                    <path d="M55.0716429,43.3644205 C54.8473698,43.3644205 54.6240527,43.2791934 54.453321,43.1103653 L50.9570088,39.6413937 C50.614999,39.302247 50.614999,38.7544362 50.9570088,38.4151539 C51.2984722,38.0762781 51.8512332,38.0762781 52.1926966,38.4151539 L55.6894185,41.8839899 C56.0314283,42.2227302 56.0314283,42.771083 55.6894185,43.1103653 C55.5186868,43.2791934 55.2952332,43.3644205 55.0716429,43.3644205" id="Fill-26" fill="#1D1B4C"></path>
                </g>
                <g id="Group-53">
                    <path d="M29.9727922,52.3811601 C29.4894166,52.3811601 29.0987824,51.9916127 29.0987824,51.5094131 L29.0987824,16.6286345 C29.0987824,15.1862599 27.9223727,14.0118949 26.47648,14.0118949 L6.37070439,14.0118949 C5.88732878,14.0118949 5.49683122,13.6224837 5.49683122,13.1402842 C5.49683122,12.6580847 5.88732878,12.2685372 6.37070439,12.2685372 L26.47648,12.2685372 C28.8865288,12.2685372 30.8472117,14.2244496 30.8472117,16.6286345 L30.8472117,51.5094131 C30.8472117,51.9916127 30.4561678,52.3811601 29.9727922,52.3811601" id="Fill-29" fill="#1D1B4C"></path>
                    <path d="M29.9727922,17.5003134 C29.4894166,17.5003134 29.0987824,17.1107659 29.0987824,16.6285664 C29.0987824,14.2243815 31.059602,12.2684691 33.4696507,12.2684691 L53.57488,12.2684691 C54.0582556,12.2684691 54.4487532,12.6580165 54.4487532,13.1402161 C54.4487532,13.6224156 54.0582556,14.011963 53.57488,14.011963 L33.4696507,14.011963 C32.023758,14.011963 30.8472117,15.1861917 30.8472117,16.6285664 C30.8472117,17.1107659 30.4561678,17.5003134 29.9727922,17.5003134" id="Fill-31" fill="#1D1B4C"></path>
                    <path d="M17.7350576,20.1162628 L11.6158966,20.1162628 C11.132521,20.1162628 10.7414771,19.7267153 10.7414771,19.2445158 C10.7414771,18.7623163 11.132521,18.3720876 11.6158966,18.3720876 L17.7350576,18.3720876 C18.2184332,18.3720876 18.6090673,18.7623163 18.6090673,19.2445158 C18.6090673,19.7267153 18.2184332,20.1162628 17.7350576,20.1162628" id="Fill-33" fill="#1D1B4C"></path>
                    <path d="M24.7280644,24.4763601 L11.6158693,24.4763601 C11.1324937,24.4763601 10.7414498,24.0868127 10.7414498,23.6046131 C10.7414498,23.1224136 11.1324937,22.7321849 11.6158693,22.7321849 L24.7280644,22.7321849 C25.21144,22.7321849 25.6020741,23.1224136 25.6020741,23.6046131 C25.6020741,24.0868127 25.21144,24.4763601 24.7280644,24.4763601" id="Fill-35" fill="#1D1B4C"></path>
                    <path d="M24.7280644,28.8363893 L11.6158693,28.8363893 C11.1324937,28.8363893 10.7414498,28.4469781 10.7414498,27.9647786 C10.7414498,27.4824428 11.1324937,27.0923504 11.6158693,27.0923504 L24.7280644,27.0923504 C25.21144,27.0923504 25.6020741,27.4824428 25.6020741,27.9647786 C25.6020741,28.4469781 25.21144,28.8363893 24.7280644,28.8363893" id="Fill-37" fill="#1D1B4C"></path>
                    <path d="M24.7280644,33.1964866 L11.6158693,33.1964866 C11.1324937,33.1964866 10.7414498,32.8070754 10.7414498,32.3248759 C10.7414498,31.8425401 11.1324937,31.4523114 11.6158693,31.4523114 L24.7280644,31.4523114 C25.21144,31.4523114 25.6020741,31.8425401 25.6020741,32.3248759 C25.6020741,32.8070754 25.21144,33.1964866 24.7280644,33.1964866" id="Fill-39" fill="#1D1B4C"></path>
                    <path d="M24.7280644,37.5567202 L11.6158693,37.5567202 C11.1324937,37.5567202 10.7414498,37.1671727 10.7414498,36.6849732 C10.7414498,36.2026375 11.1324937,35.8124088 11.6158693,35.8124088 L24.7280644,35.8124088 C25.21144,35.8124088 25.6020741,36.2026375 25.6020741,36.6849732 C25.6020741,37.1671727 25.21144,37.5567202 24.7280644,37.5567202" id="Fill-41" fill="#1D1B4C"></path>
                    <path d="M11.6158693,41.9168175 C11.1324937,41.9168175 10.7414498,41.5272701 10.7414498,41.0450706 C10.7414498,40.5627348 11.1324937,40.1725061 11.6158693,40.1725061 L24.7280644,40.1725061 C25.21144,40.1725061 25.6020741,40.5627348 25.6020741,41.0450706 C25.6020741,41.5272701 25.21144,41.9168175 24.7280644,41.9168175 L11.6158693,41.9168175 Z" id="Fill-43" fill="#1D1B4C"></path>
                    <path d="M11.6158693,46.2767786 C11.1324937,46.2767786 10.7414498,45.8873674 10.7414498,45.4051679 C10.7414498,44.9228321 11.1324937,44.5326034 11.6158693,44.5326034 L24.7280644,44.5326034 C25.21144,44.5326034 25.6020741,44.9228321 25.6020741,45.4051679 C25.6020741,45.8873674 25.21144,46.2767786 24.7280644,46.2767786 L11.6158693,46.2767786 Z" id="Fill-45" fill="#1D1B4C"></path>
                    <mask id="mask-6" fill="white">
                        <use xlink:href="#path-5"></use>
                    </mask>
                    <g id="Clip-48"></g>
                    <path d="M36.0919805,27.0922822 L47.4557463,27.0922822 L47.4557463,20.1162628 L36.0919805,20.1162628 L36.0919805,27.0922822 Z M48.3301659,28.8364574 L35.2179707,28.8364574 C34.7345951,28.8364574 34.3435512,28.44691 34.3435512,27.9647105 L34.3435512,19.2445158 C34.3435512,18.7623163 34.7345951,18.3720876 35.2179707,18.3720876 L48.3301659,18.3720876 C48.8135415,18.3720876 49.2041756,18.7623163 49.2041756,19.2445158 L49.2041756,27.9647105 C49.2041756,28.44691 48.8135415,28.8364574 48.3301659,28.8364574 Z" id="Fill-47" fill="#1D1B4C" mask="url(#mask-6)"></path>
                    <path d="M48.3301795,33.1964866 L35.2179844,33.1964866 C34.7346088,33.1964866 34.3435649,32.8070754 34.3435649,32.3248759 C34.3435649,31.8425401 34.7346088,31.4523114 35.2179844,31.4523114 L48.3301795,31.4523114 C48.8135551,31.4523114 49.2040527,31.8425401 49.2040527,32.3248759 C49.2040527,32.8070754 48.8135551,33.1964866 48.3301795,33.1964866" id="Fill-49" fill="#1D1B4C" mask="url(#mask-6)"></path>
                    <path d="M48.3301795,37.5567202 L35.2179844,37.5567202 C34.7346088,37.5567202 34.3435649,37.1671727 34.3435649,36.6849732 C34.3435649,36.2026375 34.7346088,35.8124088 35.2179844,35.8124088 L48.3301795,35.8124088 C48.8135551,35.8124088 49.2040527,36.2026375 49.2040527,36.6849732 C49.2040527,37.1671727 48.8135551,37.5567202 48.3301795,37.5567202" id="Fill-50" fill="#1D1B4C" mask="url(#mask-6)"></path>
                    <path d="M48.3301795,41.9168175 L35.2179844,41.9168175 C34.7346088,41.9168175 34.3435649,41.5272701 34.3435649,41.0450706 C34.3435649,40.5627348 34.7346088,40.1725061 35.2179844,40.1725061 L48.3301795,40.1725061 C48.8135551,40.1725061 49.2040527,40.5627348 49.2040527,41.0450706 C49.2040527,41.5272701 48.8135551,41.9168175 48.3301795,41.9168175" id="Fill-51" fill="#1D1B4C" mask="url(#mask-6)"></path>
                    <path d="M48.3301795,46.2767786 L35.2179844,46.2767786 C34.7346088,46.2767786 34.3435649,45.8873674 34.3435649,45.4051679 C34.3435649,44.9228321 34.7346088,44.5326034 35.2179844,44.5326034 L48.3301795,44.5326034 C48.8135551,44.5326034 49.2040527,44.9228321 49.2040527,45.4051679 C49.2040527,45.8873674 48.8135551,46.2767786 48.3301795,46.2767786" id="Fill-52" fill="#1D1B4C" mask="url(#mask-6)"></path>
                </g>
            </g>
        </g>
    </g>
</svg>