<?xml version="1.0" encoding="UTF-8"?>
<svg width="699px" height="477px" viewBox="0 0 699 477" version="1.1" xmlns="http://www.w3.org/2000/svg" xmlns:xlink="http://www.w3.org/1999/xlink">
    <!-- Generator: Sketch 49.2 (51160) - http://www.bohemiancoding.com/sketch -->
    <title>底图</title>
    <desc>Created with Sketch.</desc>
    <defs>
        <rect id="path-1" x="0" y="0" width="659" height="437" rx="2"></rect>
        <filter x="-5.0%" y="-6.2%" width="110.0%" height="115.1%" filterUnits="objectBoundingBox" id="filter-3">
            <feOffset dx="0" dy="6" in="SourceAlpha" result="shadowOffsetOuter1"></feOffset>
            <feGaussianBlur stdDeviation="10" in="shadowOffsetOuter1" result="shadowBlurOuter1"></feGaussianBlur>
            <feColorMatrix values="0 0 0 0 0   0 0 0 0 0   0 0 0 0 0  0 0 0 0.05 0" type="matrix" in="shadowBlurOuter1"></feColorMatrix>
        </filter>
    </defs>
    <g id="Page-1" stroke="none" stroke-width="1" fill="none" fill-rule="evenodd">
        <g id="AEIS暑期集训班-Copy" transform="translate(-861.000000, -1922.000000)">
            <g id="费用+开课时间" transform="translate(-15.000000, 1467.000000)">
                <g id="底图" transform="translate(896.000000, 469.000000)">
                    <mask id="mask-2" fill="white">
                        <use xlink:href="#path-1"></use>
                    </mask>
                    <g id="Rectangle-4-Copy-5">
                        <use fill="black" fill-opacity="1" filter="url(#filter-3)" xlink:href="#path-1"></use>
                        <use fill="#FFFFFF" fill-rule="evenodd" xlink:href="#path-1"></use>
                    </g>
                    <g id="Group-2" opacity="0.0952658582" mask="url(#mask-2)" stroke="#979797" stroke-linecap="square">
                        <g transform="translate(86.500000, 140.500000) rotate(-330.000000) translate(-86.500000, -140.500000) translate(67.000000, -78.000000)">
                            <path d="M1.77272727,0.547619048 L1.77272727,436.501912" id="Line-4"></path>
                            <path d="M13.5909091,0.547619048 L13.5909091,436.501912" id="Line-4-Copy"></path>
                            <path d="M25.4090909,0.547619048 L25.4090909,436.501912" id="Line-4-Copy-2"></path>
                            <path d="M37.2272727,0.547619048 L37.2272727,436.501912" id="Line-4-Copy-3"></path>
                        </g>
                    </g>
                    <g id="Group-2-Copy" opacity="0.0952658582" mask="url(#mask-2)" stroke="#979797" stroke-linecap="square">
                        <g transform="translate(119.500000, 195.000000) rotate(-330.000000) translate(-119.500000, -195.000000) translate(100.000000, -45.000000)">
                            <path d="M1.77272727,0.600786805 L1.77272727,478.881423" id="Line-4"></path>
                            <path d="M13.5909091,0.600786805 L13.5909091,478.881423" id="Line-4-Copy"></path>
                            <path d="M25.4090909,0.600786805 L25.4090909,478.881423" id="Line-4-Copy-2"></path>
                            <path d="M37.2272727,0.600786805 L37.2272727,478.881423" id="Line-4-Copy-3"></path>
                        </g>
                    </g>
                    <g id="Group-2-Copy-2" opacity="0.0952658582" mask="url(#mask-2)" stroke="#979797" stroke-linecap="square">
                        <g transform="translate(169.500000, 219.500000) rotate(-330.000000) translate(-169.500000, -219.500000) translate(150.000000, -51.000000)">
                            <path d="M1.77272727,0.677288968 L1.77272727,539.860567" id="Line-4"></path>
                            <path d="M13.5909091,0.677288968 L13.5909091,539.860567" id="Line-4-Copy"></path>
                            <path d="M25.4090909,0.677288968 L25.4090909,539.860567" id="Line-4-Copy-2"></path>
                            <path d="M37.2272727,0.677288968 L37.2272727,539.860567" id="Line-4-Copy-3"></path>
                        </g>
                    </g>
                    <g id="Group-2-Copy-3" opacity="0.0952658582" mask="url(#mask-2)" stroke="#979797" stroke-linecap="square">
                        <g transform="translate(226.500000, 236.500000) rotate(-330.000000) translate(-226.500000, -236.500000) translate(207.000000, -70.000000)">
                            <path d="M1.77272727,0.76703771 L1.77272727,611.398431" id="Line-4"></path>
                            <path d="M13.5909091,0.76703771 L13.5909091,611.398431" id="Line-4-Copy"></path>
                            <path d="M25.4090909,0.76703771 L25.4090909,611.398431" id="Line-4-Copy-2"></path>
                            <path d="M37.2272727,0.76703771 L37.2272727,611.398431" id="Line-4-Copy-3"></path>
                        </g>
                    </g>
                    <g id="Group-2-Copy-4" opacity="0.0952658582" mask="url(#mask-2)" stroke="#979797" stroke-linecap="square">
                        <g transform="translate(322.500000, 184.500000) rotate(-330.000000) translate(-322.500000, -184.500000) translate(303.000000, -34.000000)">
                            <path d="M1.77272727,0.547619048 L1.77272727,436.501912" id="Line-4"></path>
                            <path d="M13.5909091,0.547619048 L13.5909091,436.501912" id="Line-4-Copy"></path>
                            <path d="M25.4090909,0.547619048 L25.4090909,436.501912" id="Line-4-Copy-2"></path>
                            <path d="M37.2272727,0.547619048 L37.2272727,436.501912" id="Line-4-Copy-3"></path>
                        </g>
                    </g>
                    <g id="Group-2-Copy-5" opacity="0.0952658582" mask="url(#mask-2)" stroke="#979797" stroke-linecap="square">
                        <g transform="translate(365.500000, 211.500000) rotate(-330.000000) translate(-365.500000, -211.500000) translate(346.000000, -87.000000)">
                            <path d="M1.77272727,0.747622217 L1.77272727,595.922528" id="Line-4"></path>
                            <path d="M13.5909091,0.747622217 L13.5909091,595.922528" id="Line-4-Copy"></path>
                            <path d="M25.4090909,0.747622217 L25.4090909,595.922528" id="Line-4-Copy-2"></path>
                            <path d="M37.2272727,0.747622217 L37.2272727,595.922528" id="Line-4-Copy-3"></path>
                        </g>
                    </g>
                    <g id="Group-2-Copy-6" opacity="0.0952658582" mask="url(#mask-2)" stroke="#979797" stroke-linecap="square">
                        <g transform="translate(448.500000, 169.500000) rotate(-330.000000) translate(-448.500000, -169.500000) translate(429.000000, -49.000000)">
                            <path d="M1.77272727,0.547619048 L1.77272727,436.501912" id="Line-4"></path>
                            <path d="M13.5909091,0.547619048 L13.5909091,436.501912" id="Line-4-Copy"></path>
                            <path d="M25.4090909,0.547619048 L25.4090909,436.501912" id="Line-4-Copy-2"></path>
                            <path d="M37.2272727,0.547619048 L37.2272727,436.501912" id="Line-4-Copy-3"></path>
                        </g>
                    </g>
                    <g id="Group-2-Copy-7" opacity="0.0952658582" mask="url(#mask-2)" stroke="#979797" stroke-linecap="square">
                        <g transform="translate(472.500000, 234.500000) rotate(-330.000000) translate(-472.500000, -234.500000) translate(453.000000, -49.000000)">
                            <path d="M1.77272727,0.70987075 L1.77272727,565.831193" id="Line-4"></path>
                            <path d="M13.5909091,0.70987075 L13.5909091,565.831193" id="Line-4-Copy"></path>
                            <path d="M25.4090909,0.70987075 L25.4090909,565.831193" id="Line-4-Copy-2"></path>
                            <path d="M37.2272727,0.70987075 L37.2272727,565.831193" id="Line-4-Copy-3"></path>
                        </g>
                    </g>
                    <g id="Group-2-Copy-8" opacity="0.0952658582" mask="url(#mask-2)" stroke="#979797" stroke-linecap="square">
                        <g transform="translate(542.500000, 229.500000) rotate(-330.000000) translate(-542.500000, -229.500000) translate(523.000000, -25.000000)">
                            <path d="M1.77272727,0.637189028 L1.77272727,507.897287" id="Line-4"></path>
                            <path d="M13.5909091,0.637189028 L13.5909091,507.897287" id="Line-4-Copy"></path>
                            <path d="M25.4090909,0.637189028 L25.4090909,507.897287" id="Line-4-Copy-2"></path>
                            <path d="M37.2272727,0.637189028 L37.2272727,507.897287" id="Line-4-Copy-3"></path>
                        </g>
                    </g>
                    <g id="Group-2-Copy-9" opacity="0.0952658582" mask="url(#mask-2)" stroke="#979797" stroke-linecap="square">
                        <g transform="translate(542.500000, 323.500000) rotate(-330.000000) translate(-542.500000, -323.500000) translate(523.000000, 69.000000)">
                            <path d="M1.77272727,0.637189028 L1.77272727,507.897287" id="Line-4"></path>
                            <path d="M13.5909091,0.637189028 L13.5909091,507.897287" id="Line-4-Copy"></path>
                            <path d="M25.4090909,0.637189028 L25.4090909,507.897287" id="Line-4-Copy-2"></path>
                            <path d="M37.2272727,0.637189028 L37.2272727,507.897287" id="Line-4-Copy-3"></path>
                        </g>
                    </g>
                    <g id="Group-2-Copy-10" opacity="0.0952658582" mask="url(#mask-2)" stroke="#979797" stroke-linecap="square">
                        <g transform="translate(552.500000, 397.500000) rotate(-330.000000) translate(-552.500000, -397.500000) translate(533.000000, 143.000000)">
                            <path d="M1.77272727,0.637189028 L1.77272727,507.897287" id="Line-4"></path>
                            <path d="M13.5909091,0.637189028 L13.5909091,507.897287" id="Line-4-Copy"></path>
                            <path d="M25.4090909,0.637189028 L25.4090909,507.897287" id="Line-4-Copy-2"></path>
                            <path d="M37.2272727,0.637189028 L37.2272727,507.897287" id="Line-4-Copy-3"></path>
                        </g>
                    </g>
                    <g id="Group-2-Copy-11" opacity="0.0952658582" mask="url(#mask-2)" stroke="#979797" stroke-linecap="square">
                        <g transform="translate(570.500000, 459.500000) rotate(-330.000000) translate(-570.500000, -459.500000) translate(551.000000, 205.000000)">
                            <path d="M1.77272727,0.637189028 L1.77272727,507.897287" id="Line-4"></path>
                            <path d="M13.5909091,0.637189028 L13.5909091,507.897287" id="Line-4-Copy"></path>
                            <path d="M25.4090909,0.637189028 L25.4090909,507.897287" id="Line-4-Copy-2"></path>
                            <path d="M37.2272727,0.637189028 L37.2272727,507.897287" id="Line-4-Copy-3"></path>
                        </g>
                    </g>
                    <g id="Group-2-Copy-14" opacity="0.0952658582" mask="url(#mask-2)" stroke="#979797" stroke-linecap="square">
                        <g transform="translate(609.500000, 479.500000) rotate(-330.000000) translate(-609.500000, -479.500000) translate(590.000000, 225.000000)">
                            <path d="M1.77272727,0.637189028 L1.77272727,507.897287" id="Line-4"></path>
                            <path d="M13.5909091,0.637189028 L13.5909091,507.897287" id="Line-4-Copy"></path>
                            <path d="M25.4090909,0.637189028 L25.4090909,507.897287" id="Line-4-Copy-2"></path>
                            <path d="M37.2272727,0.637189028 L37.2272727,507.897287" id="Line-4-Copy-3"></path>
                        </g>
                    </g>
                    <g id="Group-2-Copy-12" opacity="0.0952658582" mask="url(#mask-2)" stroke="#979797" stroke-linecap="square">
                        <g transform="translate(49.500000, 109.500000) rotate(-330.000000) translate(-49.500000, -109.500000) translate(30.000000, -145.000000)">
                            <path d="M1.77272727,0.637189028 L1.77272727,507.897287" id="Line-4"></path>
                            <path d="M13.5909091,0.637189028 L13.5909091,507.897287" id="Line-4-Copy"></path>
                            <path d="M25.4090909,0.637189028 L25.4090909,507.897287" id="Line-4-Copy-2"></path>
                            <path d="M37.2272727,0.637189028 L37.2272727,507.897287" id="Line-4-Copy-3"></path>
                        </g>
                    </g>
                    <g id="Group-2-Copy-13" opacity="0.0952658582" mask="url(#mask-2)" stroke="#979797" stroke-linecap="square">
                        <g transform="translate(-0.500000, 93.500000) rotate(-330.000000) translate(0.500000, -93.500000) translate(-20.000000, -161.000000)">
                            <path d="M1.77272727,0.637189028 L1.77272727,507.897287" id="Line-4"></path>
                            <path d="M13.5909091,0.637189028 L13.5909091,507.897287" id="Line-4-Copy"></path>
                            <path d="M25.4090909,0.637189028 L25.4090909,507.897287" id="Line-4-Copy-2"></path>
                            <path d="M37.2272727,0.637189028 L37.2272727,507.897287" id="Line-4-Copy-3"></path>
                        </g>
                    </g>
                </g>
            </g>
        </g>
    </g>
</svg>