<?xml version="1.0" encoding="UTF-8"?>
<svg width="55px" height="55px" viewBox="0 0 55 55" version="1.1" xmlns="http://www.w3.org/2000/svg" xmlns:xlink="http://www.w3.org/1999/xlink">
    <!-- Generator: Sketch 49.2 (51160) - http://www.bohemiancoding.com/sketch -->
    <title>041-book-2</title>
    <desc>Created with Sketch.</desc>
    <defs>
        <polygon id="path-1" points="0.00796875 0.1064 51 0.1064 51 53.8669333 0.00796875 53.8669333"></polygon>
        <polygon id="path-3" points="0.00798701299 0.0537634409 40.8933734 0.0537634409 40.8933734 49.9461022 0.00798701299 49.9461022"></polygon>
    </defs>
    <g id="Page-1" stroke="none" stroke-width="1" fill="none" fill-rule="evenodd">
        <g id="AEIS暑期集训班-Copy" transform="translate(-1382.000000, -1679.000000)">
            <g id="特点" transform="translate(379.000000, 1633.000000)">
                <g id="4" transform="translate(977.000000, 46.000000)">
                    <g id="041-book-2" transform="translate(26.000000, 0.000000)">
                        <polygon id="Fill-1" fill="#D31818" points="12 28 29 28 29 18 12 18"></polygon>
                        <g id="Group-5" transform="translate(0.000000, 1.000000)">
                            <mask id="mask-2" fill="white">
                                <use xlink:href="#path-1"></use>
                            </mask>
                            <g id="Clip-3"></g>
                            <path d="M51,46.1866667 L51,1.8132 C51,0.870533333 50.2393828,0.1064 49.2998672,0.1064 L45.9002656,0.1064 C44.9606172,0.1064 44.2001328,0.870533333 44.2001328,1.8132 L44.2001328,46.1866667 L47.5997344,53.0132 L51,46.1866667 Z" id="Fill-2" fill="#D31818" mask="url(#mask-2)"></path>
                            <path d="M39.9501328,53.8669333 L5.95013281,53.8669333 C2.66979687,53.8669333 0,51.1861333 0,47.8934667 C0,44.6002667 2.66979687,41.92 5.95013281,41.92 L39.9501328,41.92 C40.4201562,41.92 40.7998672,42.3012 40.7998672,42.7730667 L40.7998672,53.0132 C40.7998672,53.4850667 40.4201562,53.8669333 39.9501328,53.8669333 Z M5.95013281,43.6268 C3.60665625,43.6268 1.70013281,45.5408 1.70013281,47.8934667 C1.70013281,50.246 3.60665625,52.1601333 5.95013281,52.1601333 L39.0997344,52.1601333 L39.0997344,43.6268 L5.95013281,43.6268 Z" id="Fill-4" fill="#1D1B4C" mask="url(#mask-2)"></path>
                        </g>
                        <path d="M40.1391505,52 L10.8608495,52 C10.3846778,52 10,51.5533161 10,51.0003906 C10,50.4473088 10.3846778,50 10.8608495,50 L40.1391505,50 C40.6153222,50 41,50.4473088 41,51.0003906 C41,51.5533161 40.6153222,52 40.1391505,52 Z" id="Fill-6" fill="#1D1B4C"></path>
                        <g id="Group-10">
                            <mask id="mask-4" fill="white">
                                <use xlink:href="#path-3"></use>
                            </mask>
                            <g id="Clip-8"></g>
                            <path d="M40.0416916,48.2255376 L21.2987013,48.2255376 C20.8276006,48.2255376 20.4470195,47.8412634 20.4470195,47.3655914 C20.4470195,46.8899194 20.8276006,46.5056452 21.2987013,46.5056452 L40.0416916,46.5056452 C40.5127922,46.5056452 40.8933734,46.8899194 40.8933734,47.3655914 C40.8933734,47.8412634 40.5127922,48.2255376 40.0416916,48.2255376 Z" id="Fill-7" fill="#1D1B4C" mask="url(#mask-4)"></path>
                            <path d="M0.851681818,49.9461022 C0.380581169,49.9461022 0,49.561828 0,49.0861559 L0,4.35483871 C0,1.98319892 1.91089286,0.0537634409 4.25974026,0.0537634409 L40.0416916,0.0537634409 C40.5127922,0.0537634409 40.8933734,0.438037634 40.8933734,0.913709677 L40.8933734,43.9244624 C40.8933734,44.4001344 40.5127922,44.7850806 40.0416916,44.7850806 C39.5705909,44.7850806 39.1893442,44.4001344 39.1893442,43.9244624 L39.1893442,1.77432796 L4.25974026,1.77432796 C2.85056494,1.77432796 1.70402922,2.93198925 1.70402922,4.35483871 L1.70402922,49.0861559 C1.70402922,49.561828 1.32291558,49.9461022 0.851681818,49.9461022 Z" id="Fill-9" fill="#1D1B4C" mask="url(#mask-4)"></path>
                        </g>
                        <path d="M6.00039059,44 C5.44746504,44 5,43.6213473 5,43.1534521 L5,0.845886881 C5,0.377991653 5.44746504,0 6.00039059,0 C6.55331615,0 7,0.377991653 7,0.845886881 L7,43.1534521 C7,43.6213473 6.55331615,44 6.00039059,44 Z" id="Fill-11" fill="#1D1B4C"></path>
                        <path d="M50.5,55 C50.1588437,55 49.8473594,54.8157724 49.6940781,54.5246605 L46.0943594,47.6492913 C46.0323437,47.5308592 46,47.3985967 46,47.2653942 L46,2.57797813 C46,1.15652511 47.2112031,0 48.6998594,0 L52.2994375,0 C53.7880937,0 55,1.15652511 55,2.57797813 L55,47.2653942 C55,47.3985967 54.9675156,47.5308592 54.9055,47.6492913 L51.3052188,54.5246605 C51.1519375,54.8157724 50.8410156,55 50.5,55 Z M47.7994375,47.0623679 L50.5,52.2189955 L53.1998594,47.0623679 L53.1998594,2.57797813 C53.1998594,2.10384715 52.7966875,1.71887588 52.2994375,1.71887588 L48.6998594,1.71887588 C48.20275,1.71887588 47.7994375,2.10384715 47.7994375,2.57797813 L47.7994375,47.0623679 Z" id="Fill-12" fill="#1D1B4C"></path>
                        <path d="M54.0995781,7 L46.8997187,7 C46.4020469,7 46,6.55253496 46,5.99960941 C46,5.44668385 46.4020469,5 46.8997187,5 L54.0995781,5 C54.59725,5 55,5.44668385 55,5.99960941 C55,6.55253496 54.59725,7 54.0995781,7 Z" id="Fill-13" fill="#1D1B4C"></path>
                        <path d="M54.0995781,11 L46.8997187,11 C46.4020469,11 46,10.5533161 46,10.0003906 C46,9.44746504 46.4020469,9 46.8997187,9 L54.0995781,9 C54.59725,9 55,9.44746504 55,10.0003906 C55,10.5533161 54.59725,11 54.0995781,11 Z" id="Fill-14" fill="#1D1B4C"></path>
                        <path d="M54.0995781,48 L46.8997187,48 C46.4020469,48 46,47.5531416 46,47 C46,46.4468584 46.4020469,46 46.8997187,46 L54.0995781,46 C54.59725,46 55,46.4468584 55,47 C55,47.5531416 54.59725,48 54.0995781,48 Z" id="Fill-15" fill="#1D1B4C"></path>
                        <path d="M51.0003906,35 C50.4473088,35 50,34.6270882 50,34.1662869 L50,25.8330621 C50,25.3722608 50.4473088,25 51.0003906,25 C51.5533161,25 52,25.3722608 52,25.8330621 L52,34.1662869 C52,34.6270882 51.5533161,35 51.0003906,35 Z" id="Fill-16" fill="#1D1B4C"></path>
                        <path d="M51.0003906,25 C50.7404109,25 50.4791813,24.8894589 50.2899773,24.7083161 C50.1092102,24.5172671 50,24.2556165 50,23.9939658 C50,23.721151 50.1092102,23.4694066 50.2899773,23.2796155 C50.6604172,22.9067948 51.3298961,22.9067948 51.7101789,23.2796155 C51.8901648,23.4694066 52,23.721151 52,23.9939658 C52,24.2556165 51.8901648,24.5172671 51.7101789,24.7083161 C51.52035,24.8894589 51.2603703,25 51.0003906,25 Z" id="Fill-17" fill="#1D1B4C"></path>
                        <path d="M51.0003906,21 C50.7404109,21 50.4791813,20.8888474 50.2899773,20.7075759 C50.1092102,20.5165569 50,20.2549474 50,19.9933379 C50,19.7207232 50.1092102,19.46949 50.2899773,19.2790999 C50.6604172,18.9069667 51.3402078,18.9069667 51.7101789,19.2790999 C51.8901648,19.46949 52,19.7317284 52,19.9933379 C52,20.2549474 51.8901648,20.5165569 51.7101789,20.7075759 C51.52035,20.8888474 51.2603703,21 51.0003906,21 Z" id="Fill-18" fill="#1D1B4C"></path>
                        <path d="M32.1366397,26 L14.8640351,26 C14.3864745,26 14,25.6170854 14,25.1430963 L14,14.8569037 C14,14.3829146 14.3864745,14 14.8640351,14 L32.1366397,14 C32.6142002,14 33,14.3829146 33,14.8569037 L33,25.1430963 C33,25.6170854 32.6142002,26 32.1366397,26 Z M15.7273954,24.2861926 L31.2726046,24.2861926 L31.2726046,15.714477 L15.7273954,15.714477 L15.7273954,24.2861926 Z" id="Fill-19" fill="#1D1B4C"></path>
                        <path d="M28.1424745,20 L17.8568559,20 C17.3828932,20 17,19.5533161 17,19.0003906 C17,18.447465 17.3828932,18 17.8568559,18 L28.1424745,18 C28.6164371,18 29,18.447465 29,19.0003906 C29,19.5533161 28.6164371,20 28.1424745,20 Z" id="Fill-20" fill="#1D1B4C"></path>
                        <path d="M28.1424745,24 L17.8568559,24 C17.3828932,24 17,23.552535 17,22.9996094 C17,22.4466839 17.3828932,22 17.8568559,22 L28.1424745,22 C28.6164371,22 29,22.4466839 29,22.9996094 C29,23.552535 28.6164371,24 28.1424745,24 Z" id="Fill-21" fill="#1D1B4C"></path>
                    </g>
                </g>
            </g>
        </g>
    </g>
</svg>