<?xml version="1.0" encoding="UTF-8"?>
<svg width="58px" height="55px" viewBox="0 0 58 55" version="1.1" xmlns="http://www.w3.org/2000/svg" xmlns:xlink="http://www.w3.org/1999/xlink">
    <!-- Generator: Sketch 49.2 (51160) - http://www.bohemiancoding.com/sketch -->
    <title>Page 1</title>
    <desc>Created with Sketch.</desc>
    <defs>
        <polygon id="path-1" points="0 55 59 55 59 0 0 0"></polygon>
    </defs>
    <g id="Page-1" stroke="none" stroke-width="1" fill="none" fill-rule="evenodd">
        <g id="AEIS暑期集训班-Copy" transform="translate(-480.000000, -1675.000000)">
            <g id="特点" transform="translate(379.000000, 1633.000000)">
                <g id="1" transform="translate(77.000000, 42.000000)">
                    <g id="Page-1" transform="translate(24.000000, 0.000000)">
                        <path d="M25.262943,52.8180407 L55.7927861,52.8180407 C55.6383258,47.1413083 52.0378361,41.1819593 44.3358682,41.1819593 L37.4469431,41.1819593 C30.8548501,41.1819593 25.8807838,46.0112858 25.262943,52.8180407 M56.8990793,55 L24.1011336,55 C23.8051968,55 23.5217959,54.8819843 23.3145059,54.672573 C23.1081112,54.4631617 22.9943927,54.1801015 23.0002129,53.8868369 C23.1743724,45.2614868 29.2502549,39 37.4469431,39 L44.3358682,39 C52.3812302,39 58,44.8395586 58,53.2000388 L58,53.9090203 C58,54.5110778 57.5070705,55 56.8990793,55" id="Fill-3" fill="#263357"></path>
                        <path d="M51.4457659,54 C51.3782484,54 51.3101437,53.9968484 51.2408648,53.9905451 C50.45179,53.9149056 49.9028429,53.4240372 50.0143937,52.8949552 C50.2028557,52.0081616 50.0725175,50.5450113 50.0061742,50.0561127 C49.9345468,49.523485 50.5193076,49.0519205 51.3130792,49.0034639 C52.0962829,48.958947 52.8096206,49.3485689 52.8818351,49.8808026 C52.892403,49.9623513 53.1472084,51.8789442 52.8742026,53.1675723 C52.7714585,53.6509555 52.1526454,54 51.4457659,54" id="Fill-5" fill="#263357"></path>
                        <path d="M56,53 C56,45.9969083 52.1730423,40.7870307 44,39 C49.4012541,42.0754467 53.6802605,45.9969083 53.6802605,53 L56,53 Z" id="Fill-7" fill="#D31818"></path>
                        <path d="M41.5641613,45.9978777 C47.9949588,46.1214377 49,40.80877 49,40.80877 C49,40.80877 45.8698442,39 40.9560037,39 C37.2511457,39 34,40.4475945 34,40.4475945 C34,40.4475945 35.3038497,45.8772103 41.5641613,45.9978777" id="Fill-9" fill="#FFFFFF"></path>
                        <path d="M41.8645567,50 C41.7640049,50 41.6625513,49.9990681 41.5597449,49.9972044 C32.9289717,49.8154897 31.0184871,41.5181197 31,41.4347173 L32.8545724,41 C32.9172482,41.2800269 34.4787323,47.8832574 41.5989737,48.0323566 C48.8598974,48.2019569 50.0804973,41.8233071 50.1278423,41.551667 L52,41.8978567 C51.9851201,41.9798613 50.5070534,50 41.8645567,50" id="Fill-13" fill="#263357"></path>
                        <mask id="mask-2" fill="white">
                            <use xlink:href="#path-1"></use>
                        </mask>
                        <g id="Clip-16"></g>
                        <polygon id="Fill-15" fill="#FFFFFF" mask="url(#mask-2)" points="36 41 45 41 45 29 36 29"></polygon>
                        <path d="M45.8273258,42 C45.1801852,42 44.6546517,41.4960146 44.6546517,40.8754083 L44.6546517,30.2491833 L37.3453483,30.2491833 L37.3453483,40.8754083 C37.3453483,41.4960146 36.8198148,42 36.1726742,42 C35.5250566,42 35,41.4960146 35,40.8754083 L35,29.1245917 C35,28.5030707 35.5250566,28 36.1726742,28 L45.8273258,28 C46.4744665,28 47,28.5030707 47,29.1245917 L47,40.8754083 C47,41.4960146 46.4744665,42 45.8273258,42" id="Fill-17" fill="#263357" mask="url(#mask-2)"></path>
                        <path d="M51,27.7648462 C51,33.4177115 46.9921275,38 42.0492805,38 L40.9511714,38 C36.0078725,38 32,33.4177115 32,27.7648462 L32,18.2342364 C32,12.5818299 36.0078725,8 40.9511714,8 L42.0492805,8 C46.9921275,8 51,12.5818299 51,18.2342364 L51,27.7648462 Z" id="Fill-19" fill="#FFFFFF" mask="url(#mask-2)"></path>
                        <path d="M40.9569235,9.23793407 C36.6793859,9.23793407 33.1991355,13.2906061 33.1991355,18.2720344 L33.1991355,27.7270555 C33.1991355,32.7084838 36.6793859,36.7620659 40.9569235,36.7620659 L42.0439708,36.7620659 C46.3210613,36.7620659 49.8008645,32.7084838 49.8008645,27.7270555 L49.8008645,18.2720344 C49.8008645,13.2906061 46.3210613,9.23793407 42.0439708,9.23793407 L40.9569235,9.23793407 Z M42.0439708,39 L40.9569235,39 C35.4671337,39 31,33.9425784 31,27.7270555 L31,18.2720344 C31,12.0565115 35.4671337,7 40.9569235,7 L42.0439708,7 C47.5337606,7 52,12.0565115 52,18.2720344 L52,27.7270555 C52,33.9425784 47.5337606,39 42.0439708,39 Z" id="Fill-20" fill="#263357" mask="url(#mask-2)"></path>
                        <path d="M50,18.0401148 C50,13.3326349 46.8634424,9.45044016 43,9 C45.5847558,10.9265598 46.5821479,14.1078214 46.5821479,17.8531396 L47.2165126,25.8465514 C47.2165126,30.8009458 46.1415363,34.388364 43.0738502,35.9950979 C47.2530228,36.1717849 50,31.5430314 50,26.8373408 L50,18.0401148 Z" id="Fill-21" fill="#B8D4EA" mask="url(#mask-2)"></path>
                        <path d="M45.7255626,36.3894998 L45.7255626,39.6624575 C47.1391065,40.4373817 50.1173536,40.7649037 53.1350928,42.5558698 C53.9993792,43.070224 56.5917842,45.7731849 57.7919801,49 C58.9917221,43.8609814 54.6357917,37.9900146 54.0515813,34.4184872 C52.8763517,27.25598 53.2158927,20.2667338 53.3103105,16.1537094 C53.4410429,10.4297656 47.9475592,5.672102 40.3219573,6.01771909 C36.0513661,6.21178942 31.8751926,9.0328211 30,13.6583902 C34.6024155,19.9374023 39.6728347,22.7127438 49.2335482,22.8529811 C50.3125443,24.2870206 51.3801921,33.1622324 45.7255626,36.3894998" id="Fill-22" fill="#FFFFFF" mask="url(#mask-2)"></path>
                        <path d="M45.8209782,38.8846192 C46.2237066,39.0345107 46.7205853,39.1826018 47.2656652,39.345547 C48.7860328,39.800173 50.6775952,40.36688 52.6331258,41.5300024 C53.268752,41.9090075 54.367471,42.9627495 55.4351069,44.393246 C55.0026468,42.6382096 54.2372825,40.8651681 53.5241738,39.2136604 C52.7939469,37.5247923 52.1056145,35.9286499 51.8826273,34.5620711 C50.8154419,28.0393132 50.9861735,21.684902 51.0996943,17.4798365 L51.1325793,16.1848276 C51.1798796,14.1075018 50.3537006,12.091393 48.8054034,10.5083043 C46.6165246,8.2711842 43.1924316,7.06304935 39.401198,7.23094588 C35.585188,7.40514416 32.1043347,9.87542884 30.3794495,13.5799556 C34.8171209,19.4135725 39.7178849,21.645291 48.2112212,21.7699756 C48.5535854,21.774927 48.8743267,21.9387724 49.0806462,22.2124482 C49.9955696,23.4318362 50.5325409,27.1242096 49.8401543,30.4740381 C49.2464226,33.345834 47.8625502,35.5744017 45.8209782,36.9585354 L45.8209782,38.8846192 Z M56.6869888,50 C56.2270494,50 55.8112571,49.7141708 55.6490845,49.2779999 C54.5269407,46.2518111 52.1119212,43.7977309 51.498819,43.4317795 C49.77979,42.4090961 48.0337324,41.8865012 46.6304894,41.4665348 C45.6615085,41.1771046 44.824518,40.9268352 44.1794317,40.5721369 C43.825355,40.377683 43.6055211,40.00588 43.6055211,39.6025682 L43.6055211,36.3454654 C43.6055211,35.9489055 43.8185978,35.582504 44.1627639,35.3853493 C46.3980421,34.1060948 47.2985502,31.7897527 47.6607355,30.0720767 C48.204464,27.493762 47.8364224,24.9964699 47.498563,23.9683849 C38.4898784,23.7113637 33.0431335,20.9881089 28.2135451,14.3807276 C27.9869541,14.0714918 27.9374013,13.6681801 28.0806538,13.3134818 C30.0276252,8.49669671 34.4315106,5.24139445 39.2998401,5.01993307 C43.7879652,4.81197543 47.726956,6.23842079 50.389739,8.96077533 C52.3578829,10.9737333 53.4088511,13.5569992 53.3480364,16.2356917 L53.3142504,17.5397031 C53.2034325,21.6610454 53.0358542,27.8894217 54.0697042,34.2051222 C54.248094,35.3020762 54.8841707,36.7766849 55.5585382,38.3372675 C56.9257428,41.5043453 58.628104,45.4469881 57.7667876,49.1438627 C57.6555192,49.6205448 57.2460336,49.9666908 56.757714,49.9977494 C56.7342891,49.9990998 56.7108642,50 56.6869888,50 Z" id="Fill-23" fill="#263357" mask="url(#mask-2)"></path>
                        <path d="M51.2007716,40.347584 C51.9027597,40.8180722 53.9485661,42.4681259 55,44 C54.7664463,41.1721648 51.7346718,36.7049791 51.1419409,31.3909145 C50.5328435,25.9149662 50.7916104,18.5757952 50.8504411,15.9557776 C50.8964441,13.8784939 49.9843462,11.7004231 48.4547465,10.122615 C46.4500774,8.05558837 43.251542,7 39.864129,7 C39.6305753,7 37.6643895,7.28942833 37,7.47138019 C40.606812,7.61587137 44.4316959,8.72631287 46.6424938,11.0056167 C48.4834984,12.9049622 48.7763252,14.8056456 49.0974615,17.3106054 C49.3425159,19.2242217 49.7972379,26.4425374 49.915784,29.9781118 C49.9724031,31.7445611 50.3479468,36.2505454 50.558499,37.5193029 C50.7332219,38.5797968 51.0640896,40.0795618 51.2007716,40.347584" id="Fill-24" fill="#C4C4C4" mask="url(#mask-2)"></path>
                        <path d="M41.9557619,20 C41.8639844,20 41.7705074,19.9883804 41.678305,19.9621287 C38.8901397,19.1857662 36.8208979,18.1679739 35.3520336,16.8510842 C34.9199147,16.4637636 34.8803994,15.7949902 35.2623806,15.357318 C35.6452116,14.9196458 36.3050745,14.8779013 36.7371934,15.2660825 C37.9617427,16.363921 39.7586264,17.2323797 42.2315192,17.9213799 C42.7885574,18.0763081 43.1153021,18.6590103 42.9623397,19.2219161 C42.8352959,19.691865 42.4142243,20 41.9557619,20" id="Fill-25" fill="#263357" mask="url(#mask-2)"></path>
                        <path d="M46.6090334,22 C46.5909168,22 46.5728001,22 46.5535512,21.9994167 C45.8611555,21.9714197 45.6924442,21.948672 45.142151,21.8448495 C44.3863471,21.7031143 43.8847424,20.9565256 44.0228818,20.1766904 C44.1610212,19.3968552 44.8902164,18.8829922 45.6426234,19.0229776 C46.0621371,19.1023026 46.1057303,19.1104685 46.6622511,19.1326328 C47.4299441,19.1635462 48.0289258,19.8302266 47.9989201,20.6223106 C47.9700467,21.39398 47.3523822,22 46.6090334,22" id="Fill-26" fill="#263357" mask="url(#mask-2)"></path>
                        <path d="M2.30096515,51.8267253 L37.7683629,51.8267253 C37.6197381,45.2052635 32.2923558,38.1732747 23.7600254,38.1732747 L16.0569124,38.1732747 C8.43626807,38.1732747 2.90905795,43.7324037 2.30096515,51.8267253 Z M40,54 L0,54 L0.0208437174,52.8930351 C0.212515293,42.9458179 6.80637999,36 16.0569124,36 L23.7600254,36 C33.791291,36 40,44.3621143 40,52.1104264 L40,54 Z" id="Fill-28" fill="#263357" mask="url(#mask-2)"></path>
                        <path d="M38,52 C38,43.7157288 29.9411255,37 20,37 C10.0588745,37 2,43.7157288 2,52" id="Oval-2" fill="#FFFFFF" mask="url(#mask-2)"></path>
                        <path d="M31.439892,54 C31.372057,54 31.3036372,53.9964456 31.2340479,53.9888925 C30.4480977,53.9031426 29.9019092,53.3499894 30.0147726,52.7524062 C30.2252949,51.6394353 30.0796836,49.8044772 30.0060008,49.1917878 C29.9340723,48.5906502 30.5171023,48.0588234 31.3071459,48.0041745 C32.0971895,47.9521915 32.7983459,48.3916039 32.8702744,48.9922972 C32.8825549,49.0935976 33.161497,51.4701571 32.8615026,53.0629718 C32.7591654,53.607239 32.1439723,54 31.439892,54" id="Fill-29" fill="#263357" mask="url(#mask-2)"></path>
                        <path d="M8.54377674,54 C7.77657073,54 7.13535923,53.5927098 7.09217801,53.0669279 C6.88751087,50.5512885 7.08626278,48.9671145 7.09513563,48.9016428 C7.16493541,48.3573842 7.88186192,47.9581274 8.66977125,48.0035158 C9.46951106,48.0509124 10.0616261,48.5305027 9.99241786,49.0727529 C9.99064328,49.0884179 9.80431337,50.5962752 9.99774157,52.9572729 C10.0421058,53.5023348 9.42751289,53.9682683 8.62540699,53.998795 C8.59760538,53.9991967 8.5703953,54 8.54377674,54" id="Fill-30" fill="#263357" mask="url(#mask-2)"></path>
                        <path d="M38,53 C38,44.8502744 34.1736835,39.0426645 26,37 C31.4000264,40.5149181 35.6798205,44.8502744 35.6798205,53 L38,53 Z" id="Fill-31" fill="#D31818" mask="url(#mask-2)"></path>
                        <path d="M14.0038454,38.9132218 C15.2895149,40.2521715 17.7865668,42.8141789 19.6036403,44.4472816 C21.7616145,42.3130127 23.6356567,40.0681599 24.5175321,38.9755911 C23.7974478,38.5292746 22.2064261,37.8653289 19.1137095,37.8653289 C16.8317714,37.8653289 15.0434101,38.4571739 14.0038454,38.9132218 Z M19.6783832,47 L19.0088871,46.4364645 C16.4676275,44.2960029 11.9370211,39.493566 11.7451505,39.2909764 L11,38.4991958 L11.9096761,37.8927537 C12.0249808,37.8157874 14.7945709,36 19.1137095,36 C24.8620788,36 26.463127,38.1006514 26.6262854,38.3403973 L27,38.8875664 L26.5957501,39.413061 C26.4781667,39.5661091 23.6844219,43.1883947 20.3114194,46.397539 L19.6783832,47 Z" id="Fill-33" fill="#263357" mask="url(#mask-2)"></path>
                        <polygon id="Fill-34" fill="#FFFFFF" mask="url(#mask-2)" points="15 39 24 39 24 26 15 26"></polygon>
                        <path d="M24.8272792,39 C24.1801129,39 23.6545585,38.5204377 23.6545585,37.9299058 L23.6545585,27.1401884 L16.3454415,27.1401884 L16.3454415,37.9299058 C16.3454415,38.5204377 15.820364,39 15.1727208,39 C14.5250775,39 14,38.5204377 14,37.9299058 L14,26.0700942 C14,25.4795623 14.5250775,25 15.1727208,25 L24.8272792,25 C25.4744456,25 26,25.4795623 26,26.0700942 L26,37.9299058 C26,38.5204377 25.4744456,39 24.8272792,39" id="Fill-35" fill="#263357" mask="url(#mask-2)"></path>
                        <path d="M31,23.9878543 C31,30.070222 26.5956504,35 21.1632596,35 L19.8367404,35 C14.4043496,35 10,30.070222 10,23.9878543 L10,14.0121457 C10,7.92977803 14.4043496,3 19.8367404,3 L21.1632596,3 C26.5956504,3 31,7.92977803 31,14.0121457 L31,23.9878543 Z" id="Fill-37" fill="#FFFFFF" mask="url(#mask-2)"></path>
                        <path d="M20.3141861,4.1843501 C15.3361673,4.1843501 11.2858914,8.60546048 11.2858914,14.0405748 L11.2858914,23.9585369 C11.2858914,29.3940954 15.3361673,33.8152057 20.3141861,33.8152057 L21.6858139,33.8152057 C26.6638327,33.8152057 30.7141086,29.3940954 30.7141086,23.9585369 L30.7141086,14.0405748 C30.7141086,8.60546048 26.6638327,4.1843501 21.6858139,4.1843501 L20.3141861,4.1843501 Z M21.6858139,36 L20.3141861,36 C14.075627,36 9,30.5977531 9,23.9585369 L9,14.0405748 C9,7.40180274 14.075627,2 20.3141861,2 L21.6858139,2 C27.924373,2 33,7.40180274 33,14.0405748 L33,23.9585369 C33,30.5977531 27.924373,36 21.6858139,36 Z" id="Fill-38" fill="#263357" mask="url(#mask-2)"></path>
                        <path d="M9.19781953,24 C9.19781953,24 5.41965977,20.5703176 5.08630654,17.1302009 C4.13601509,7.34290343 11.1894877,3 18.5429782,3 L18.5641062,3 C23.3681488,3 27.6026738,5.29734284 30,8.94795852 C25.0438357,14.8954634 20.1294579,11.3392093 11.0528598,12.6570966 C9.75512979,12.8458198 9.19781953,18.4381076 9.19781953,24" id="Fill-40" fill="#FFFFFF" mask="url(#mask-2)"></path>
                        <path d="M19.0126119,3.20891267 C15.2507542,3.20891267 11.9082219,4.52851117 9.82232433,6.83039759 C7.77487239,9.09006405 6.91744601,12.1716724 7.27373841,15.9912318 C7.40561577,17.3970669 8.21967909,18.845571 9.03821282,19.9778746 C9.32431964,10.9324715 10.960046,10.6849906 11.696771,10.5731526 C13.1729034,10.3499258 14.6816699,10.241681 16.3084554,10.241681 C17.5185978,10.241681 18.6151916,10.2987229 19.675575,10.3539681 C20.571894,10.4002304 21.4176973,10.4437978 22.2076204,10.4437978 C24.7137373,10.4437978 26.598913,10.0121661 28.5176169,7.91778628 C26.3391817,4.95475316 22.843314,3.20891267 19.0126119,3.20891267 M10.0945728,24 C9.82053616,24 9.54962876,23.8966958 9.34130723,23.7004179 C9.18260736,23.5499531 5.4377373,19.9756288 5.08546827,16.1969419 C4.67463676,11.7961842 5.75021959,8.04309873 8.19732699,5.34281753 C10.6989735,2.58279956 14.6329423,1 18.992495,1 C23.8800042,1 28.2976723,3.39261444 30.8292706,7.40171458 C31.0809552,7.8014568 31.0523445,8.31752851 30.7568498,8.68583034 C27.4259406,12.8431495 24.0123286,12.7892517 19.5620264,12.5597368 C18.5302536,12.5058389 17.4622705,12.4505937 16.3084554,12.4505937 C14.8756861,12.4505937 13.5457364,12.5404234 12.2502089,12.7250234 C11.813449,13.4688135 11.1938489,16.6896579 11.1938489,22.8955437 C11.1938489,23.3366076 10.9332235,23.7345532 10.5308858,23.9097211 C10.3905146,23.9708053 10.2416496,24 10.0945728,24" id="Fill-41" fill="#263357" mask="url(#mask-2)"></path>
                        <path d="M30.5521588,25 C30.5521588,25 34.8865945,19.412656 33.8357132,12.0087019 C32.9607285,5.84682492 26.6473428,0.643541238 18.2974245,1.01914605 C13.6215423,1.23008998 9.0527276,4.29545245 7,9.32339455 C12.0389222,16.1465852 16.3477157,19.0410564 26.8164915,19.1941465 C28.2128681,19.2132828 31.2089596,22.1424663 30.5521588,25" id="Fill-42" fill="#FFFFFF" mask="url(#mask-2)"></path>
                        <path d="M8.48546189,9.21061202 C13.1484239,15.1853372 17.1642903,17.8844823 27.4919901,18.0309065 C28.7977117,18.048548 30.1730779,19.1599606 31.0235726,20.1941919 C31.3962406,20.6462546 31.703415,21.1199281 31.9423284,21.6028633 C32.993455,19.4192903 34.09301,16.046682 33.5238611,12.1712919 C32.6899704,6.49603067 26.7097563,2.21576876 19.6115382,2.21576876 C19.3412617,2.21576876 19.068679,2.2210612 18.7933291,2.23341023 C14.4250884,2.42393812 10.4419688,5.14028362 8.48546189,9.21061202 M31.3044573,26 C31.1384171,26 30.970532,25.9660402 30.8127938,25.8950332 C30.320208,25.6740738 30.0554661,25.1540915 30.175384,24.6464581 C30.3870852,23.756887 30.0716089,22.6816393 29.3082852,21.6968042 C28.5389657,20.7018252 27.6824751,20.2621115 27.4555535,20.2462342 C15.9941682,20.0839327 11.3122961,16.6716312 6.22316432,10.0097707 C5.98655705,9.70104492 5.93443888,9.29661419 6.08433627,8.94246166 C8.27191576,3.76072059 13.2199134,0.258447551 18.6886315,0.0202876917 C18.9994956,0.00705658841 19.3057475,0 19.6115382,0 C27.8577397,0 34.8249705,5.10014927 35.8189055,11.8634482 C36.9502849,19.5727711 32.4183102,25.3260958 32.2245967,25.5669019 C31.9990587,25.8469602 31.655909,26 31.3044573,26" id="Fill-43" fill="#263357" mask="url(#mask-2)"></path>
                        <path d="M21.9097455,17 C21.8134773,17 21.7163219,16.9890443 21.6200537,16.9642924 C18.4205794,16.1596551 16.0480352,15.106688 14.367557,13.7449317 C13.9163832,13.3789293 13.8751254,12.7487721 14.2739506,12.3365121 C14.6736631,11.9238464 15.3635109,11.8852985 15.8137975,12.2508951 C17.2391873,13.4061157 19.3282506,14.3178757 22.1976627,15.0401421 C22.7788206,15.1862185 23.1204173,15.7360337 22.9607098,16.266372 C22.8271765,16.7098761 22.3884244,17 21.9097455,17" id="Fill-45" fill="#263357" mask="url(#mask-2)"></path>
                        <path d="M26.6520808,18 C26.6345253,18 26.6169698,18 26.5983171,17.9994194 C25.874702,17.969226 25.6964041,17.9442584 25.1093927,17.8327751 C24.3764512,17.6928404 23.8898352,16.9496186 24.0215013,16.1733003 C24.1548132,15.3964013 24.859227,14.886017 25.5894254,15.0218872 C26.0562915,15.1118867 26.1051177,15.121177 26.7041986,15.1455639 C27.4475636,15.176338 28.0285404,15.8394311 27.9989155,16.6285236 C27.9709365,17.396713 27.3729528,18 26.6520808,18" id="Fill-46" fill="#263357" mask="url(#mask-2)"></path>
                    </g>
                </g>
            </g>
        </g>
    </g>
</svg>