<?xml version="1.0" encoding="UTF-8"?>
<svg width="51px" height="49px" viewBox="0 0 51 49" version="1.1" xmlns="http://www.w3.org/2000/svg" xmlns:xlink="http://www.w3.org/1999/xlink">
    <!-- Generator: Sketch 49.2 (51160) - http://www.bohemiancoding.com/sketch -->
    <title>004-school</title>
    <desc>Created with Sketch.</desc>
    <defs>
        <polygon id="path-1" points="0.00746341463 0.0245901639 50.9504927 0.0245901639 50.9504927 44.8771721 0.00746341463 44.8771721"></polygon>
    </defs>
    <g id="Page-1" stroke="none" stroke-width="1" fill="none" fill-rule="evenodd">
        <g id="AEIS暑期集训班-Copy" transform="translate(-1085.000000, -1684.000000)">
            <g id="特点" transform="translate(379.000000, 1633.000000)">
                <g id="3" transform="translate(678.000000, 51.000000)">
                    <g id="004-school" transform="translate(28.000000, 0.000000)">
                        <path d="M32,46 L22,46 L22,37.4443769 C22,34.4376411 24.238691,32 27.000279,32 C29.7617554,32 32,34.4376411 32,37.4443769 L32,46 Z" id="Fill-1" fill="#D31818"></path>
                        <g id="Group-5" transform="translate(0.000000, 4.000000)">
                            <mask id="mask-2" fill="white">
                                <use xlink:href="#path-1"></use>
                            </mask>
                            <g id="Clip-3"></g>
                            <polygon id="Fill-2" fill="#D31818" mask="url(#mask-2)" points="49.3581732 14.1884016 44.5812146 0.0245901639 7.96097561 0.0245901639 3.18463902 14.1884016 21.0968341 14.1884016 26.2710951 9.46733607 31.445978 14.1884016"></polygon>
                            <path d="M50.154022,44.8771721 L0.79584878,44.8771721 C0.355631707,44.8771721 0,44.5251639 0,44.089918 C0,43.6547951 0.355631707,43.3032787 0.79584878,43.3032787 L50.154022,43.3032787 C50.594239,43.3032787 50.9504927,43.6547951 50.9504927,44.089918 C50.9504927,44.5251639 50.594239,44.8771721 50.154022,44.8771721 Z" id="Fill-4" fill="#1D1B4C" mask="url(#mask-2)"></path>
                        </g>
                        <path d="M46.1796156,48 L6.81974375,48 C6.36630938,48 6,47.6543277 6,47.226916 L6,14.773084 C6,14.345793 6.36630938,14 6.81974375,14 C7.27317812,14 7.64012813,14.345793 7.64012813,14.773084 L7.64012813,46.4544357 L45.3598719,46.4544357 L45.3598719,14.773084 C45.3598719,14.345793 45.7261813,14 46.1796156,14 C46.6331781,14 47,14.345793 47,14.773084 L47,47.226916 C47,47.6543277 46.6331781,48 46.1796156,48 Z" id="Fill-6" fill="#1D1B4C"></path>
                        <path d="M49.199625,16 L31.199625,16 C30.999,16 30.805625,15.9286265 30.65675,15.8004121 L26,11.7703314 L21.34325,15.8004121 C21.19425,15.9286265 21.0005,16 20.79975,16 L2.79975,16 C2.357375,16 2,15.6649315 2,15.2501685 C2,14.8354055 2.357375,14.499751 2.79975,14.499751 L20.48725,14.499751 L25.4565,10.1991777 C25.764625,9.93360745 26.234875,9.93360745 26.5425,10.1991777 L31.512625,14.499751 L49.199625,14.499751 C49.642125,14.499751 50,14.8354055 50,15.2501685 C50,15.6649315 49.642125,16 49.199625,16 Z" id="Fill-7" fill="#1D1B4C"></path>
                        <path d="M49.1998673,15 C48.8649954,15 48.5529983,14.8013672 48.4416244,14.4868359 L43.8235423,1.50011719 L8.17737359,1.50011719 L3.55879151,14.4868359 C3.41904281,14.8791797 2.97079698,15.0924609 2.54705092,14.9610937 C2.12855481,14.8306641 1.90155692,14.4058594 2.04118062,14.0121094 L6.841386,0.512226562 C6.95075999,0.206484375 7.25550716,0 7.60075395,0 L44.4001619,0 C44.7449087,0 45.0505309,0.206484375 45.1584049,0.513164063 L49.9587353,14.0130469 C50.098359,14.4058594 49.8722361,14.8311328 49.452865,14.9615625 C49.3688658,14.9872266 49.2833665,15 49.1998673,15 Z" id="Fill-8" fill="#1D1B4C"></path>
                        <path d="M31.187738,49 L19.812262,49 C19.3629661,49 19,48.6644922 19,48.2496484 L19,39.9998828 C19,36.6916797 21.9159163,34 25.5,34 C29.0839567,34 32,36.6916797 32,39.9998828 L32,48.2496484 C32,48.6644922 31.6370339,49 31.187738,49 Z M20.6245239,47.4998828 L30.3748413,47.4998828 L30.3748413,39.9998828 C30.3748413,37.5183203 28.1884119,35.5001172 25.5,35.5001172 C22.8110803,35.5001172 20.6245239,37.5183203 20.6245239,39.9998828 L20.6245239,47.4998828 Z" id="Fill-9" fill="#1D1B4C"></path>
                        <path d="M15.2502197,32 L10.7503662,32 C10.3355144,32 10,31.6344925 10,31.1820506 L10,23.8179494 C10,23.3655075 10.3355144,23 10.7503662,23 L15.2502197,23 C15.6649544,23 16,23.3655075 16,23.8179494 L16,31.1820506 C16,31.6344925 15.6649544,32 15.2502197,32 Z M11.5001465,30.363462 L14.5004395,30.363462 L14.5004395,24.6358987 L11.5001465,24.6358987 L11.5001465,30.363462 Z" id="Fill-10" fill="#1D1B4C"></path>
                        <path d="M15.2502197,43 L10.7503662,43 C10.3355144,43 10,42.6344925 10,42.1820506 L10,34.8179494 C10,34.3655075 10.3355144,34 10.7503662,34 L15.2502197,34 C15.6649544,34 16,34.3655075 16,34.8179494 L16,42.1820506 C16,42.6344925 15.6649544,43 15.2502197,43 Z M11.5001465,41.363462 L14.5004395,41.363462 L14.5004395,35.6358987 L11.5001465,35.6358987 L11.5001465,41.363462 Z" id="Fill-11" fill="#1D1B4C"></path>
                        <path d="M40.2502197,32 L35.7503662,32 C35.3355144,32 35,31.6344925 35,31.1820506 L35,23.8179494 C35,23.3655075 35.3355144,23 35.7503662,23 L40.2502197,23 C40.6649544,23 41,23.3655075 41,23.8179494 L41,31.1820506 C41,31.6344925 40.6649544,32 40.2502197,32 Z M36.5001465,30.363462 L39.5004395,30.363462 L39.5004395,24.6358987 L36.5001465,24.6358987 L36.5001465,30.363462 Z" id="Fill-12" fill="#1D1B4C"></path>
                        <path d="M40.2502197,43 L35.7503662,43 C35.3355144,43 35,42.6344925 35,42.1820506 L35,34.8179494 C35,34.3655075 35.3355144,34 35.7503662,34 L40.2502197,34 C40.6649544,34 41,34.3655075 41,34.8179494 L41,42.1820506 C41,42.6344925 40.6649544,43 40.2502197,43 Z M36.5001465,41.363462 L39.5004395,41.363462 L39.5004395,35.6358987 L36.5001465,35.6358987 L36.5001465,41.363462 Z" id="Fill-13" fill="#1D1B4C"></path>
                        <path d="M26.0003255,25 C23.2425489,25 21,22.7574353 21,20 C21,17.2425647 23.2425489,15 26.0003255,15 C28.7575813,15 31,17.2425647 31,20 C31,22.7574353 28.7575813,25 26.0003255,25 Z M26.0003255,16.6662326 C24.1616776,16.6662326 22.6667752,18.1617532 22.6667752,20 C22.6667752,21.8382468 24.1616776,23.3337674 26.0003255,23.3337674 C27.8384526,23.3337674 29.3332248,21.8382468 29.3332248,20 C29.3332248,18.1617532 27.8384526,16.6662326 26.0003255,16.6662326 Z" id="Fill-14" fill="#1D1B4C"></path>
                        <path d="M26.0003906,28 C25.7404109,28 25.4791813,27.8894328 25.2906023,27.7082473 C25.1093665,27.5171532 25,27.2554409 25,26.9937285 C25,26.7210066 25.1093665,26.4690455 25.2906023,26.2792097 C25.6702601,25.9069301 26.3298961,25.9069301 26.7101789,26.2792097 C26.8901648,26.4690455 27,26.7320161 27,26.9937285 C27,27.2554409 26.8901648,27.5171532 26.7101789,27.7082473 C26.52035,27.8894328 26.2603703,28 26.0003906,28 Z" id="Fill-15" fill="#1D1B4C"></path>
                        <path d="M26.0003906,32 C25.7404109,32 25.4791813,31.8892529 25.2906023,31.7077725 C25.1093665,31.5163674 25,31.2542291 25,30.9920908 C25,30.7187674 25.1093665,30.4665538 25.2906023,30.2757789 C25.6604172,29.9132907 26.340364,29.9028934 26.7101789,30.2757789 C26.8901648,30.4665538 27,30.7187674 27,30.9920908 C27,31.2542291 26.8901648,31.5163674 26.7101789,31.7077725 C26.52035,31.8892529 26.2603703,32 26.0003906,32 Z" id="Fill-16" fill="#1D1B4C"></path>
                        <path d="M28.9996094,28 C28.7396297,28 28.4790251,27.8894328 28.2898211,27.7082473 C28.1092102,27.5171532 28,27.2554409 28,26.9937285 C28,26.7320161 28.1092102,26.4690455 28.2898211,26.2792097 C28.6701039,25.9069301 29.3395828,25.9069301 29.7100227,26.2792097 C29.8901648,26.4690455 30,26.7320161 30,26.9937285 C30,27.2554409 29.8901648,27.5171532 29.699711,27.7082473 C29.519725,27.8894328 29.270057,28 28.9996094,28 Z" id="Fill-17" fill="#1D1B4C"></path>
                        <path d="M28.9996094,32 C28.7396297,32 28.4790251,31.8894676 28.2898211,31.7083391 C28.1092102,31.5173051 28,31.255675 28,30.9940449 C28,30.7212515 28.1092102,30.4602504 28.2898211,30.2791219 C28.6597922,29.9069594 29.3395828,29.9069594 29.7100227,30.2791219 C29.8901648,30.4695269 30,30.7212515 30,30.9940449 C30,31.255675 29.8901648,31.5173051 29.7100227,31.7083391 C29.519725,31.8894676 29.2595891,32 28.9996094,32 Z" id="Fill-18" fill="#1D1B4C"></path>
                        <path d="M22.9996094,28 C22.7396297,28 22.4790251,27.8894328 22.2898211,27.7082473 C22.1085853,27.5171532 22,27.2554409 22,26.9937285 C22,26.7320161 22.1085853,26.4690455 22.2898211,26.2792097 C22.6701039,25.9069301 23.3297399,25.9069301 23.7093977,26.2792097 C23.8895399,26.4690455 24,26.7320161 24,26.9937285 C24,27.2554409 23.8895399,27.5171532 23.7093977,27.7082473 C23.5195688,27.8894328 23.2595891,28 22.9996094,28 Z" id="Fill-19" fill="#1D1B4C"></path>
                        <path d="M22.9996094,32 C22.7396297,32 22.4790251,31.8894676 22.2898211,31.7083391 C22.0999922,31.5173051 22,31.255675 22,30.9940449 C22,30.7212515 22.1085853,30.4695269 22.2898211,30.2791219 C22.659636,29.9069594 23.3297399,29.9069594 23.7093977,30.2791219 C23.8895399,30.4695269 24,30.7212515 24,30.9940449 C24,31.255675 23.8895399,31.5173051 23.7093977,31.7083391 C23.5195688,31.8894676 23.2595891,32 22.9996094,32 Z" id="Fill-20" fill="#1D1B4C"></path>
                        <path d="M31.187738,41 L19.812262,41 C19.3629661,41 19,40.5531416 19,40 C19,39.4468584 19.3629661,39 19.812262,39 L31.187738,39 C31.6370339,39 32,39.4468584 32,40 C32,40.5531416 31.6370339,41 31.187738,41 Z" id="Fill-21" fill="#1D1B4C"></path>
                        <path d="M26.0003906,41 C25.447465,41 25,40.652534 25,40.2224248 L25,34.7775752 C25,34.347466 25.447465,34 26.0003906,34 C26.5533161,34 27,34.347466 27,34.7775752 L27,40.2224248 C27,40.652534 26.5533161,41 26.0003906,41 Z" id="Fill-22" fill="#1D1B4C"></path>
                    </g>
                </g>
            </g>
        </g>
    </g>
</svg>