<?xml version="1.0" encoding="UTF-8"?>
<svg width="54px" height="50px" viewBox="0 0 54 50" version="1.1" xmlns="http://www.w3.org/2000/svg" xmlns:xlink="http://www.w3.org/1999/xlink">
    <!-- Generator: Sketch 49.2 (51160) - http://www.bohemiancoding.com/sketch -->
    <title>009-chart</title>
    <desc>Created with Sketch.</desc>
    <defs>
        <polygon id="path-1" points="0.00791666667 0.0855714286 38 0.0855714286 38 1.91428571 0.00791666667 1.91428571"></polygon>
    </defs>
    <g id="Page-1" stroke="none" stroke-width="1" fill="none" fill-rule="evenodd">
        <g id="AEIS暑期集训班-Copy" transform="translate(-783.000000, -1681.000000)">
            <g id="特点" transform="translate(379.000000, 1633.000000)">
                <g id="2" transform="translate(377.000000, 48.000000)">
                    <g id="009-chart" transform="translate(27.000000, 0.000000)">
                        <path d="M33,20.5 C33,21.3284509 32.3284509,22 31.5,22 C30.6714319,22 30,21.3284509 30,20.5 C30,19.6715491 30.6714319,19 31.5,19 C32.3284509,19 33,19.6715491 33,20.5 Z" id="Fill-1" fill="#C0C0C0"></path>
                        <path d="M47,9.499707 C47,10.3284369 46.3284369,11 45.500293,11 C44.6715631,11 44,10.3284369 44,9.499707 C44,8.67156307 44.6715631,8 45.500293,8 C46.3284369,8 47,8.67156307 47,9.499707 Z" id="Fill-2" fill="#C0C0C0"></path>
                        <path d="M11,23.5 C11,24.3285681 10.3284509,25 9.5,25 C8.67143192,25 8,24.3285681 8,23.5 C8,22.6715491 8.67143192,22 9.5,22 C10.3284509,22 11,22.6715491 11,23.5 Z" id="Fill-3" fill="#C0C0C0"></path>
                        <path d="M20,50 L8,50 L8,45.8333876 C8,42.6116847 10.6864132,40 14,40 C17.3135868,40 20,42.6116847 20,45.8333876 L20,50 Z" id="Fill-4" fill="#D31818"></path>
                        <path d="M36,50 L24,50 L24,45.8333876 C24,42.6116847 26.6864132,40 30,40 C33.3135868,40 36,42.6116847 36,45.8333876 L36,50 Z" id="Fill-5" fill="#D31818"></path>
                        <path d="M51,50 L39,50 L39,45.8333876 C39,42.6116847 41.6864132,40 45,40 C48.3135868,40 51,42.6116847 51,45.8333876 L51,50 Z" id="Fill-6" fill="#D31818"></path>
                        <path d="M22.1245727,34 L16.8747436,34 C16.3908865,34 16,33.5520662 16,33.0003906 C16,32.4479338 16.3908865,32 16.8747436,32 L22.1245727,32 C22.6085666,32 23,32.4479338 23,33.0003906 C23,33.5520662 22.6085666,34 22.1245727,34 Z" id="Fill-7" fill="#1D1B4C"></path>
                        <path d="M53.1107253,34 L46.8885803,34 C46.3970695,34 46,33.5520662 46,33.0003906 C46,32.4479338 46.3970695,32 46.8885803,32 L53.1107253,32 C53.602236,32 54,32.4479338 54,33.0003906 C54,33.5520662 53.602236,34 53.1107253,34 Z" id="Fill-8" fill="#1D1B4C"></path>
                        <g id="Group-12" transform="translate(0.000000, 32.000000)">
                            <mask id="mask-2" fill="white">
                                <use xlink:href="#path-1"></use>
                            </mask>
                            <g id="Clip-10"></g>
                            <path d="M37.1558194,1.91428571 L32.0887569,1.91428571 C31.6218056,1.91428571 31.2445764,1.50471429 31.2445764,1.00028571 C31.2445764,0.495142857 31.6218056,0.0855714286 32.0887569,0.0855714286 L37.1558194,0.0855714286 C37.6227708,0.0855714286 38,0.495142857 38,1.00028571 C38,1.50471429 37.6227708,1.91428571 37.1558194,1.91428571 Z" id="Fill-9" fill="#1D1B4C" mask="url(#mask-2)"></path>
                            <path d="M6.75542361,1.91428571 L0.844180556,1.91428571 C0.377229167,1.91428571 0,1.50471429 0,1.00028571 C0,0.495142857 0.377229167,0.0855714286 0.844180556,0.0855714286 L6.75542361,0.0855714286 C7.222375,0.0855714286 7.60026389,0.495142857 7.60026389,1.00028571 C7.60026389,1.50471429 7.222375,1.91428571 6.75542361,1.91428571 Z" id="Fill-11" fill="#1D1B4C" mask="url(#mask-2)"></path>
                        </g>
                        <path d="M22.1245727,34 L16.8747436,34 C16.3908865,34 16,33.5520662 16,33.0003906 C16,32.4479338 16.3908865,32 16.8747436,32 L22.1245727,32 C22.6085666,32 23,32.4479338 23,33.0003906 C23,33.5520662 22.6085666,34 22.1245727,34 Z" id="Fill-13" fill="#1D1B4C"></path>
                        <path d="M51.1554341,34 L47.7758507,34 C47.3086862,34 46.9312848,33.6192266 46.9312848,33.1502656 C46.9312848,32.6806406 47.3086862,32.2998672 47.7758507,32.2998672 L50.3108683,32.2998672 L50.3108683,1.70013281 L4.68979173,1.70013281 L4.68979173,32.2998672 L7.22414931,32.2998672 C7.69131382,32.2998672 8.06937519,32.6806406 8.06937519,33.1502656 C8.06937519,33.6192266 7.69131382,34 7.22414931,34 L3.84522588,34 C3.37792936,34 3,33.6192266 3,33.1502656 L3,0.849734375 C3,0.380773438 3.37792936,0 3.84522588,0 L51.1554341,0 C51.6225987,0 52,0.380773438 52,0.849734375 L52,33.1502656 C52,33.6192266 51.6225987,34 51.1554341,34 Z" id="Fill-14" fill="#1D1B4C"></path>
                        <path d="M37.1252564,34 L31.8747436,34 C31.3908865,34 31,33.5520662 31,33.0003906 C31,32.4479338 31.3908865,32 31.8747436,32 L37.1252564,32 C37.6091135,32 38,32.4479338 38,33.0003906 C38,33.5520662 37.6091135,34 37.1252564,34 Z" id="Fill-15" fill="#1D1B4C"></path>
                        <path d="M12.0003348,39 C8.69218835,39 6,36.3088831 6,33.0003348 C6,29.6912508 8.69218835,27 12.0003348,27 C15.3078116,27 18,29.6912508 18,33.0003348 C18,36.3088831 15.3078116,39 12.0003348,39 Z M12.0003348,28.714477 C9.63708606,28.714477 7.71447705,30.6370861 7.71447705,33.0003348 C7.71447705,35.3634497 9.63708606,37.2861926 12.0003348,37.2861926 C14.3634497,37.2861926 16.2861926,35.3634497 16.2861926,33.0003348 C16.2861926,30.6370861 14.3634497,28.714477 12.0003348,28.714477 Z" id="Fill-16" fill="#1D1B4C"></path>
                        <path d="M27,39 C23.692172,39 21,36.3088831 21,33.0003348 C21,29.6912508 23.692172,27 27,27 C30.3072922,27 33,29.6912508 33,33.0003348 C33,36.3088831 30.3072922,39 27,39 Z M27,28.714477 C24.6368831,28.714477 22.7143814,30.6370861 22.7143814,33.0003348 C22.7143814,35.3634497 24.6368831,37.2861926 27,37.2861926 C29.362983,37.2861926 31.2856186,35.3634497 31.2856186,33.0003348 C31.2856186,30.6370861 29.362983,28.714477 27,28.714477 Z" id="Fill-17" fill="#1D1B4C"></path>
                        <path d="M42,39 C38.692172,39 36,36.3088831 36,33.0003348 C36,29.6912508 38.692172,27 42,27 C45.307828,27 48,29.6912508 48,33.0003348 C48,36.3088831 45.307828,39 42,39 Z M42,28.714477 C39.6368831,28.714477 37.7143814,30.6370861 37.7143814,33.0003348 C37.7143814,35.3634497 39.6368831,37.2861926 42,37.2861926 C44.3631169,37.2861926 46.2856186,35.3634497 46.2856186,33.0003348 C46.2856186,30.6370861 44.3631169,28.714477 42,28.714477 Z" id="Fill-18" fill="#1D1B4C"></path>
                        <path d="M18.1246155,49 L5.87538451,49 C5.39155103,49 5,48.6160139 5,48.1430963 L5,43.8572385 C5,40.0761744 8.14074783,37 12.0003418,37 C15.859799,37 19,40.0761744 19,43.8572385 L19,48.1430963 C19,48.6160139 18.6085857,49 18.1246155,49 Z M6.75008545,47.285523 L17.2499146,47.285523 L17.2499146,43.8572385 C17.2499146,41.0205364 14.8952765,38.7138074 12.0003418,38.7138074 C9.10472349,38.7138074 6.75008545,41.0205364 6.75008545,43.8572385 L6.75008545,47.285523 Z" id="Fill-19" fill="#1D1B4C"></path>
                        <path d="M33.1252564,49 L20.8747436,49 C20.3908865,49 20,48.6160139 20,48.1430963 L20,43.8572385 C20,40.0761744 23.1402176,37 27,37 C30.8596457,37 34,40.0761744 34,43.8572385 L34,48.1430963 C34,48.6160139 33.6091135,49 33.1252564,49 Z M21.7494873,47.285523 L32.2498291,47.285523 L32.2498291,43.8572385 C32.2498291,41.0205364 29.8952128,38.7138074 27,38.7138074 C24.1042403,38.7138074 21.7494873,41.0205364 21.7494873,43.8572385 L21.7494873,47.285523 Z" id="Fill-20" fill="#1D1B4C"></path>
                        <path d="M48.1252564,49 L35.8747436,49 C35.3908865,49 35,48.6160139 35,48.1430963 L35,43.8572385 C35,40.0761744 38.1403543,37 42,37 C45.8596457,37 49,40.0761744 49,43.8572385 L49,48.1430963 C49,48.6160139 48.6091135,49 48.1252564,49 Z M36.7501709,47.285523 L47.2498291,47.285523 L47.2498291,43.8572385 C47.2498291,41.0205364 44.8952128,38.7138074 42,38.7138074 C39.1047872,38.7138074 36.7501709,41.0205364 36.7501709,43.8572385 L36.7501709,47.285523 Z" id="Fill-21" fill="#1D1B4C"></path>
                        <path d="M30.8798344,20 C30.6259144,20 30.3741929,19.8895388 30.2002412,19.6751633 C29.891635,19.2947478 29.945909,18.7332483 30.3204684,18.420391 L42.561665,8.20391465 C42.9380107,7.88994299 43.4902317,7.94496464 43.7999371,8.3246837 C44.1085433,8.70565642 44.0538571,9.26715587 43.6791602,9.58001317 L31.4385133,19.7964895 C31.2737676,19.9329989 31.0767323,20 30.8798344,20 Z" id="Fill-22" fill="#1D1B4C"></path>
                        <path d="M9.79934714,22 C9.59448557,22 9.39012335,21.9164773 9.23407401,21.7510252 C8.92197533,21.4185277 8.92197533,20.8816717 9.23407401,20.549307 L16.0973737,13.249101 C16.3348184,12.9960098 16.696728,12.9285543 16.9999631,13.0800637 L27.5386617,18.3151733 C27.9390219,18.513822 28.1116749,19.019606 27.9244157,19.4454524 C27.7386545,19.8702366 27.263141,20.0565361 26.8627808,19.8557628 L16.8308056,14.8721509 L10.3629974,21.7510252 C10.2079467,21.9164773 10.0035845,22 9.79934714,22 Z" id="Fill-23" fill="#1D1B4C"></path>
                        <path d="M30.4996745,22 C29.1213968,22 28,20.8784572 28,19.5 C28,18.1215428 29.1213968,17 30.4996745,17 C31.8779522,17 33,18.1215428 33,19.5 C33,20.8784572 31.8779522,22 30.4996745,22 Z M30.4996745,18.6668837 C30.0399448,18.6668837 29.6666667,19.0407313 29.6666667,19.5 C29.6666667,19.9593989 30.0399448,20.3337674 30.4996745,20.3337674 C30.9600552,20.3337674 31.3333333,19.9593989 31.3333333,19.5 C31.3333333,19.0407313 30.9600552,18.6668837 30.4996745,18.6668837 Z" id="Fill-24" fill="#1D1B4C"></path>
                        <path d="M44.5,10 C43.1215428,10 42,8.87847304 42,7.5003255 C42,6.12204776 43.1215428,5 44.5,5 C45.8784572,5 47,6.12204776 47,7.5003255 C47,8.87847304 45.8784572,10 44.5,10 Z M44.5,6.66666667 C44.0402104,6.66666667 43.6668837,7.04098638 43.6668837,7.5003255 C43.6668837,7.95901362 44.0402104,8.33333333 44.5,8.33333333 C44.9603104,8.33333333 45.3337674,7.95901362 45.3337674,7.5003255 C45.3337674,7.04098638 44.9603104,6.66666667 44.5,6.66666667 Z" id="Fill-25" fill="#1D1B4C"></path>
                        <path d="M9.4996745,24 C8.12139677,24 7,22.8779522 7,21.4996745 C7,20.1213968 8.12139677,19 9.4996745,19 C10.8779522,19 12,20.1213968 12,21.4996745 C12,22.8779522 10.8779522,24 9.4996745,24 Z M9.4996745,20.6666667 C9.0399448,20.6666667 8.66666667,21.0409864 8.66666667,21.4996745 C8.66666667,21.9590136 9.0399448,22.3333333 9.4996745,22.3333333 C9.9600552,22.3333333 10.3333333,21.9590136 10.3333333,21.4996745 C10.3333333,21.0409864 9.9600552,20.6666667 9.4996745,20.6666667 Z" id="Fill-26" fill="#1D1B4C"></path>
                        <path d="M6.99960941,5 C6.73962972,5 6.47902508,4.88943281 6.28982111,4.70824732 C6.10858527,4.51715325 6,4.25544087 6,3.9937285 C6,3.73201612 6.10858527,3.47030375 6.28982111,3.27920967 C6.6701039,2.90693011 7.33958285,2.90693011 7.7093977,3.27920967 C7.88953988,3.47030375 8,3.73201612 8,3.9937285 C8,4.25544087 7.88953988,4.51715325 7.7093977,4.70824732 C7.51956878,4.88943281 7.25958909,5 6.99960941,5 Z" id="Fill-27" fill="#1D1B4C"></path>
                        <path d="M10.0003906,5 C9.74041091,5 9.47918131,4.88943281 9.2906023,4.70824732 C9.10936646,4.51715325 9,4.25544087 9,3.9937285 C9,3.73201612 9.10936646,3.47030375 9.2906023,3.27920967 C9.67026014,2.90693011 10.340364,2.90693011 10.7101789,3.27920967 C10.8901648,3.47030375 11,3.72210754 11,3.9937285 C11,4.25544087 10.8901648,4.51715325 10.7101789,4.70824732 C10.52035,4.88943281 10.270057,5 10.0003906,5 Z" id="Fill-28" fill="#1D1B4C"></path>
                        <path d="M13.9996094,5 C13.7396297,5 13.4790251,4.88943281 13.2898211,4.70824732 C13.1092102,4.51715325 13,4.25544087 13,3.9937285 C13,3.73201612 13.1092102,3.47030375 13.2898211,3.27920967 C13.6597922,2.90693011 14.3395828,2.90693011 14.7100227,3.27920967 C14.8901648,3.47030375 15,3.73201612 15,3.9937285 C15,4.25544087 14.8901648,4.51715325 14.7100227,4.70824732 C14.519725,4.88943281 14.2595891,5 13.9996094,5 Z" id="Fill-29" fill="#1D1B4C"></path>
                        <path d="M17,5 C16.7289778,5 16.4785871,4.88943281 16.2899344,4.70824732 C16.1086277,4.51715325 16,4.25544087 16,3.9937285 C16,3.73201612 16.1086277,3.47030375 16.2899344,3.27920967 C16.6598937,2.90693011 17.3401063,2.90693011 17.7100656,3.27920967 C17.8901219,3.47030375 18,3.73201612 18,3.9937285 C18,4.25544087 17.8901219,4.51715325 17.7100656,4.70824732 C17.5201626,4.88943281 17.2699281,5 17,5 Z" id="Fill-30" fill="#1D1B4C"></path>
                        <path d="M20.0003906,5 C19.7404109,5 19.4791813,4.88943281 19.2899773,4.70824732 C19.1092102,4.51715325 19,4.26534945 19,3.9937285 C19,3.73201612 19.1092102,3.47030375 19.2899773,3.27920967 C19.6604172,2.90693011 20.3298961,2.90693011 20.7101789,3.27920967 C20.8901648,3.47030375 21,3.73201612 21,3.9937285 C21,4.25544087 20.8901648,4.51715325 20.7101789,4.70824732 C20.52035,4.88943281 20.2603703,5 20.0003906,5 Z" id="Fill-31" fill="#1D1B4C"></path>
                        <path d="M6.99960941,9 C6.73962972,9 6.47902508,8.8894741 6.28982111,8.70835626 C6.10858527,8.51733354 6,8.25571889 6,7.99410424 C6,7.73233236 6.10858527,7.47071771 6.28982111,7.27922333 C6.65963597,6.90692556 7.33958285,6.90692556 7.7093977,7.27922333 C7.88953988,7.47071771 8,7.73233236 8,7.99410424 C8,8.25571889 7.88953988,8.51733354 7.7093977,8.70835626 C7.51956878,8.8894741 7.27005703,9 6.99960941,9 Z" id="Fill-32" fill="#1D1B4C"></path>
                        <path d="M10.0003906,9 C9.74041091,9 9.47918131,8.8894741 9.2906023,8.70835626 C9.10936646,8.51733354 9,8.25571889 9,7.99410424 C9,7.73233236 9.10014843,7.47071771 9.2906023,7.27922333 C9.67026014,6.90692556 10.340364,6.90692556 10.7101789,7.27922333 C10.8901648,7.47071771 11,7.73233236 11,7.99410424 C11,8.26546655 10.8901648,8.51733354 10.7101789,8.70835626 C10.52035,8.8894741 10.2603703,9 10.0003906,9 Z" id="Fill-33" fill="#1D1B4C"></path>
                        <path d="M13.9996094,9 C13.7286931,9 13.4790251,8.8894741 13.2898211,8.70835626 C13.1092102,8.51733354 13,8.26546655 13,7.99410424 C13,7.72195582 13.1092102,7.47071771 13.2898211,7.27922333 C13.6597922,6.90692556 14.3395828,6.90692556 14.7100227,7.27922333 C14.8901648,7.47071771 15,7.72195582 15,7.99410424 C15,8.25571889 14.8901648,8.51733354 14.7100227,8.70835626 C14.519725,8.8894741 14.270057,9 13.9996094,9 Z" id="Fill-34" fill="#1D1B4C"></path>
                        <path d="M17,9 C16.7399187,9 16.4785871,8.8894741 16.2899344,8.70835626 C16.1086277,8.51733354 16,8.25571889 16,7.99410424 C16,7.73233236 16.1086277,7.47071771 16.2899344,7.27922333 C16.6598937,6.90692556 17.3401063,6.90692556 17.7100656,7.27922333 C17.8901219,7.47071771 18,7.73233236 18,7.99410424 C18,8.25571889 17.8901219,8.51733354 17.7100656,8.70835626 C17.5201626,8.8894741 17.2600813,9 17,9 Z" id="Fill-35" fill="#1D1B4C"></path>
                        <path d="M20.0003906,9 C19.7404109,9 19.4791813,8.8894741 19.2899773,8.70835626 C19.1092102,8.51733354 19,8.26546655 19,7.99410424 C19,7.73233236 19.1092102,7.47071771 19.2899773,7.27922333 C19.6604172,6.90692556 20.3298961,6.90692556 20.7101789,7.27922333 C20.8901648,7.47071771 21,7.73233236 21,7.99410424 C21,8.25571889 20.8901648,8.51733354 20.7101789,8.70835626 C20.52035,8.8894741 20.2603703,9 20.0003906,9 Z" id="Fill-36" fill="#1D1B4C"></path>
                        <path d="M6.99960941,12 C6.73962972,12 6.47902508,11.8888474 6.28982111,11.7075759 C6.10858527,11.5165569 6,11.2549474 6,10.9933379 C6,10.7317284 6.09999219,10.4701189 6.28982111,10.2790999 C6.6701039,9.90696669 7.33958285,9.90696669 7.7093977,10.2790999 C7.88953988,10.4701189 8,10.7317284 8,10.9933379 C8,11.2549474 7.88953988,11.5165569 7.7093977,11.7075759 C7.51956878,11.8888474 7.25958909,12 6.99960941,12 Z" id="Fill-37" fill="#1D1B4C"></path>
                        <path d="M10.0003906,12 C9.74041091,12 9.47918131,11.8888474 9.2906023,11.7075759 C9.10936646,11.5165569 9,11.2549474 9,10.9933379 C9,10.7317284 9.10936646,10.4701189 9.2906023,10.2790999 C9.67026014,9.90696669 10.340364,9.90696669 10.7101789,10.2790999 C10.8901648,10.4701189 11,10.7219809 11,10.9933379 C11,11.2549474 10.8901648,11.5165569 10.7101789,11.7075759 C10.52035,11.8888474 10.270057,12 10.0003906,12 Z" id="Fill-38" fill="#1D1B4C"></path>
                        <path d="M13.9996094,12 C13.7286931,12 13.4790251,11.8888474 13.2898211,11.7075759 C13.1092102,11.5165569 13,11.265481 13,10.9933379 C13,10.7219809 13.1092102,10.4701189 13.2898211,10.2790999 C13.6486993,9.90696669 14.3395828,9.90696669 14.7100227,10.2790999 C14.8901648,10.4701189 15,10.7317284 15,10.9933379 C15,11.265481 14.8901648,11.5165569 14.7100227,11.7075759 C14.519725,11.8888474 14.2595891,12 13.9996094,12 Z" id="Fill-39" fill="#1D1B4C"></path>
                        <path d="M6.99960941,16 C6.73962972,16 6.47902508,15.8894589 6.28982111,15.7083161 C6.10858527,15.5172671 6,15.2556165 6,14.9939658 C6,14.7323152 6.10858527,14.4706645 6.28982111,14.2796155 C6.6701039,13.9067948 7.33958285,13.9067948 7.7093977,14.2796155 C7.88953988,14.4706645 8,14.7323152 8,14.9939658 C8,15.2556165 7.88953988,15.5172671 7.7093977,15.7083161 C7.51956878,15.8894589 7.27005703,16 6.99960941,16 Z" id="Fill-40" fill="#1D1B4C"></path>
                        <path d="M10.0003906,16 C9.74041091,16 9.47918131,15.8894589 9.2906023,15.7083161 C9.10936646,15.5172671 9,15.2556165 9,14.9939658 C9,14.7323152 9.10936646,14.4706645 9.2906023,14.2796155 C9.67026014,13.9067948 10.340364,13.9067948 10.7101789,14.2796155 C10.8901648,14.4706645 11,14.7323152 11,14.9939658 C11,15.2653655 10.8901648,15.5172671 10.7101789,15.7083161 C10.52035,15.8894589 10.2603703,16 10.0003906,16 Z" id="Fill-41" fill="#1D1B4C"></path>
                    </g>
                </g>
            </g>
        </g>
    </g>
</svg>