<?xml version="1.0" encoding="UTF-8"?>
<svg width="50px" height="49px" viewBox="0 0 50 49" version="1.1" xmlns="http://www.w3.org/2000/svg" xmlns:xlink="http://www.w3.org/1999/xlink">
    <!-- Generator: Sketch 49.2 (51160) - http://www.bohemiancoding.com/sketch -->
    <title>Page 1</title>
    <desc>Created with Sketch.</desc>
    <defs>
        <polygon id="path-1" points="8.12644511e-05 0.114835523 44.933765 0.114835523 44.933765 37.6235294 8.12644511e-05 37.6235294"></polygon>
        <polygon id="path-3" points="0.135245455 0.000104452177 18 0.000104452177 18 42.9826958 0.135245455 42.9826958"></polygon>
    </defs>
    <g id="Page-1" stroke="none" stroke-width="1" fill="none" fill-rule="evenodd">
        <g id="AEIS暑期集训班-Copy" transform="translate(-845.000000, -3172.000000)">
            <g id="课程内容" transform="translate(0.000000, 1897.000000)">
                <g id="考前诊断" transform="translate(472.000000, 1275.000000)">
                    <g id="Page-1" transform="translate(373.000000, 0.000000)">
                        <g id="Group-3" transform="translate(0.000000, 11.011765)">
                            <mask id="mask-2" fill="white">
                                <use xlink:href="#path-1"></use>
                            </mask>
                            <g id="Clip-2"></g>
                            <path d="M44.933765,33.2102703 L41.9853318,37.1979825 C41.9133733,37.2978663 41.8200553,37.3841903 41.7055853,37.4561906 C41.2300783,37.756224 40.5803779,37.6416345 40.255424,37.2021841 L37.2972442,33.2095064 L39.263765,32.1718991 L42.9647558,32.1718991 L44.933765,33.2102703 Z M3.9416682,6.95878689 C4.87049309,8.05368889 7.21111521,10.9644514 10.2889493,12.9315699 C14.881023,5.75235117 18.4685806,3.20101752 26.0105392,0.263135527 C27.6195484,-0.363477671 29.1234194,1.13726189 27.7418986,2.12234902 C20.720447,7.12780629 17.8288341,9.92474329 14.7769217,16.2724247 C13.1492488,19.6573965 10.4641797,20.269686 7.66526267,17.7809946 C5.25828111,15.640846 3.6484424,14.5323843 0.299778802,9.8888386 C-1.09999078,7.94692973 2.79427189,5.60510376 3.9416682,6.95878689 Z" id="Fill-1" fill="#D31A1A" mask="url(#mask-2)"></path>
                        </g>
                        <g id="Group-6" transform="translate(32.000000, 0.000000)">
                            <mask id="mask-4" fill="white">
                                <use xlink:href="#path-3"></use>
                            </mask>
                            <g id="Clip-5"></g>
                            <path d="M13.2257455,15.2858235 L13.2257455,35.4487285 C14.2484727,34.8515667 14.8970864,34.3494035 15.9061091,34.7850676 L15.9374045,15.2858235 L13.2257455,15.2858235 Z M15.9173591,36.510624 C14.6031545,35.6130763 14.3231318,36.4156253 12.9999273,37.2637738 C12.5660864,37.54174 12.3237,37.54174 11.8362682,37.1480653 C9.92090455,35.6014864 7.8147,35.6100363 6.07647273,37.2326142 C5.75554091,37.5455399 5.24663182,37.5168503 4.96742727,37.1568052 C4.21633636,36.2480476 3.18522273,36.2286679 2.14797273,36.5619233 L6.13108636,42.0216889 L4.35092727,42.9826958 L0.306245455,37.3754922 C0.170018182,37.2126645 0.135245455,37.0078473 0.135245455,36.7849803 L0.135245455,6.31167592 C0.135245455,4.50841051 1.14365455,2.89666249 2.84608636,1.75002813 C6.31047273,-0.583520041 11.7967909,-0.583330044 15.2601545,1.75135811 C16.9629955,2.89894246 18.0000409,4.50765052 18.0000409,6.31167592 L17.9867455,36.7258911 C18.00045,36.9310883 17.9409273,37.1423654 17.8073591,37.3255229 L13.6833136,42.9811758 L11.9025409,42.0199789 L15.9173591,36.510624 Z M2.1807,35.1462526 C2.1807,34.8815863 4.02140455,35.0174344 5.04413182,35.4188989 L5.04413182,15.2858235 L2.1807,15.2858235 L2.1807,35.1451127 L2.1807,35.1462526 Z M5.04413182,12.4358624 L5.04413182,6.81782901 C5.04413182,4.94369457 2.1807,5.01076366 2.1807,6.96355703 L2.1807,12.4358624 L5.04413182,12.4358624 Z M2.85774545,4.32487301 C5.42397273,1.15400626 12.4687227,1.11600678 15.1179955,4.25419398 C14.0658136,3.96159797 13.0766318,4.35166265 12.4327227,5.17530141 C10.8117,3.81890991 7.40151818,3.8202399 5.78376818,5.17834137 C5.08688182,4.2821236 3.95145,3.91257864 2.85774545,4.32487301 Z M15.9089727,7.0239762 C15.9093818,4.97295417 13.2257455,5.11697221 13.2257455,6.81782901 L13.2257455,12.4358624 L15.9378136,12.4358624 L15.9089727,7.0239762 Z M6.27140455,15.2858235 L6.27140455,35.3869794 C8.11231364,34.315014 10.1577682,34.4033628 11.9984727,35.4504385 L11.9984727,15.2858235 L6.27140455,15.2858235 Z M6.27140455,12.4358624 L11.9984727,12.4358624 L11.9984727,6.73594013 C11.9984727,5.02596345 6.27140455,5.02596345 6.27140455,6.73594013 L6.27140455,12.4358624 Z" id="Fill-4" fill="#3B4552" mask="url(#mask-4)"></path>
                        </g>
                        <path d="M3.46864239,12.8470588 C2.63216112,12.8470588 2,13.5611087 2,14.322053 L2,16.8934678 C2.62610873,16.6626024 3.25221747,16.5729902 3.66962329,16.6757025 L3.66962329,14.5557662 L17.5368882,14.5557662 C18.439737,13.9861971 19.4064489,13.4166279 20.4624857,12.8470588 L3.46864239,12.8470588 Z M26,16.6563371 L26,33.5746286 C26,34.3344338 25.4064489,34.8705882 24.5708025,34.8705882 L3.46864239,34.8705882 C2.62736095,34.8705882 2,34.3391802 2,33.5746286 L2,24.9828682 C2.41740582,25.6950195 3.04351456,26.3822995 3.66962329,27.0581882 L3.66962329,33.3517372 L24.1216738,33.3517372 L24.1216738,18.175378 C24.7477825,17.6726383 25.3738913,17.1704682 26,16.6563371 Z" id="Fill-7" fill="#3B4552"></path>
                    </g>
                </g>
            </g>
        </g>
    </g>
</svg>